<?xml version="1.0" encoding="UTF-8"?>
<svg version="1.1" xmlns="http://www.w3.org/2000/svg" width="512" height="512">
<path d="M0 0 C5.71351986 0.96462024 10.73710025 0.93008037 16.48828125 0.26953125 C32.8131493 -1.48228196 48.20347977 2.40066358 61.625 11.84765625 C78.03954665 25.35083906 83.76007277 49.44963564 85.82788086 69.78344727 C86.09907732 73.27591912 86.14685391 76.74842567 86.125 80.25 C86.12536255 81.34199707 86.12536255 81.34199707 86.12573242 82.45605469 C86.09420127 88.1069311 85.64493781 93.65765671 84.92578125 99.265625 C85.01757768 102.64759858 86.26521446 104.13782235 88 107 C89.30484617 115.90557508 88.26689549 123.62055852 83 131 C79.26782001 134.82787692 75.23577491 136.82446067 69.83984375 137.1171875 C67.89284939 137.1240552 65.94584995 137.06709827 64 137 C62.70193903 139.8072605 62.70193903 139.8072605 63.70703125 141.7265625 C64.07183594 142.35304687 64.43664062 142.97953125 64.8125 143.625 C70.00126938 153.44595796 70.19809372 163.78861945 67.03125 174.30078125 C63.62368583 183.21982231 56.88745634 191.00872262 48.33984375 195.3515625 C44.61125393 196.87814272 40.90787495 198.0395857 37 199 C44.11046619 203.11708268 51.7226458 205.01062425 59.59280396 207.11773682 C93.76981204 216.33379874 93.76981204 216.33379874 107 229 C107.77730469 229.72574219 108.55460937 230.45148438 109.35546875 231.19921875 C122.28777428 244.3048215 125.28620436 261.62702482 129 279 C129.47832275 278.02240723 129.95664551 277.04481445 130.44946289 276.03759766 C132.25074212 272.36185198 134.06312345 268.69166989 135.87866211 265.02294922 C136.65832609 263.44368346 137.43509542 261.86298483 138.20874023 260.28076172 C151.28031658 233.56303424 151.28031658 233.56303424 161 228 C165.89957673 226.40600437 170.91370086 225.71807729 176 225 C179.29984093 224.51223834 182.59871312 224.01861044 185.89697266 223.52026367 C188.17108349 223.18008887 190.44679101 222.85038054 192.72412109 222.5324707 C198.44784306 221.70141287 203.75490043 220.64520958 209.17602539 218.60424805 C211.49737688 217.83522851 213.57574287 217.76539447 216 218 C215.8506292 225.02042746 212.93049627 229.12954022 208 234 C204.0462901 237.2481836 199.90394984 240.22986642 195.7421875 243.203125 C183.61891676 252.00656848 175.98990979 264.13107872 173.48022461 278.81884766 C172.6701404 284.18508923 172.0508127 289.57176962 171.42633057 294.96224976 C163.32774228 364.06102763 163.32774228 364.06102763 145 384 C140.55633492 387.37790801 135.84381484 388.65868189 130.30078125 388.390625 C124.13627873 387.34402016 118.48234037 384.33774875 114 380 C114 379.34 114 378.68 114 378 C113.41992188 377.74605469 112.83984375 377.49210937 112.2421875 377.23046875 C105.70490632 373.6429364 100.71546969 366.65856363 96 361 C96.53429491 373.83919874 98.16927632 386.41522236 100 399.125 C101.71483008 411.07446736 103.4039059 422.93166377 104 435 C50.81796541 459.21804559 -18.99002026 449.41027879 -72 431 C-73.67082032 430.34381278 -75.33878229 429.68013084 -77 429 C-76.35373837 417.62239397 -75.25563839 406.32512681 -74 395 C-74.66644531 395.01377686 -75.33289063 395.02755371 -76.01953125 395.04174805 C-82.77491979 395.12028534 -89.30615064 394.70393132 -96 393.8125 C-96.99040283 393.68085449 -97.98080566 393.54920898 -99.0012207 393.41357422 C-120.23205827 390.39832277 -140.79266859 384.8009459 -155.40625 368.2109375 C-159.78531715 362.13605513 -160.62751465 354.6696252 -159.64550781 347.36206055 C-157.50329295 338.09324483 -153.37105513 330.20780755 -148.9375 321.875 C-148.21567976 320.4927703 -147.49497206 319.10995903 -146.77539062 317.7265625 C-146.41602417 317.04095749 -146.05665771 316.35535248 -145.68640137 315.64897156 C-144.94957914 314.24173585 -144.21746603 312.83202532 -143.48986816 311.41999817 C-141.58512394 307.77689265 -139.58838738 304.32985017 -137.2421875 300.9519043 C-128.10918847 287.33139912 -128.7615126 274.03246168 -129.125 258.0625 C-129.17889702 254.21969039 -129.2183508 250.377679 -129.23605347 246.53453064 C-129.25029989 244.16152206 -129.28713509 241.78851587 -129.34915161 239.41627502 C-129.3617099 238.35343796 -129.37426819 237.29060089 -129.38720703 236.19555664 C-129.40848663 235.26167618 -129.42976624 234.32779572 -129.45169067 233.36561584 C-129 231 -129 231 -127.2409668 229.19734192 C-124.82102506 227.90437422 -123.47596218 227.63205273 -120.75732422 227.64697266 C-119.51485428 227.64148911 -119.51485428 227.64148911 -118.24728394 227.63589478 C-117.35872711 227.64519012 -116.47017029 227.65448547 -115.5546875 227.6640625 C-113.65364248 227.65154133 -111.7526008 227.63850382 -109.8515625 227.625 C-106.86966898 227.62108547 -103.88811099 227.62493531 -100.90625 227.63964844 C-85.68811578 227.94550062 -85.68811578 227.94550062 -72 222 C-71.01 221.67 -70.02 221.34 -69 221 C-68.5978125 220.5359375 -68.195625 220.071875 -67.78125 219.59375 C-65.09833281 217.19324514 -61.8892349 216.48379392 -58.5 215.5 C-57.78529541 215.28351807 -57.07059082 215.06703613 -56.33422852 214.84399414 C-52.22471435 213.61044766 -48.09583901 212.49588114 -43.9375 211.4375 C-35.73749648 209.22962649 -35.73749648 209.22962649 -30.2421875 203.07421875 C-28.73080754 200.08309236 -27.3216776 197.07907309 -26 194 C-25.01 194 -24.02 194 -23 194 C-23 190.37 -23 186.74 -23 183 C-25.536875 182.2575 -25.536875 182.2575 -28.125 181.5 C-45.74314699 175.55128449 -59.26559241 164.05150629 -70 149 C-70.6077745 147.65662541 -71.19557662 146.30375761 -71.75 144.9375 C-73.70348796 141.74609614 -73.70348796 141.74609614 -76.9140625 141.30859375 C-79.22800831 141.0186976 -81.54460653 140.74926402 -83.86328125 140.5 C-88.49817045 139.76118827 -89.97467036 138.56833752 -93 135 C-96.35892014 129.51449081 -98.1377605 124.51868725 -98.1875 118.0625 C-98.20167969 117.22847656 -98.21585938 116.39445312 -98.23046875 115.53515625 C-98 113 -98 113 -96.96484375 110.51171875 C-95.82934 107.55573125 -95.9818853 105.87744587 -96.375 102.75 C-98.95141475 75.13209062 -96.95036213 42.98916942 -78.87109375 20.33203125 C-76.65812522 17.79704022 -74.37480464 15.38322593 -72 13 C-71.45859375 12.43539062 -70.9171875 11.87078125 -70.359375 11.2890625 C-51.49101879 -6.72164115 -23.50617389 -4.72121877 0 0 Z M94 358 C95 360 95 360 95 360 Z " fill="#FE8D93" transform="translate(199,34)"/>
<path d="M0 0 C5.71351986 0.96462024 10.73710025 0.93008037 16.48828125 0.26953125 C32.8131493 -1.48228196 48.20347977 2.40066358 61.625 11.84765625 C78.03954665 25.35083906 83.76007277 49.44963564 85.82788086 69.78344727 C86.09907732 73.27591912 86.14685391 76.74842567 86.125 80.25 C86.12536255 81.34199707 86.12536255 81.34199707 86.12573242 82.45605469 C86.09420127 88.1069311 85.64493781 93.65765671 84.92578125 99.265625 C85.01757768 102.64759858 86.26521446 104.13782235 88 107 C89.30484617 115.90557508 88.26689549 123.62055852 83 131 C79.26782001 134.82787692 75.23577491 136.82446067 69.83984375 137.1171875 C67.89284939 137.1240552 65.94584995 137.06709827 64 137 C62.70193903 139.8072605 62.70193903 139.8072605 63.70703125 141.7265625 C64.07183594 142.35304687 64.43664062 142.97953125 64.8125 143.625 C70.00126938 153.44595796 70.19809372 163.78861945 67.03125 174.30078125 C63.62099598 183.2268628 56.90547359 190.9181088 48.41015625 195.3515625 C45.96320932 196.3744967 43.53738568 197.23227818 41 198 C39.9275 198.33 38.855 198.66 37.75 199 C33.80806255 199 31.99821734 197.46520092 29 195 C27.98199424 193.68036291 26.97751635 192.34990354 26 191 C25.01 190.67 24.02 190.34 23 190 C22.67 186.7 22.34 183.4 22 180 C21.21496094 180.27714844 20.42992187 180.55429688 19.62109375 180.83984375 C18.57050781 181.20207031 17.51992187 181.56429687 16.4375 181.9375 C15.40496094 182.29714844 14.37242187 182.65679687 13.30859375 183.02734375 C-5.34295372 188.51050233 -24.59817325 184.17882468 -41.546875 175.73046875 C-53.14425375 169.32236298 -66.70975869 157.35809466 -71.75 144.9375 C-73.70348796 141.74609614 -73.70348796 141.74609614 -76.9140625 141.30859375 C-79.22800831 141.0186976 -81.54460653 140.74926402 -83.86328125 140.5 C-88.49817045 139.76118827 -89.97467036 138.56833752 -93 135 C-96.35892014 129.51449081 -98.1377605 124.51868725 -98.1875 118.0625 C-98.20167969 117.22847656 -98.21585937 116.39445312 -98.23046875 115.53515625 C-98 113 -98 113 -96.96484375 110.51171875 C-95.82934 107.55573125 -95.9818853 105.87744587 -96.375 102.75 C-98.95141475 75.13209062 -96.95036213 42.98916942 -78.87109375 20.33203125 C-76.65812522 17.79704022 -74.37480464 15.38322593 -72 13 C-71.45859375 12.43539062 -70.9171875 11.87078125 -70.359375 11.2890625 C-51.49101879 -6.72164115 -23.50617389 -4.72121877 0 0 Z " fill="#D68F70" transform="translate(199,34)"/>
<path d="M0 0 C0.72874517 0.00335924 1.45749035 0.00671848 2.20831871 0.01017952 C4.70747267 0.02504626 7.20589429 0.06137971 9.70483398 0.09692383 C11.54104974 0.11180169 13.37727879 0.125104 15.21351624 0.13700867 C19.40270515 0.16585706 23.59173541 0.20288487 27.78082275 0.24383545 C35.64848578 0.31575607 43.51611522 0.33976749 51.3840332 0.36108398 C65.12649021 0.39969185 78.8686807 0.46132459 92.61096764 0.53972054 C100.62214367 0.58508145 108.63326619 0.62456636 116.64453125 0.65039062 C123.75684949 0.67332223 130.86902809 0.7065853 137.98123556 0.75265664 C141.71259285 0.77649578 145.44381365 0.79528989 149.17524529 0.80156898 C153.28939913 0.80869997 157.40305855 0.83904683 161.51708984 0.87158203 C163.35156425 0.8694294 163.35156425 0.8694294 165.22309875 0.86723328 C166.89259079 0.8860405 166.89259079 0.8860405 168.59580994 0.90522766 C170.04738699 0.91214111 170.04738699 0.91214111 171.52828884 0.91919422 C173.95092773 1.30395508 173.95092773 1.30395508 175.76223373 2.46116924 C177.45907412 5.09171456 177.32563863 7.06742997 177.32514954 10.18725586 C177.33216385 11.41551086 177.33917816 12.64376587 177.34640503 13.90924072 C177.33897712 15.27258464 177.33124596 16.63592692 177.32324219 17.99926758 C177.32566983 19.43325057 177.32938887 20.86723188 177.33430481 22.3012085 C177.34372137 26.19789236 177.33428208 30.09432539 177.32097268 33.99098969 C177.30966861 38.06552678 177.31376488 42.14005134 177.3157196 46.21459961 C177.31660291 53.05757757 177.30551455 59.90045653 177.28710938 66.7434082 C177.26594117 74.65905076 177.26243165 82.57454826 177.26867133 90.49021339 C177.27436271 98.09935042 177.26872201 105.70843627 177.25749779 113.31756592 C177.25284879 116.55833887 177.25197925 119.79908057 177.25408363 123.03985596 C177.25596497 126.85493169 177.24787465 130.66985944 177.23202324 134.48490143 C177.22777464 135.88656248 177.22693369 137.28823853 177.22971344 138.68990326 C177.23292752 140.60016042 177.2226427 142.51042621 177.21162415 144.4206543 C177.20854484 146.02564285 177.20854484 146.02564285 177.20540333 147.66305542 C176.95092773 150.30395508 176.95092773 150.30395508 174.95092773 153.30395508 C172.68106079 153.69163513 172.68106079 153.69163513 169.80883789 153.70800781 C168.19412094 153.72703407 168.19412094 153.72703407 166.54678345 153.7464447 C165.37304169 153.74350906 164.19929993 153.74057343 162.98999023 153.73754883 C161.16762344 153.74541161 161.16762344 153.74541161 159.30844116 153.75343323 C156.72085331 153.75987516 154.13323625 153.7584886 151.5456543 153.75 C147.65414191 153.74162344 143.76416474 153.77000388 139.87280273 153.80200195 C124.49324647 153.84407519 109.65757294 153.20617015 94.95092773 148.30395508 C94.95092773 147.64395508 94.95092773 146.98395508 94.95092773 146.30395508 C98.25092773 145.31395508 101.55092773 144.32395508 104.95092773 143.30395508 C101.50719602 139.86022336 101.00641178 139.930511 96.39233398 139.89770508 C94.72847656 139.86483398 94.72847656 139.86483398 93.03100586 139.83129883 C91.87020508 139.82227539 90.7094043 139.81325195 89.51342773 139.80395508 C75.90201923 139.69487682 64.88552483 137.11661622 52.51342773 131.49145508 C51.45430176 131.01788574 50.39517578 130.54431641 49.30395508 130.05639648 C38.3638249 125.12180104 27.56780587 119.88716483 16.78295898 114.62426758 C10.02650804 111.32857588 3.23351107 108.11443476 -3.59350586 104.9675293 C-8.83180354 102.5212238 -8.83180354 102.5212238 -11.04907227 100.30395508 C-11.25855782 97.24671627 -11.34269722 94.27936201 -11.33959961 91.22021484 C-11.34631683 90.27864532 -11.35303406 89.33707581 -11.35995483 88.36697388 C-11.37901003 85.2430499 -11.38286274 82.11933987 -11.38500977 78.99536133 C-11.39143218 76.83064178 -11.39816011 74.66592313 -11.40518188 72.50120544 C-11.41717329 67.95911648 -11.42086077 63.41710368 -11.41967773 58.875 C-11.41947438 53.04593712 -11.44678595 47.21736088 -11.48122215 41.38841343 C-11.50342495 36.91637414 -11.50751732 32.44445321 -11.50645828 27.97236443 C-11.50882388 25.82289896 -11.51770091 23.67343069 -11.53312302 21.52401924 C-11.55265029 18.52135955 -11.54699731 15.51976554 -11.53491211 12.51708984 C-11.54615112 11.62399612 -11.55739014 10.7309024 -11.56896973 9.81074524 C-11.50828845 3.89807255 -11.50828845 3.89807255 -9.45927429 1.24713135 C-6.18160719 -0.03550712 -3.52559815 -0.03777164 0 0 Z " fill="#A9EDE9" transform="translate(81.049072265625,261.696044921875)"/>
<path d="M0 0 C0.65058583 -0.00482883 1.30117165 -0.00965766 1.9714722 -0.01463282 C4.14976154 -0.02589766 6.32687523 -0.00859122 8.50511169 0.00863647 C10.06731992 0.00649045 11.6295266 0.00261252 13.19172668 -0.00286865 C17.4334487 -0.01256511 21.67475003 0.00274429 25.91642118 0.02303743 C30.35263167 0.04059798 34.78882897 0.03708357 39.22506714 0.03631592 C46.6741185 0.03818913 54.12300694 0.05555669 61.57200623 0.08285522 C70.1891965 0.11431778 78.80620839 0.12485103 87.42345196 0.12338412 C95.70802577 0.12216421 103.99254137 0.13236841 112.2770977 0.14896774 C115.80534761 0.15603602 119.33357693 0.15969461 122.86183357 0.16075516 C127.01426745 0.16276157 131.16655108 0.17495089 135.31893539 0.19508743 C136.84476107 0.20093777 138.37060405 0.20338809 139.89644051 0.20223236 C141.97539183 0.20125341 144.05392003 0.21253719 146.1328125 0.22705078 C147.87965253 0.23207831 147.87965253 0.23207831 149.66178226 0.23720741 C152.50291443 0.49447632 152.50291443 0.49447632 155.50291443 2.49447632 C156.43030343 5.27664333 156.63034668 6.94251701 156.6366272 9.81452942 C156.64302467 11.13727371 156.64302467 11.13727371 156.64955139 12.48674011 C156.64909821 13.45149765 156.64864502 14.41625519 156.6481781 15.4102478 C156.65153671 16.42838562 156.65489532 17.44652344 156.65835571 18.49551392 C156.66787267 21.8688783 156.66980915 25.24219309 156.67088318 28.61557007 C156.67409503 30.95582602 156.67745905 33.29608176 156.68096924 35.63633728 C156.68696222 40.54486558 156.68880894 45.45337626 156.68821716 50.36190796 C156.68811548 56.65814753 156.70177306 62.95427447 156.71898937 69.25048733 C156.73009555 74.08455425 156.7321368 78.91859382 156.73160744 83.7526722 C156.73278944 86.07434541 156.73722346 88.39601929 156.7449398 90.71767998 C156.75471254 93.96163756 156.75187241 97.20534894 156.74583435 100.4493103 C156.75145386 101.41204361 156.75707336 102.37477692 156.76286316 103.36668396 C156.75866867 104.25133331 156.75447418 105.13598267 156.75015259 106.04743958 C156.75069736 106.81416205 156.75124212 107.58088453 156.7518034 108.37084103 C156.46542593 110.81434546 155.79839786 112.41086301 154.50291443 114.49447632 C151.07589462 116.20798622 147.1419164 115.62306614 143.37156677 115.60800171 C142.42517838 115.60814774 141.47878998 115.60829376 140.50372314 115.60844421 C137.36540968 115.60774573 134.22715506 115.59995634 131.08885193 115.59213257 C128.91694674 115.59026816 126.74504113 115.58884436 124.57313538 115.58784485 C118.84876856 115.58402148 113.12442701 115.57419271 107.40007019 115.56314087 C101.56195925 115.55292289 95.72384423 115.5483464 89.88572693 115.54330444 C78.42477831 115.5325703 66.96384847 115.51549602 55.50291443 115.49447632 C55.19241653 116.44046188 54.88191864 117.38644745 54.56201172 118.36109924 C53.70622179 120.89298423 52.78954031 123.16714152 51.59275818 125.54525757 C51.24277771 126.24328491 50.89279724 126.94131226 50.5322113 127.66049194 C50.17191833 128.36883179 49.81162537 129.07717163 49.44041443 129.80697632 C49.07625427 130.5346521 48.71209412 131.26232788 48.3368988 132.01205444 C45.64365691 137.35373384 45.64365691 137.35373384 44.50291443 138.49447632 C41.75291443 139.05697632 41.75291443 139.05697632 38.50291443 138.49447632 C35.59581689 134.66934797 33.78374966 131.54618722 32.53807068 126.88119507 C31.10770898 122.41288689 29.70095386 118.92433244 25.50291443 116.49447632 C18.66315729 115.17633225 11.77039831 115.27686949 4.82981873 115.48886108 C4.12199753 115.5073259 3.41417633 115.52579071 2.68490601 115.54481506 C0.71138046 115.6084678 -1.26072843 115.71228441 -3.23243713 115.81820679 C-6.49708557 115.49447632 -6.49708557 115.49447632 -8.66877747 114.11254883 C-11.5085715 110.04606427 -11.05472159 106.12926327 -11.0146637 101.28158569 C-11.02167297 100.24379471 -11.02868225 99.20600372 -11.03590393 98.13676453 C-11.0535203 94.7036469 -11.04184768 91.27135244 -11.02833557 87.83822632 C-11.03102942 85.45455771 -11.03491095 83.07089018 -11.03993225 80.68722534 C-11.04583226 75.69041486 -11.03724779 70.6938903 -11.01856995 65.69711304 C-10.99578056 59.28749585 -11.00890088 52.87854859 -11.0328598 46.46895599 C-11.04730393 41.54648782 -11.04271806 36.62417886 -11.03234863 31.70170593 C-11.02967753 29.33816957 -11.0329645 26.97461881 -11.04226685 24.61109924 C-11.0524092 21.30946484 -11.0369625 18.00892005 -11.0146637 14.70736694 C-11.02276062 13.7275032 -11.03085754 12.74763947 -11.03919983 11.73808289 C-11.02792053 10.83805038 -11.01664124 9.93801788 -11.00502014 9.01071167 C-11.00351204 8.23053932 -11.00200394 7.45036697 -11.00045013 6.64655304 C-9.61035667 0.70336992 -5.45734693 -0.00510411 0 0 Z " fill="#FFB733" transform="translate(316.49708557128906,100.50552368164063)"/>
<path d="M0 0 C17.28813696 4.43136057 32.94148735 12.60844906 43.4375 27.5 C48.83247606 36.65230681 52.01542974 45.84159252 54.3125 56.1875 C54.57611328 57.33025391 54.83972656 58.47300781 55.11132812 59.65039062 C55.7513086 62.43139667 56.38064414 65.21434199 57 68 C57.71748413 66.53361084 57.71748413 66.53361084 58.44946289 65.03759766 C60.25074212 61.36185198 62.06312345 57.69166989 63.87866211 54.02294922 C64.65832609 52.44368346 65.43509542 50.86298483 66.20874023 49.28076172 C79.28031658 22.56303424 79.28031658 22.56303424 89 17 C93.89957673 15.40600437 98.91370086 14.71807729 104 14 C107.29984093 13.51223834 110.59871312 13.01861044 113.89697266 12.52026367 C116.17108349 12.18008887 118.44679101 11.85038054 120.72412109 11.5324707 C126.44784306 10.70141287 131.75490043 9.64520958 137.17602539 7.60424805 C139.49737688 6.83522851 141.57574287 6.76539447 144 7 C143.8506292 14.02042746 140.93049627 18.12954022 136 23 C132.0462901 26.2481836 127.90394984 29.22986642 123.7421875 32.203125 C111.61891676 41.00656848 103.98990979 53.13107872 101.48022461 67.81884766 C100.6701404 73.18508923 100.0508127 78.57176962 99.42633057 83.96224976 C91.32774228 153.06102763 91.32774228 153.06102763 73 173 C68.55633492 176.37790801 63.84381484 177.65868189 58.30078125 177.390625 C52.13627873 176.34402016 46.48234037 173.33774875 42 169 C42 168.34 42 167.68 42 167 C41.41734375 166.7421875 40.8346875 166.484375 40.234375 166.21875 C32.69582687 162.10681466 24.80262986 152.60525971 21 145 C19.79099772 136.91695621 19.7834087 128.68467706 19.75976562 120.52978516 C19.75001212 118.50251939 19.71884333 116.47625061 19.6875 114.44921875 C19.65959233 107.33973956 20.18868645 101.27624503 22.31005859 94.49365234 C23.40989096 90.5185328 23.49347263 86.66572417 23.4375 82.5625 C23.42702637 81.73540527 23.41655273 80.90831055 23.40576172 80.05615234 C23.14315674 71.16062594 20.65310957 64.30738192 16.71875 56.375 C10.49557717 43.80578932 6.15785697 31.66781111 3 18 C2.82355957 17.25443848 2.64711914 16.50887695 2.46533203 15.74072266 C0 5.25145565 0 5.25145565 0 0 Z " fill="#D78F70" transform="translate(271,245)"/>
<path d="M0 0 C5.71351986 0.96462024 10.73710025 0.93008037 16.48828125 0.26953125 C32.8131493 -1.48228196 48.20347977 2.40066358 61.625 11.84765625 C78.04063143 25.35173143 83.75994502 49.44846475 85.82348633 69.78344727 C86.10153579 73.27502554 86.19080084 76.74822202 86.1875 80.25 C86.18814453 80.97437256 86.18878906 81.69874512 86.18945312 82.44506836 C86.12516822 89.09636427 85.27261769 95.4664717 84 102 C81.69 102 79.38 102 77 102 C76.690625 102.804375 76.38125 103.60875 76.0625 104.4375 C75 107 75 107 74 108 C71.625 108.375 71.625 108.375 69 108 C65.78586788 103.87331278 65.16162137 99.56214042 64.25 94.5625 C61.49496982 81.07900985 55.89415829 68.43032753 44.43359375 60.14453125 C41.65991552 58.35722508 38.84835593 56.66543216 36 55 C22.07748702 46.67760397 10.35588611 36.64397603 3 22 C2.5875 22.886875 2.175 23.77375 1.75 24.6875 C-4.85978397 37.1988768 -19.15284148 42.27026599 -31.5625 47.5625 C-53.80381132 56.49951202 -53.80381132 56.49951202 -69 74 C-70.46365192 78.8164318 -71.51659313 83.7030853 -72.5625 88.625 C-73.11152366 91.20435725 -73.67799852 93.7778507 -74.25390625 96.3515625 C-74.49439697 97.48416504 -74.7348877 98.61676758 -74.98266602 99.78369141 C-76.13056445 103.41278042 -77.67590521 105.99618841 -80 109 C-82.5625 110.0625 -82.5625 110.0625 -85 110 C-85.45375 109.525625 -85.9075 109.05125 -86.375 108.5625 C-88.0683464 106.59255652 -88.0683464 106.59255652 -91.6875 106.8125 C-92.780625 106.874375 -93.87375 106.93625 -95 107 C-100.332267 79.56644773 -97.02085909 49.78076597 -82.66015625 25.38671875 C-79.51391832 20.86353904 -75.8829357 16.89670497 -72 13 C-71.45859375 12.43539062 -70.9171875 11.87078125 -70.359375 11.2890625 C-51.49101879 -6.72164115 -23.50617389 -4.72121877 0 0 Z " fill="#3D3838" transform="translate(199,34)"/>
<path d="M0 0 C6.92334988 -0.07595711 13.84659263 -0.12856051 20.77026367 -0.16479492 C23.12642431 -0.17989747 25.48255677 -0.20038091 27.83862305 -0.22631836 C31.22191312 -0.26263656 34.60483208 -0.27971167 37.98828125 -0.29296875 C39.57277824 -0.31619453 39.57277824 -0.31619453 41.18928528 -0.33988953 C42.66047066 -0.34022942 42.66047066 -0.34022942 44.16137695 -0.34057617 C45.45710381 -0.35056892 45.45710381 -0.35056892 46.77900696 -0.36076355 C49.5972107 0.09700699 50.29450103 0.72716395 52 3 C52.37473011 5.64089966 52.37473011 5.64089966 52.3742218 8.88330078 C52.38474327 10.72568329 52.38474327 10.72568329 52.39547729 12.60528564 C52.38804938 13.96862956 52.38031823 15.33197185 52.37231445 16.6953125 C52.37474209 18.12929549 52.37846114 19.5632768 52.38337708 20.99725342 C52.39279364 24.89393728 52.38335434 28.79037031 52.37004495 32.68703461 C52.35874088 36.7615717 52.36283715 40.83609626 52.36479187 44.91064453 C52.36567518 51.75362249 52.35458682 58.59650146 52.33618164 65.43945312 C52.31501343 73.35509568 52.31150391 81.27059319 52.3177436 89.18625832 C52.32343497 96.79539534 52.31779428 104.40448119 52.30657005 112.01361084 C52.30192105 115.2543838 52.30105151 118.49512549 52.3031559 121.73590088 C52.30503723 125.55097661 52.29694692 129.36590436 52.2810955 133.18094635 C52.27684691 134.5826074 52.27600596 135.98428345 52.27878571 137.38594818 C52.28199978 139.29620534 52.27171497 141.20647113 52.26069641 143.11669922 C52.25864354 144.18669159 52.25659067 145.25668396 52.25447559 146.35910034 C52 149 52 149 50 152 C47.89926147 152.36076355 47.89926147 152.36076355 45.27490234 152.34057617 C44.29403656 152.34034958 43.31317078 152.34012299 42.30258179 152.33988953 C41.24108917 152.32440567 40.17959656 152.30892181 39.0859375 152.29296875 C38.00116119 152.28872391 36.91638489 152.28447906 35.79873657 152.28010559 C32.32390833 152.263273 28.84965382 152.22561189 25.375 152.1875 C23.02344586 152.17245911 20.67188265 152.15876967 18.3203125 152.14648438 C12.54667827 152.11335454 6.77338011 152.06310982 1 152 C1.33 151.01 1.66 150.02 2 149 C2.09543392 147.04071616 2.13064046 145.0783035 2.13371277 143.11669922 C2.13797775 141.88844421 2.14224274 140.66018921 2.14663696 139.39471436 C2.14628745 138.03137204 2.14582591 136.66802975 2.14526367 135.3046875 C2.14825539 133.8707063 2.15165795 132.43672591 2.15544128 131.00274658 C2.16428287 127.10614856 2.16661943 123.20957248 2.16725707 119.31296539 C2.16820599 116.06228592 2.17188399 112.81161157 2.17542917 109.56093407 C2.18357387 101.8941357 2.18601334 94.22734907 2.18530273 86.56054688 C2.18470151 78.64491672 2.19526212 70.72935461 2.2110464 62.81374168 C2.22410793 56.02217983 2.22948724 49.23064026 2.22884732 42.43906593 C2.22859198 38.38071933 2.23146315 34.32243324 2.24202538 30.26409912 C2.2516834 26.44904578 2.25180142 22.63411109 2.24450874 18.81905365 C2.24346012 17.41738462 2.24584217 16.01570829 2.2518692 14.61405182 C2.25955243 12.7038163 2.25376162 10.79354061 2.24723816 8.88330078 C2.24778293 7.81330841 2.24832769 6.74331604 2.24888897 5.64089966 C2.18884937 2.76957552 2.18884937 2.76957552 0 0 Z " fill="#00CCC1" transform="translate(206,263)"/>
<path d="M0 0 C0.33 0 0.66 0 1 0 C1.495 20.295 1.495 20.295 2 41 C7.28 43.64 12.56 46.28 18 49 C20.07925781 50.05703125 22.15851563 51.1140625 24.30078125 52.203125 C35.56580738 57.92561431 46.89561033 63.42353298 58.4375 68.5625 C60.07875854 69.29484863 60.07875854 69.29484863 61.75317383 70.04199219 C72.46536934 74.75545689 82.33308203 78.97346819 94.16796875 79.24609375 C95.87823242 79.29540039 95.87823242 79.29540039 97.62304688 79.34570312 C100.01096311 79.40720015 102.39899226 79.46445127 104.78710938 79.51757812 C105.92341797 79.55173828 107.05972656 79.58589844 108.23046875 79.62109375 C109.78350708 79.65867798 109.78350708 79.65867798 111.36791992 79.69702148 C114 80 114 80 117 82 C117 82.66 117 83.32 117 84 C110.375 87 110.375 87 107 87 C107 87.66 107 88.32 107 89 C107.73863281 89.12117188 108.47726563 89.24234375 109.23828125 89.3671875 C110.25277344 89.53476562 111.26726562 89.70234375 112.3125 89.875 C113.29863281 90.03742188 114.28476563 90.19984375 115.30078125 90.3671875 C117.30798068 90.71055213 119.31393084 91.06596917 121.3067627 91.48474121 C128.60784752 92.96698834 135.66880572 93.33912255 143.10546875 93.4140625 C144.3106868 93.43342865 145.51590485 93.4527948 146.75764465 93.4727478 C150.56752681 93.53202717 154.37744003 93.57872104 158.1875 93.625 C160.78712179 93.66322735 163.38673156 93.70228177 165.98632812 93.7421875 C172.3241112 93.83768569 178.66196805 93.92288085 185 94 C185 94.33 185 94.66 185 95 C184.07704887 95.00546844 184.07704887 95.00546844 183.13545227 95.01104736 C176.7273694 95.05287978 170.32000228 95.12223076 163.91235352 95.20751953 C161.52147584 95.23573335 159.13050481 95.25694579 156.73950195 95.27099609 C153.30110875 95.2924191 149.86383841 95.33906866 146.42578125 95.390625 C144.82395744 95.39246796 144.82395744 95.39246796 143.18977356 95.39434814 C137.25714645 95.48377772 137.25714645 95.48377772 131.93823242 97.88574219 C130.97880737 98.9322998 130.97880737 98.9322998 130 100 C117.1480611 112.8519389 117.1480611 112.8519389 110.51171875 113.1640625 C105.34397824 113.08464026 100.29072993 112.33030576 95.1875 111.5625 C93.77694336 111.36043945 93.77694336 111.36043945 92.33789062 111.15429688 C85.42319037 110.14106346 85.42319037 110.14106346 82 109 C79.46674523 108.88151733 76.95616886 108.81423585 74.421875 108.7890625 C72.86375652 108.76347596 71.30565122 108.73707639 69.74755859 108.70996094 C68.93148132 108.69670776 68.11540405 108.68345459 67.27459717 108.6697998 C0.96196564 107.49306041 0.96196564 107.49306041 -21.328125 85.7265625 C-27.88981081 78.62200341 -29.95725487 72.65140114 -30 63 C-28.61231378 52.67358839 -23.75714156 43.92484728 -18.9375 34.875 C-18.16977161 33.41135133 -17.40293088 31.94723672 -16.63696289 30.48266602 C-11.25797613 20.23074599 -5.75182013 10.04801993 0 0 Z " fill="#D69071" transform="translate(69,321)"/>
<path d="M0 0 C0.97448593 -0.00637985 1.94897186 -0.0127597 2.95298767 -0.01933289 C4.54355736 -0.02100212 4.54355736 -0.02100212 6.16625977 -0.02270508 C7.24770767 -0.02603348 8.32915558 -0.02936188 9.44337463 -0.03279114 C11.73584567 -0.0378651 14.02832413 -0.04019932 16.32080078 -0.04003906 C19.83907168 -0.04222478 23.35702883 -0.06037361 26.87524414 -0.0793457 C29.09724827 -0.0822796 31.3192539 -0.08426442 33.54125977 -0.08520508 C34.59961533 -0.09239059 35.65797089 -0.09957611 36.74839783 -0.10697937 C37.72603592 -0.10390274 38.70367401 -0.10082611 39.7109375 -0.09765625 C41.00547096 -0.09979378 41.00547096 -0.09979378 42.32615662 -0.10197449 C44.42016602 0.14526367 44.42016602 0.14526367 46.42016602 2.14526367 C46.67895508 5.00268555 46.67895508 5.00268555 46.68579102 8.61401367 C46.6896582 10.5534082 46.6896582 10.5534082 46.69360352 12.53198242 C46.68731934 13.54397705 46.68731934 13.54397705 46.6809082 14.57641602 C46.67020672 16.63742524 46.68080544 18.69756287 46.69360352 20.75854492 C46.69102539 22.05147461 46.68844727 23.3444043 46.68579102 24.67651367 C46.68353516 25.86825195 46.6812793 27.05999023 46.67895508 28.2878418 C46.42016602 31.14526367 46.42016602 31.14526367 44.42016602 33.14526367 C42.32615662 33.39250183 42.32615662 33.39250183 39.7109375 33.38818359 C38.24448036 33.39279854 38.24448036 33.39279854 36.74839783 33.39750671 C35.69004227 33.3903212 34.63168671 33.38313568 33.54125977 33.37573242 C31.91765282 33.37504509 31.91765282 33.37504509 30.26124573 33.37434387 C27.9705394 33.37131926 25.67983517 33.36342676 23.38916016 33.35107422 C19.86882299 33.33282152 16.34874867 33.33056445 12.82836914 33.33081055 C10.60766372 33.32589542 8.3869601 33.32006713 6.16625977 33.31323242 C5.10587997 33.3121196 4.04550018 33.31100677 2.95298767 33.30986023 C1.97850174 33.30348038 1.00401581 33.29710052 0 33.29052734 C-1.29334007 33.28480965 -1.29334007 33.28480965 -2.61280823 33.27897644 C-4.57983398 33.14526367 -4.57983398 33.14526367 -5.57983398 32.14526367 C-5.68004328 29.86578576 -5.71064702 27.58319232 -5.71264648 25.30151367 C-5.71360321 24.6172229 -5.71455994 23.93293213 -5.71554565 23.22790527 C-5.71622728 21.7786449 -5.71437421 20.32938149 -5.71020508 18.88012695 C-5.70485651 16.65463439 -5.71015058 14.42934366 -5.71655273 12.20385742 C-5.71589195 10.79890906 -5.71461078 9.39396082 -5.71264648 7.98901367 C-5.71151855 6.70188477 -5.71039063 5.41475586 -5.70922852 4.08862305 C-5.50532648 -0.54957112 -4.21008219 0.01861225 0 0 Z " fill="#03CCC1" transform="translate(85.579833984375,272.854736328125)"/>
<path d="M0 0 C0.66 0 1.32 0 2 0 C7.58998982 10.24831468 9.57828683 20.01502994 6.875 31.5 C3.99941108 41.04535766 -1.90429018 48.25633428 -10 54 C-13.25131236 55.69676331 -16.49380004 56.93914975 -20 58 C-21.60875 58.495 -21.60875 58.495 -23.25 59 C-27.19193745 59 -29.00178266 57.46520092 -32 55 C-33.01800576 53.68036291 -34.02248365 52.34990354 -35 51 C-35.99 50.67 -36.98 50.34 -38 50 C-38.33 46.7 -38.66 43.4 -39 40 C-39.78503906 40.27714844 -40.57007813 40.55429688 -41.37890625 40.83984375 C-42.42949219 41.20207031 -43.48007813 41.56429687 -44.5625 41.9375 C-46.11130859 42.47697266 -46.11130859 42.47697266 -47.69140625 43.02734375 C-53.70403377 44.79492846 -59.63629305 45.19351611 -65.875 45.1875 C-66.57173828 45.18814453 -67.26847656 45.18878906 -67.98632812 45.18945312 C-73.27769701 45.13530889 -77.9283778 44.44903491 -83 43 C-83 42.67 -83 42.34 -83 42 C-82.16976318 42.02094727 -81.33952637 42.04189453 -80.48413086 42.06347656 C-55.60475138 42.6088726 -36.71913939 41.41847365 -17.32763672 23.50317383 C-10.95233615 17.28240663 -5.73159414 9.81742135 -1.34765625 2.0859375 C-0.90292969 1.39757812 -0.45820313 0.70921875 0 0 Z " fill="#453E3E" transform="translate(260,174)"/>
<path d="M0 0 C1.87890625 0.21875 1.87890625 0.21875 4 1 C5.02734375 3.03125 5.02734375 3.03125 5.9375 5.5 C7.06022012 8.03311051 7.06022012 8.03311051 9 10 C13.3555388 11.10743018 17.52426819 11.1638262 22 11 C22 15 22 15 20.65234375 16.67578125 C20.08644531 17.21589844 19.52054687 17.75601563 18.9375 18.3125 C16.18962948 21.31680005 16.18962948 21.31680005 16.0625 25.5 C16.371875 26.655 16.68125 27.81 17 29 C17.33333333 31.33333333 17.66666667 33.66666667 18 36 C16.4375 36.6875 16.4375 36.6875 14 37 C12.88625 36.505 11.7725 36.01 10.625 35.5 C6.59347544 33.83178294 5.09907214 33.69178549 1 35 C-1.0180755 36.30581356 -3.02053408 37.63636792 -5 39 C-5.99 39 -6.98 39 -8 39 C-7.89558594 38.07058594 -7.79117187 37.14117187 -7.68359375 36.18359375 C-6.98295405 28.86151263 -6.98295405 28.86151263 -10.00390625 22.51171875 C-12.26748314 20.80075218 -14.49220598 19.32355795 -17 18 C-16.505 16.515 -16.505 16.515 -16 15 C-13.3828125 14.40234375 -13.3828125 14.40234375 -10.125 13.9375 C-6.84599145 13.33122808 -6.84599145 13.33122808 -4 12 C-2.04683054 8.78931048 -1.53653507 5.67999933 -1 2 C-0.67 1.34 -0.34 0.68 0 0 Z " fill="#FF842F" transform="translate(335,114)"/>
<path d="M0 0 C1.87890625 0.21875 1.87890625 0.21875 4 1 C5.02734375 3.03125 5.02734375 3.03125 5.9375 5.5 C7.06022012 8.03311051 7.06022012 8.03311051 9 10 C13.3555388 11.10743018 17.52426819 11.1638262 22 11 C22 15 22 15 20.65234375 16.67578125 C20.08644531 17.21589844 19.52054687 17.75601563 18.9375 18.3125 C16.18962948 21.31680005 16.18962948 21.31680005 16.0625 25.5 C16.371875 26.655 16.68125 27.81 17 29 C17.33333333 31.33333333 17.66666667 33.66666667 18 36 C14.59007481 37.13664173 14.2700587 36.9105594 11.1875 35.5 C7.36210684 33.98243087 5.01967237 33.68923727 1 35 C-1.0180755 36.30581356 -3.02053408 37.63636792 -5 39 C-5.99 39 -6.98 39 -8 39 C-7.89558594 38.07058594 -7.79117187 37.14117187 -7.68359375 36.18359375 C-6.98295405 28.86151263 -6.98295405 28.86151263 -10.00390625 22.51171875 C-12.26748314 20.80075218 -14.49220598 19.32355795 -17 18 C-16.505 16.515 -16.505 16.515 -16 15 C-13.3828125 14.40234375 -13.3828125 14.40234375 -10.125 13.9375 C-6.84599145 13.33122808 -6.84599145 13.33122808 -4 12 C-2.04683054 8.78931048 -1.53653507 5.67999933 -1 2 C-0.67 1.34 -0.34 0.68 0 0 Z " fill="#FF842F" transform="translate(438,114)"/>
<path d="M0 0 C1.87890625 0.25390625 1.87890625 0.25390625 4 1 C5.02734375 2.77734375 5.02734375 2.77734375 5.9375 4.9375 C7.74639405 8.15779227 8.60401758 8.88004912 12.2109375 9.97265625 C15.47900312 10.45116911 18.70338862 10.80693345 22 11 C22 15 22 15 20.65234375 16.67578125 C20.08644531 17.21589844 19.52054687 17.75601563 18.9375 18.3125 C16.18962948 21.31680005 16.18962948 21.31680005 16.0625 25.5 C16.371875 26.655 16.68125 27.81 17 29 C17.33333333 31.33333333 17.66666667 33.66666667 18 36 C14.5590137 35.59517808 11.5209907 35.21808913 8.3125 33.875 C5.54685481 32.82853966 4.70042529 32.85436503 2 34 C0.515 35.0209375 0.515 35.0209375 -1 36.0625 C-4 38 -4 38 -8 38 C-7.979375 37.07058594 -7.95875 36.14117187 -7.9375 35.18359375 C-7.88101454 27.90705139 -7.88101454 27.90705139 -10.84765625 21.51171875 C-12.82690411 19.8256928 -14.77782147 18.34646809 -17 17 C-16.505 15.515 -16.505 15.515 -16 14 C-13.671875 13.4375 -13.671875 13.4375 -10.75 13 C-6.92381303 12.09942803 -5.43986919 11.63038578 -3.16015625 8.36328125 C-1.94128299 5.60403484 -0.88575547 2.88237555 0 0 Z " fill="#FF842F" transform="translate(362,160)"/>
<path d="M0 0 C3.52940415 1.40440874 4.50510797 2.63047705 6 6.0625 C7.1450266 8.29224249 7.1450266 8.29224249 9 10 C13.01619405 11.00273603 16.87427098 11.10528176 21 11 C21.68359375 12.79296875 21.68359375 12.79296875 22 15 C20.78515625 16.67578125 20.78515625 16.67578125 19.0625 18.3125 C16.42974412 21.14027483 16.0281818 21.75441575 15.5625 25.8125 C15.81086709 28.88959705 15.81086709 28.88959705 17 31 C17.039992 32.99960012 17.04346799 35.00047242 17 37 C14.32668786 36.54171792 12.00381336 36.00162068 9.5 34.9375 C6.6032384 33.8512144 5.06540442 33.48909926 2 34 C0.11204973 35.19876489 -1.61779015 36.49412772 -3.3515625 37.90625 C-5 39 -5 39 -8 39 C-7.979375 38.07058594 -7.95875 37.14117187 -7.9375 36.18359375 C-7.85048422 28.93803217 -7.85048422 28.93803217 -10.84765625 22.6171875 C-13.01125302 20.79531334 -13.01125302 20.79531334 -15.28515625 19.33203125 C-15.85105469 18.89246094 -16.41695313 18.45289063 -17 18 C-17 17.01 -17 16.02 -17 15 C-16.19175781 14.92265625 -15.38351562 14.8453125 -14.55078125 14.765625 C-11.01833398 14.20316054 -8.22447793 13.57240471 -5 12 C-2.48798831 8.22427691 -1.16387182 4.36451931 0 0 Z " fill="#FF842F" transform="translate(387,114)"/>
<path d="M0 0 C1.84375 0.21875 1.84375 0.21875 4 1 C5.28125 3.03125 5.28125 3.03125 6.5 5.5 C8.48748497 8.74897154 9.31953696 9.81813711 13.0546875 10.81640625 C16.06330795 11.03939812 18.98663533 11.12189987 22 11 C22 15 22 15 20.65234375 16.7109375 C20.08644531 17.26007813 19.52054687 17.80921875 18.9375 18.375 C16.31034579 21.15809508 16.31034579 21.15809508 16.0625 24.9375 C16.371875 25.948125 16.68125 26.95875 17 28 C17.21126399 29.45508072 17.39815565 30.91387602 17.5625 32.375 C17.706875 33.57125 17.85125 34.7675 18 36 C14.23742031 35.53927596 11.13152329 35.05601918 7.625 33.5625 C3.30919573 32.89280623 2.6974747 33.5164579 -0.75 35.9375 C-1.48734375 36.52402344 -2.2246875 37.11054688 -2.984375 37.71484375 C-3.64953125 38.13894531 -4.3146875 38.56304687 -5 39 C-5.99 38.67 -6.98 38.34 -8 38 C-7.89558594 37.154375 -7.79117187 36.30875 -7.68359375 35.4375 C-7.05675535 28.47610289 -7.05675535 28.47610289 -10.00390625 22.42578125 C-12.45466184 20.29518485 -12.45466184 20.29518485 -15.03125 18.48828125 C-15.6809375 17.99714844 -16.330625 17.50601563 -17 17 C-17 16.34 -17 15.68 -17 15 C-16.10796875 14.83886719 -15.2159375 14.67773438 -14.296875 14.51171875 C-7.2180787 13.06900664 -7.2180787 13.06900664 -2.24609375 8.28515625 C-1.28464344 5.52852567 -0.52935192 2.86938424 0 0 Z " fill="#FF842F" transform="translate(415,163)"/>
<path d="M0 0 C4.00876092 -0.22677297 4.00876092 -0.22677297 6.140625 0.50390625 C10.01098317 5.28028009 9.68864261 10.01232153 9.55859375 15.9140625 C8.79688127 22.45624728 6.2715999 27.31829096 1.703125 32.00390625 C-4.25382437 35.490901 -8.22994566 35.64691131 -14.859375 34.50390625 C-14.421875 33.04557292 -13.984375 31.58723958 -13.546875 30.12890625 C-13.27359375 29.21753906 -13.0003125 28.30617187 -12.71875 27.3671875 C-12.1676313 25.5309602 -11.61562725 23.69499826 -11.0625 21.859375 C-9.62475824 17.08401843 -8.21565581 12.30305373 -6.859375 7.50390625 C-7.519375 7.17390625 -8.179375 6.84390625 -8.859375 6.50390625 C-8.26125 6.44203125 -7.663125 6.38015625 -7.046875 6.31640625 C-4.58443411 5.68800136 -4.58443411 5.68800136 -3.609375 2.94140625 C-1.859375 0.50390625 -1.859375 0.50390625 0 0 Z " fill="#CA7050" transform="translate(277.859375,135.49609375)"/>
<path d="M0 0 C1.625 1.375 1.625 1.375 3 3 C3.99 3.66 4.98 4.32 6 5 C5.34 5 4.68 5 4 5 C5.10160148 8.3341865 6.20675334 11.66718614 7.3125 15 C7.7755957 16.40185547 7.7755957 16.40185547 8.24804688 17.83203125 C10.05395976 23.26877952 11.94977336 28.65048556 14 34 C12.45923813 35.54076187 11.0155515 35.24356699 8.875 35.3125 C3.99948301 35.23511084 0.72706991 34.16010915 -3 31 C-8.81560344 24.76789445 -10.42786078 17.75878247 -10.26171875 9.375 C-9.90017784 6.09415116 -8.8203317 3.73049755 -7 1 C-4.45132831 -0.27433584 -2.82594567 -0.27570202 0 0 Z " fill="#CB6F50" transform="translate(111,140)"/>
<path d="M0 0 C2.72436617 1.65367905 3.85048982 2.56999851 4.9140625 5.62890625 C5.14867188 6.59699219 5.38328125 7.56507813 5.625 8.5625 C6.47540138 11.5249742 6.47540138 11.5249742 8 14 C11.29811288 15.5502171 14.37901958 15.91016652 18 16 C18 17.32 18 18.64 18 20 C17.31292969 20.11214844 16.62585938 20.22429687 15.91796875 20.33984375 C13.03535099 20.970803 10.62687722 21.64405529 8 23 C6.27655731 25.84862024 5.73307771 28.78009715 5 32 C3.4375 35.0625 3.4375 35.0625 2 37 C1.34 37 0.68 37 0 37 C-0.50286934 35.0424015 -1.0022099 33.08389623 -1.5 31.125 C-1.7784375 30.03445312 -2.056875 28.94390625 -2.34375 27.8203125 C-3 25 -3 25 -3 23 C-4.37285156 22.83564453 -4.37285156 22.83564453 -5.7734375 22.66796875 C-7.55621094 22.43013672 -7.55621094 22.43013672 -9.375 22.1875 C-10.55835937 22.03667969 -11.74171875 21.88585937 -12.9609375 21.73046875 C-16 21 -16 21 -18 18 C-13.37234081 15.45478745 -9.1103144 14.1454153 -4 13 C-3.79503906 12.14535156 -3.59007813 11.29070312 -3.37890625 10.41015625 C-3.10949219 9.30542969 -2.84007813 8.20070312 -2.5625 7.0625 C-2.29566406 5.96035156 -2.02882813 4.85820312 -1.75390625 3.72265625 C-1 1 -1 1 0 0 Z " fill="#FFB832" transform="translate(98,207)"/>
<path d="M0 0 C0.99 0 1.98 0 3 0 C7.40774487 9.41002278 7.40774487 9.41002278 8 14 C8.61488281 14.06058594 9.22976563 14.12117188 9.86328125 14.18359375 C10.67152344 14.26738281 11.47976563 14.35117187 12.3125 14.4375 C13.11300781 14.51871094 13.91351563 14.59992188 14.73828125 14.68359375 C17 15 17 15 20 16 C19.505 17.485 19.505 17.485 19 19 C17.24835684 19.52694059 15.47200807 19.97319024 13.6875 20.375 C9.65111592 21.68551431 8.35269007 22.31336185 6.3828125 26.1484375 C5.4101025 29.42157114 4.60679103 32.64080484 4 36 C2.68 35.67 1.36 35.34 0 35 C-0.33872513 33.58461283 -0.67074624 32.16762037 -1 30.75 C-1.185625 29.96109375 -1.37125 29.1721875 -1.5625 28.359375 C-2 26 -2 26 -2 22 C-2.74765625 21.95101563 -3.4953125 21.90203125 -4.265625 21.8515625 C-5.25046875 21.77679688 -6.2353125 21.70203125 -7.25 21.625 C-8.22453125 21.55539062 -9.1990625 21.48578125 -10.203125 21.4140625 C-12.89633189 21.01534751 -14.66963279 20.36492937 -17 19 C-17 18.34 -17 17.68 -17 17 C-12.29593201 15.13459373 -8.05255964 13.63156995 -3 13 C-2.86722656 12.22914063 -2.73445313 11.45828125 -2.59765625 10.6640625 C-2.42105469 9.66117187 -2.24445313 8.65828125 -2.0625 7.625 C-1.80146484 6.12839844 -1.80146484 6.12839844 -1.53515625 4.6015625 C-1 2 -1 2 0 0 Z " fill="#FFB732" transform="translate(413,321)"/>
<path d="M0 0 C0.495 4.95 0.495 4.95 1 10 C-10.1087956 13.54864304 -19.87173914 14.1393127 -31.5 14.0625 C-32.799375 14.05798828 -34.09875 14.05347656 -35.4375 14.04882812 C-38.62504825 14.0371092 -41.81249955 14.02070219 -45 14 C-44.67 10.37 -44.34 6.74 -44 3 C-42.845 3.165 -41.69 3.33 -40.5 3.5 C-25.96436677 5.05168455 -13.8257102 0 0 0 Z " fill="#D78F71" transform="translate(221,214)"/>
<path d="M0 0 C-1.32816674 5.64470866 -2.74605477 9.64608218 -7.65234375 13.1953125 C-13.19133295 16.43488492 -18.70030774 17.05453364 -25 16 C-30.68528027 13.76954781 -34.159263 10.32638187 -37 5 C-37 4.34 -37 3.68 -37 3 C-36.33057373 3.01571045 -35.66114746 3.0314209 -34.97143555 3.04760742 C-31.8768797 3.1107725 -28.7824602 3.14924564 -25.6875 3.1875 C-24.63498047 3.21263672 -23.58246094 3.23777344 -22.49804688 3.26367188 C-15.973014 3.32390295 -10.39032327 2.60318895 -4.15551758 0.6496582 C-2 0 -2 0 0 0 Z " fill="#FDFAF8" transform="translate(211,169)"/>
<path d="M0 0 C2.82378039 1.03538614 3.8243145 1.66619755 5.25 4.375 C6 7 6 7 6 11 C8.97 11.33 11.94 11.66 15 12 C15.33 12.99 15.66 13.98 16 15 C11.05 16.485 11.05 16.485 6 18 C5.690625 19.44375 5.38125 20.8875 5.0625 22.375 C4.54516353 24.78923686 4.10514766 26.78970467 3 29 C2.01 29 1.02 29 0 29 C-0.66 25.37 -1.32 21.74 -2 18 C-3.423125 17.896875 -4.84625 17.79375 -6.3125 17.6875 C-9.21165331 17.47741643 -10.56549753 17.37391825 -12.79296875 15.45703125 C-13.19128906 14.97621094 -13.58960938 14.49539062 -14 14 C-10.33016838 12.37680524 -6.91904847 10.8930575 -3 10 C-2.86722656 9.36191406 -2.73445313 8.72382812 -2.59765625 8.06640625 C-2.42105469 7.24011719 -2.24445313 6.41382813 -2.0625 5.5625 C-1.88847656 4.73878906 -1.71445312 3.91507813 -1.53515625 3.06640625 C-1 1 -1 1 0 0 Z " fill="#FFB732" transform="translate(322,49)"/>
<path d="M0 0 C1.98 0.495 1.98 0.495 4 1 C4 16.18 4 31.36 4 47 C2.02 47.495 2.02 47.495 0 48 C-1.57300328 46.42699672 -1.12725504 44.86315955 -1.12939453 42.6796875 C-1.13254669 41.76203613 -1.13569885 40.84438477 -1.13894653 39.89892578 C-1.1369223 38.90103027 -1.13489807 37.90313477 -1.1328125 36.875 C-1.13376923 35.85776855 -1.13472595 34.84053711 -1.13571167 33.79248047 C-1.13639361 31.63704364 -1.13453835 29.48160478 -1.13037109 27.32617188 C-1.12502305 24.01427629 -1.13031563 20.70251633 -1.13671875 17.390625 C-1.13605797 15.30208303 -1.13477681 13.21354115 -1.1328125 11.125 C-1.13483673 10.12710449 -1.13686096 9.12920898 -1.13894653 8.10107422 C-1.13579437 7.18342285 -1.13264221 6.26577148 -1.12939453 5.3203125 C-1.12859894 4.50836426 -1.12780334 3.69641602 -1.12698364 2.85986328 C-1 1 -1 1 0 0 Z " fill="#F9FDFD" transform="translate(252,309)"/>
<path d="M0 0 C3.1875 2 3.1875 2 5 4 C4.6655974 7.09322404 4.4404882 8.58887768 2.125 10.75 C-1.95733076 13.15137103 -5.33109217 13.39567016 -10 13 C-13.4375 11 -13.4375 11 -16 9 C-15.75 5.625 -15.75 5.625 -15 2 C-10.62112641 -1.08625415 -5.10976802 -0.65005925 0 0 Z " fill="#D17352" transform="translate(242,155)"/>
<path d="M0 0 C3.1875 2 3.1875 2 5 4 C4.6655974 7.09322404 4.4404882 8.58887768 2.125 10.75 C-1.95733076 13.15137103 -5.33109217 13.39567016 -10 13 C-13.4375 11.3125 -13.4375 11.3125 -16 9 C-16.6875 6.5 -16.6875 6.5 -16 4 C-11.91826191 -1.2077348 -6.08579581 -0.94890969 0 0 Z " fill="#D17352" transform="translate(154,159)"/>
<path d="M0 0 C2.475 0.495 2.475 0.495 5 1 C5 14.53 5 28.06 5 42 C3.02 42.495 3.02 42.495 1 43 C0 42 0 42 -0.11352539 38.03100586 C-0.1133662 36.25894393 -0.10766785 34.4868774 -0.09765625 32.71484375 C-0.0962413 31.78402481 -0.09482635 30.85320587 -0.09336853 29.8941803 C-0.08775172 26.90858809 -0.0751964 23.92306971 -0.0625 20.9375 C-0.05748716 18.91862087 -0.05292388 16.89974057 -0.04882812 14.88085938 C-0.03777683 9.92054428 -0.02050095 4.96028468 0 0 Z " fill="#F8FDFD" transform="translate(199,312)"/>
<path d="M0 0 C3.69781044 1.14295959 4.81919963 2.35692296 7.4375 5.0625 C10.10584966 5.39748301 10.10584966 5.39748301 12.4375 5.0625 C11.7775 6.3825 11.1175 7.7025 10.4375 9.0625 C9.1175 9.0625 7.7975 9.0625 6.4375 9.0625 C6.169375 9.84625 5.90125 10.63 5.625 11.4375 C4.4375 14.0625 4.4375 14.0625 1.4375 16.0625 C-4.66456897 15.84456897 -4.66456897 15.84456897 -7.5 13.375 C-8.9238395 10.2760552 -9.11403827 8.44067188 -8.5625 5.0625 C-5.88937913 1.25532785 -4.71546409 0.08272744 0 0 Z " fill="#413836" transform="translate(228.5625,132.9375)"/>
<path d="M0 0 C3.73996182 0.84149141 5.20853575 2.55086127 7.5 5.5625 C8.125 8.5625 8.125 8.5625 7.5 11.5625 C5.4375 14.5 5.4375 14.5 2.5 16.5625 C-1.125 16.6875 -1.125 16.6875 -4.5 15.5625 C-6.42171842 13.14485424 -7.5 11.67782786 -7.5 8.5625 C-9.15 8.2325 -10.8 7.9025 -12.5 7.5625 C-12.5 6.5725 -12.5 5.5825 -12.5 4.5625 C-11.778125 4.645 -11.05625 4.7275 -10.3125 4.8125 C-7.33597739 4.8092361 -7.33597739 4.8092361 -5 2.5625 C-2.5 0.5625 -2.5 0.5625 0 0 Z " fill="#413836" transform="translate(156.5,133.4375)"/>
<path d="M0 0 C5.6664454 1.51417412 10.8050809 3.8050809 15 8 C15 8.66 15 9.32 15 10 C14.07832031 9.83371094 13.15664062 9.66742188 12.20703125 9.49609375 C6.06506619 8.61601868 -0.16014297 8.99551495 -6.34570312 9.12695312 C-7.30025391 9.13791016 -8.25480469 9.14886719 -9.23828125 9.16015625 C-10.5382605 9.18541382 -10.5382605 9.18541382 -11.86450195 9.21118164 C-14 9 -14 9 -16 7 C-15.8125 4.5 -15.8125 4.5 -15 2 C-10.29042748 -1.13971501 -5.51331912 -0.54999047 0 0 Z " fill="#463B38" transform="translate(230,116)"/>
<path d="M0 0 C1.56041016 -0.03867188 1.56041016 -0.03867188 3.15234375 -0.078125 C6.37971419 0.28576643 7.69963641 1.08641406 10.0625 3.25 C9.7325 4.9 9.4025 6.55 9.0625 8.25 C3.68119659 9.63314626 -1.66093143 9.30226482 -7.16796875 9.2109375 C-11.88049159 9.16341626 -16.28958115 9.45675518 -20.9375 10.25 C-16.10480792 3.00096187 -8.49024686 0.12593691 0 0 Z " fill="#433937" transform="translate(158.9375,117.75)"/>
<path d="M0 0 C1.90845703 0.04060547 1.90845703 0.04060547 3.85546875 0.08203125 C5.31919922 0.13423828 5.31919922 0.13423828 6.8125 0.1875 C7.375 2.125 7.375 2.125 7.8125 4.1875 C6.8125 5.1875 6.8125 5.1875 4.08984375 5.28515625 C0.99739583 5.25260417 -2.09505208 5.22005208 -5.1875 5.1875 C-5.1875 11.7875 -5.1875 18.3875 -5.1875 25.1875 C-6.8375 25.5175 -8.4875 25.8475 -10.1875 26.1875 C-10.274485 22.41681168 -10.32788579 18.64638068 -10.375 14.875 C-10.40013672 13.80314453 -10.42527344 12.73128906 -10.45117188 11.62695312 C-10.46083984 10.59892578 -10.47050781 9.57089844 -10.48046875 8.51171875 C-10.4961792 7.56385498 -10.51188965 6.61599121 -10.52807617 5.6394043 C-10.1875 3.1875 -10.1875 3.1875 -8.87890625 1.37304688 C-6.08530432 -0.58505517 -3.33139265 -0.09168971 0 0 Z " fill="#F9FDFD" transform="translate(84.1875,265.8125)"/>
<path d="M0 0 C1.32 0.33 2.64 0.66 4 1 C3.23513565 11.13445263 -0.04676622 20.05611946 -6.5625 27.875 C-8 29 -8 29 -11 29 C-11.25 26.8125 -11.25 26.8125 -11 24 C-10.4225 23.29875 -9.845 22.5975 -9.25 21.875 C-5.97226962 17.68678895 -4.69114415 12.99687859 -3 8 C-2.4235331 6.43495369 -1.84108756 4.87208313 -1.25 3.3125 C-0.8375 2.219375 -0.425 1.12625 0 0 Z " fill="#FCF9F7" transform="translate(353,376)"/>
<path d="M0 0 C-0.33 1.65 -0.66 3.3 -1 5 C-1.60585937 5.01417969 -2.21171875 5.02835938 -2.8359375 5.04296875 C-9.96963689 5.44904087 -17.49764581 7.203555 -22.53515625 12.6640625 C-24 14 -24 14 -28 14 C-28 11.14880408 -27.4746288 9.4843151 -25.46875 7.4375 C-17.52880915 1.13595964 -10.00081087 -0.56372003 0 0 Z " fill="#F3F3F3" transform="translate(160,39)"/>
<path d="M0 0 C1.32 0 2.64 0 4 0 C4 9.9 4 19.8 4 30 C2.35 29.67 0.7 29.34 -1 29 C-1.02465881 25.03069011 -1.04284023 21.06140966 -1.05493164 17.09204102 C-1.05997057 15.74079614 -1.06680177 14.38955674 -1.07543945 13.03833008 C-1.08752419 11.09979566 -1.09269828 9.161222 -1.09765625 7.22265625 C-1.10289307 6.05484619 -1.10812988 4.88703613 -1.11352539 3.68383789 C-1 1 -1 1 0 0 Z " fill="#FFF9EF" transform="translate(462,151)"/>
<path d="M0 0 C7.06266942 0.15353629 11.78432954 3.39139938 17 8 C19.41461061 10.79512318 21.5973335 13.56632319 23 17 C22.64453125 19.26953125 22.64453125 19.26953125 22 21 C20.13671875 20.73046875 20.13671875 20.73046875 18 20 C16.83203125 18.36328125 16.83203125 18.36328125 15.8125 16.3125 C12.21788744 10.09449007 6.30417099 7.05916687 0 4 C0 2.68 0 1.36 0 0 Z " fill="#FCF8F6" transform="translate(284,256)"/>
<path d="M0 0 C3.28928201 0.41116025 5.71246164 1.33695654 8.5625 2.9375 C13.74068437 5.67070672 19.25185664 6.27190184 25 7 C25.5625 8.9375 25.5625 8.9375 26 11 C25 12 25 12 21.5625 12.25 C13.00298137 12.11219022 5.8913851 8.8701688 -1 4 C-0.67 2.68 -0.34 1.36 0 0 Z " fill="#FCF7F4" transform="translate(159,199)"/>
<path d="M0 0 C1.084021 0.00523682 2.16804199 0.01047363 3.28491211 0.01586914 C5.03964844 0.02070312 5.03964844 0.02070312 6.82983398 0.02563477 C8.67738281 0.03820312 8.67738281 0.03820312 10.56225586 0.05102539 C12.41560547 0.05779297 12.41560547 0.05779297 14.30639648 0.06469727 C17.37089703 0.07652931 20.43530307 0.09301366 23.49975586 0.11352539 C24.15975586 1.43352539 24.81975586 2.75352539 25.49975586 4.11352539 C24.49975586 5.11352539 24.49975586 5.11352539 21.90771484 5.22705078 C20.78179932 5.22181396 19.65588379 5.21657715 18.49584961 5.21118164 C17.2809082 5.20795898 16.0659668 5.20473633 14.81420898 5.20141602 C13.53481445 5.19303711 12.25541992 5.1846582 10.93725586 5.17602539 C9.65399414 5.17151367 8.37073242 5.16700195 7.04858398 5.16235352 C3.86559564 5.15052085 0.68269824 5.13403607 -2.50024414 5.11352539 C-3.06274414 3.17602539 -3.06274414 3.17602539 -3.50024414 1.11352539 C-2.50024414 0.11352539 -2.50024414 0.11352539 0 0 Z " fill="#FFF8ED" transform="translate(344.500244140625,103.886474609375)"/>
<path d="M0 0 C7.92 0 15.84 0 24 0 C24.33 1.32 24.66 2.64 25 4 C24 5 24 5 21.59155273 5.11352539 C20.54942627 5.10828857 19.5072998 5.10305176 18.43359375 5.09765625 C17.30888672 5.09443359 16.18417969 5.09121094 15.02539062 5.08789062 C13.84138672 5.07951172 12.65738281 5.07113281 11.4375 5.0625 C10.24962891 5.05798828 9.06175781 5.05347656 7.83789062 5.04882812 C4.89187774 5.03699675 1.94596319 5.02051287 -1 5 C-0.67 3.35 -0.34 1.7 0 0 Z " fill="#FFF9F0" transform="translate(317,206)"/>
<path d="M0 0 C2.0625 0.4375 2.0625 0.4375 4 1 C5.18396883 9.02350304 6.28545428 16.86455314 6 25 C4.35 24.67 2.7 24.34 1 24 C-0.22759637 16.29464066 -1.39730635 8.81369158 -1 1 C-0.67 0.67 -0.34 0.34 0 0 Z " fill="#FFF7F8" transform="translate(288,419)"/>
<path d="M0 0 C3.43323897 1.31342772 6.63596658 2.82915144 9.875 4.5625 C14.03300507 6.67884988 17.36198348 7.69752066 22 8 C22.33 9.65 22.66 11.3 23 13 C13.68623486 13.59449565 6.55940662 10.21125307 -1 5 C-0.67 3.35 -0.34 1.7 0 0 Z " fill="#FDF9F8" transform="translate(65,408)"/>
<path d="M0 0 C0 2.31 0 4.62 0 7 C-4.62 7 -9.24 7 -14 7 C-11.10225504 4.10225504 -9.58083485 3.22244591 -5.875 1.8125 C-4.98554687 1.46832031 -4.09609375 1.12414062 -3.1796875 0.76953125 C-1 0 -1 0 0 0 Z " fill="#DA916F" transform="translate(131,255)"/>
<path d="M0 0 C1.66611905 -0.042721 3.33382885 -0.04063832 5 0 C6 1 6 1 6.0625 3.5625 C6.041875 4.366875 6.02125 5.17125 6 6 C3.625 6.625 3.625 6.625 1 7 C0.34 6.34 -0.32 5.68 -1 5 C-0.625 2.375 -0.625 2.375 0 0 Z " fill="#FAF2EE" transform="translate(309,288)"/>
<path d="M0 0 C1.66611905 -0.042721 3.33382885 -0.04063832 5 0 C6 1 6 1 6.0625 3.5625 C6.041875 4.366875 6.02125 5.17125 6 6 C3.625 6.625 3.625 6.625 1 7 C0.34 6.34 -0.32 5.68 -1 5 C-0.625 2.375 -0.625 2.375 0 0 Z " fill="#FFF6E7" transform="translate(375,103)"/>
<path d="M0 0 C1.66611905 -0.042721 3.33382885 -0.04063832 5 0 C6 1 6 1 6.0625 3.5625 C6.041875 4.366875 6.02125 5.17125 6 6 C3.625 6.625 3.625 6.625 1 7 C0.34 6.34 -0.32 5.68 -1 5 C-0.625 2.375 -0.625 2.375 0 0 Z " fill="#FFF7EA" transform="translate(324,104)"/>
<path d="M0 0 C1.2065625 0.0309375 1.2065625 0.0309375 2.4375 0.0625 C3.0625 2.4375 3.0625 2.4375 3.4375 5.0625 C2.7775 5.7225 2.1175 6.3825 1.4375 7.0625 C-0.6875 6.6875 -0.6875 6.6875 -2.5625 6.0625 C-2.94468767 4.40635343 -3.27645102 2.73792976 -3.5625 1.0625 C-2.5625 0.0625 -2.5625 0.0625 0 0 Z " fill="#F6FDFC" transform="translate(200.5625,364.9375)"/>
<path d="M0 0 C1.65 0.33 3.3 0.66 5 1 C5.33 2.65 5.66 4.3 6 6 C3.625 6.625 3.625 6.625 1 7 C0.34 6.34 -0.32 5.68 -1 5 C-0.625 2.375 -0.625 2.375 0 0 Z " fill="#F7FDFD" transform="translate(73,301)"/>
<path d="M0 0 C1.65 0.33 3.3 0.66 5 1 C5.33 2.65 5.66 4.3 6 6 C3.625 6.625 3.625 6.625 1 7 C0.34 6.34 -0.32 5.68 -1 5 C-0.625 2.375 -0.625 2.375 0 0 Z " fill="#EAFAFA" transform="translate(248,293)"/>
<path d="M0 0 C2.375 -0.125 2.375 -0.125 5 0 C5.66 0.66 6.32 1.32 7 2 C6.625 4.125 6.625 4.125 6 6 C4.125 6.625 4.125 6.625 2 7 C0 5 0 5 -0.125 2.375 C-0.08375 1.59125 -0.0425 0.8075 0 0 Z " fill="#FFF8EB" transform="translate(460,135)"/>
<path d="M0 0 C2.0625 0.4375 2.0625 0.4375 4 1 C4.33 2.65 4.66 4.3 5 6 C2.625 6.625 2.625 6.625 0 7 C-0.66 6.34 -1.32 5.68 -2 5 C-1.46428571 1.46428571 -1.46428571 1.46428571 0 0 Z " fill="#FFF5F6" transform="translate(292,454)"/>
<path d="M0 0 C2.0625 0.4375 2.0625 0.4375 4 1 C4.33 2.65 4.66 4.3 5 6 C2.625 6.625 2.625 6.625 0 7 C-0.66 6.34 -1.32 5.68 -2 5 C-1.46428571 1.46428571 -1.46428571 1.46428571 0 0 Z " fill="#FCF7F5" transform="translate(100,417)"/>
<path d="M0 0 C2.0625 0.4375 2.0625 0.4375 4 1 C4.33 2.65 4.66 4.3 5 6 C2.625 6.625 2.625 6.625 0 7 C-0.66 6.34 -1.32 5.68 -2 5 C-1.46428571 1.46428571 -1.46428571 1.46428571 0 0 Z " fill="#FCF8F6" transform="translate(194,206)"/>
<path d="M0 0 C1.67542976 0.28604898 3.34385343 0.61781233 5 1 C5.625 2.875 5.625 2.875 6 5 C5.34 5.66 4.68 6.32 4 7 C1.875 6.625 1.875 6.625 0 6 C-0.38218767 4.34385343 -0.71395102 2.67542976 -1 1 C-0.67 0.67 -0.34 0.34 0 0 Z " fill="#FFFAF2" transform="translate(463,190)"/>
<path d="M0 0 C2.0625 0.4375 2.0625 0.4375 4 1 C4.33 2.65 4.66 4.3 5 6 C2.625 6.625 2.625 6.625 0 7 C-0.66 6.34 -1.32 5.68 -2 5 C-1.46428571 1.46428571 -1.46428571 1.46428571 0 0 Z " fill="#EFEFEF" transform="translate(170,34)"/>
<path d="M0 0 C1.67542976 0.28604898 3.34385343 0.61781233 5 1 C5 2.98 5 4.96 5 7 C3.33388095 7.042721 1.66617115 7.04063832 0 7 C-1 6 -1 6 -1.125 3.5 C-1 1 -1 1 0 0 Z " fill="#EEFBFA" transform="translate(250,366)"/>
<path d="M0 0 C1.98 0 3.96 0 6 0 C6.38218767 1.65614657 6.71395102 3.32457024 7 5 C6 6 6 6 3.5 6.125 C1 6 1 6 0 5 C-0.04063832 3.33382885 -0.042721 1.66611905 0 0 Z " fill="#FCF6F4" transform="translate(353,361)"/>
<path d="M0 0 C1.98 0 3.96 0 6 0 C6.38218767 1.65614657 6.71395102 3.32457024 7 5 C6 6 6 6 3.5 6.125 C1 6 1 6 0 5 C-0.04063832 3.33382885 -0.042721 1.66611905 0 0 Z " fill="#FFF9EF" transform="translate(348,205)"/>
</svg>
