<?xml version="1.0" encoding="UTF-8"?>
<svg version="1.1" xmlns="http://www.w3.org/2000/svg" width="512" height="512">
<path d="M0 0 C0.75148614 -0.0019596 1.50297229 -0.00391919 2.27723074 -0.00593817 C4.83030776 -0.00790379 7.38295301 0.00691323 9.93597412 0.02342224 C11.29668431 0.02787816 11.29668431 0.02787816 12.68488359 0.03242409 C38.97411678 0.12328104 65.25254013 0.98070156 91.52800064 1.77218315 C99.01554991 1.99752428 106.50329863 2.21589535 113.99105826 2.43411488 C127.36298143 2.82402506 140.73473133 3.21957569 154.10638428 3.61863708 C167.00699016 4.00363275 179.90769605 4.38500688 192.80853271 4.76219177 C193.60648324 4.78552233 194.40443377 4.8088529 195.22656462 4.83289044 C196.83471235 4.87990662 198.4428601 4.92692203 200.05100788 4.97393665 C200.84476271 4.99714242 201.63851753 5.02034819 202.45632553 5.04425716 C203.6444535 5.07898995 203.6444535 5.07898995 204.85658406 5.1144244 C217.27388723 5.47753826 229.69110801 5.84345574 242.1083148 6.20984901 C245.83077316 6.31967728 249.5532352 6.42937734 253.27570629 6.5387733 C261.0748428 6.76798753 268.87394793 6.99818074 276.67296413 7.23145693 C279.88803057 7.32760938 283.10311417 7.42308593 286.3182354 7.5173912 C293.05719458 7.71528732 299.79551968 7.92543601 306.53349972 8.15431285 C309.66778284 8.25605558 312.80225902 8.34074484 315.93704987 8.42518806 C317.9067092 8.48967452 319.87634333 8.55493697 321.84594727 8.62109375 C322.72445493 8.64037333 323.60296258 8.65965292 324.50809169 8.67951673 C330.40305083 8.90124208 336.68755922 9.50217931 341.2167542 13.70649058 C345.63889723 18.89150455 346.13375359 22.60879696 345.65374756 29.25559998 C344.81714892 35.18208357 343.7357146 41.05949588 342.65618896 46.94578552 C342.33363462 48.73706024 342.01177925 50.52846094 341.69056702 52.31997681 C340.81926242 57.16860256 339.93840937 62.01545026 339.05595064 66.86205649 C338.13140098 71.94999952 337.21618198 77.03961991 336.30007935 82.12908936 C334.56251484 91.77468881 332.81740766 101.41890622 331.06920564 111.06258279 C327.94332136 128.3074508 324.83041935 145.55466488 321.72001207 162.80233032 C320.62976765 168.84620623 319.53631372 174.88948993 318.44008279 180.93228281 C317.75562025 184.70753935 317.07320175 188.48316358 316.39121056 192.25886726 C316.07690385 193.99633444 315.76172084 195.73364339 315.4455471 197.47077179 C311.87265524 217.10569319 309.43393176 236.3367849 309.43890381 256.34153748 C309.43832537 257.1045454 309.43774693 257.86755333 309.43715096 258.65368271 C309.45363868 278.17130566 310.6619245 297.61344025 311.91326904 317.08384705 C312.15419534 320.86976096 312.38519168 324.65625354 312.61585903 328.44280434 C312.89479375 333.01862421 313.17791371 337.59418107 313.46234131 342.16966248 C313.54139112 343.44306425 313.54139112 343.44306425 313.62203789 344.74219131 C313.94541391 349.91490363 314.29312228 355.08535519 314.65374756 360.25559998 C314.71676056 361.32461548 314.77977356 362.39363098 314.84469604 363.49504089 C314.94172318 364.83710602 314.94172318 364.83710602 315.04071045 366.20628357 C315.08796768 366.93785675 315.13522491 367.66942993 315.18391418 368.423172 C315.965545 371.47166166 318.11764228 372.73592124 320.56390381 374.53684998 C332.81575647 384.61314001 340.82230874 402.86063403 342.65374756 418.25559998 C343.19797453 425.61604675 342.55217914 432.13648154 340.65374756 439.25559998 C341.70562256 439.38515076 341.70562256 439.38515076 342.77874756 439.51731873 C352.11123161 440.89943933 358.53800947 443.98056809 364.46624756 451.43919373 C367.7332859 456.43647277 368.47851141 462.4211594 367.65374756 468.25559998 C364.0382513 481.79905352 357.31973564 488.23715457 345.58343506 495.54466248 C334.48715943 501.6267215 322.83159139 501.5565986 310.54437256 500.8747406 C302.06728606 500.6285382 297.52802019 502.4731878 290.65374756 507.25559998 C287.44671631 508.68138123 287.44671631 508.68138123 284.84124756 509.56809998 C283.96855225 509.87360779 283.09585693 510.1791156 282.19671631 510.49388123 C267.55231107 514.88045422 249.84598727 513.48611329 235.65374756 508.25559998 C234.590271 507.87017029 233.52679443 507.4847406 232.43109131 507.08763123 C221.62203137 502.86512867 210.4248381 497.06887019 203.65374756 487.25559998 C203.33720215 486.30193542 203.02065674 485.34827087 202.69451904 484.3657074 C201.25495687 480.62623627 199.89871492 477.65295598 196.65374756 475.25559998 C188.61633059 472.33340428 179.53952668 472.38216136 171.09124756 471.81809998 C168.55389836 471.61189503 166.01694797 471.40072741 163.48040771 471.18479919 C158.87761188 470.79714969 154.27425168 470.42654742 149.66841507 470.07695389 C141.12644848 469.42184842 132.62810557 468.50506678 124.11859131 467.50950623 C120.4390553 467.09699628 116.75906613 466.68885389 113.0788269 466.28266907 C110.72097651 466.0156275 108.36451266 465.73603102 106.00967407 465.44361877 C102.72476321 465.04101303 99.438244 464.69301364 96.14593506 464.35716248 C94.69965981 464.15982262 94.69965981 464.15982262 93.22416687 463.95849609 C88.00420372 463.48047808 88.00420372 463.48047808 83.55491638 465.93511963 C81.77490779 467.96531246 80.22115208 470.05986973 78.65374756 472.25559998 C66.83902112 484.47407863 51.81236569 491.74301176 36.20062256 497.84544373 C32.84121652 499.09537432 32.84121652 499.09537432 30.56390381 500.40794373 C25.54119833 502.63683348 19.10312631 502.06673825 13.65374756 502.25559998 C12.78653076 502.289599 11.91931396 502.32359802 11.02581787 502.35862732 C-21.2541812 503.4793816 -49.46236761 494.27884222 -73.34625244 472.25559998 C-74.34011963 471.38354919 -74.34011963 471.38354919 -75.35406494 470.49388123 C-93.83493815 453.43130758 -105.23564129 425.5882507 -106.46783447 400.81077576 C-106.51400275 399.18584617 -106.55766508 397.56084324 -106.59869385 395.93577576 C-106.51650147 387.92997429 -106.51650147 387.92997429 -110.22125244 381.13059998 C-110.75750244 380.65493591 -111.29375244 380.17927185 -111.84625244 379.68919373 C-115.23988691 376.44579829 -116.21379424 371.8579169 -116.58843994 367.32591248 C-115.78159655 357.09722045 -104.52938369 347.07258906 -97.34625244 340.25559998 C-95.79049192 339.01196696 -94.21017515 337.79776208 -92.59625244 336.63059998 C-89.20315781 334.15684649 -87.03538256 331.6550411 -84.65875244 328.19309998 C-72.63752999 310.89774435 -54.14758929 296.53776667 -33.78038025 290.49423218 C-31.17761924 289.45555215 -31.17761924 289.45555215 -30.0750885 286.96313477 C-29.7724559 286.00592026 -29.4698233 285.04870575 -29.15802002 284.06248474 C-28.80447952 282.9769783 -28.45093903 281.89147186 -28.08668518 280.77307129 C-27.54421394 279.00291908 -27.54421394 279.00291908 -26.99078369 277.19700623 C-26.60307297 275.98294601 -26.21536224 274.7688858 -25.81590271 273.51803589 C-24.99735661 270.94217225 -24.18657912 268.36531871 -23.38848877 265.78318787 C-22.37440031 262.50287166 -21.33779191 259.23028876 -20.29218006 255.95990086 C-19.28728608 252.81245928 -18.29524463 249.66104945 -17.30328369 246.50950623 C-16.93556351 245.34762283 -16.56784332 244.18573944 -16.1889801 242.98864746 C-15.84489609 241.87477158 -15.50081207 240.76089569 -15.14630127 239.61326599 C-14.69593254 238.16670372 -14.69593254 238.16670372 -14.23646545 236.69091797 C-7.86851942 212.11711452 -10.61530387 186.01662091 -11.69129372 160.93855 C-11.901136 155.99000531 -12.09869392 151.04097078 -12.29730225 146.09196472 C-12.75936434 134.62558692 -13.23551126 123.15981651 -13.71346283 111.6940918 C-14.32305636 97.05677232 -14.92676576 82.41922391 -15.51643991 67.78108764 C-15.75327075 61.91391779 -15.99737838 56.04711111 -16.2473526 50.18048716 C-16.40146972 46.53093456 -16.54962445 42.88115678 -16.69625664 39.23129654 C-16.76507566 37.54905618 -16.83635463 35.86691423 -16.91037178 34.18489456 C-17.98180684 9.75650224 -17.98180684 9.75650224 -14.03375244 4.69309998 C-9.442323 0.52878025 -6.09793606 -0.04259374 0 0 Z M332.65374756 460.25559998 C331.42321548 462.34426627 330.25994948 464.47350623 329.15374756 466.63059998 C327.38472268 470.06411645 325.6267558 473.29522618 323.45062256 476.48997498 C321.52893211 479.44770722 321.24862282 480.81203971 321.65374756 484.25559998 C330.25097133 483.52392136 338.20017211 480.03867408 344.65374756 474.25559998 C347.78870651 470.37815074 349.43545273 467.27638108 349.65374756 462.25559998 C349.16992663 459.95423935 349.16992663 459.95423935 347.65374756 458.25559998 C341.68510083 454.93968513 337.09494416 455.07278321 332.65374756 460.25559998 Z " fill="#FDA3AB" transform="translate(130.34625244140625,-0.2555999755859375)"/>
<path d="M0 0 C1.78083984 0.00374634 1.78083984 0.00374634 3.59765625 0.00756836 C4.94663063 0.03284914 6.29558876 0.05900881 7.64453125 0.0859375 C9.08332426 0.10060929 10.52212729 0.11432232 11.9609375 0.12719727 C33.54068121 0.38067469 55.1252029 1.1572824 76.69460106 1.86131859 C78.58846336 1.92294014 80.48237917 1.98291044 82.376297 2.0428009 C88.14219448 2.2360885 93.89902066 2.47496972 99.65795052 2.81435108 C109.19131163 3.37533839 118.72079537 3.74225789 128.26611328 4.01757812 C129.85542902 4.0651622 131.44473853 4.11295427 133.03404236 4.16093445 C136.41730131 4.26264616 139.80059788 4.36294545 143.18393326 4.46208191 C148.56042903 4.61964962 153.93681965 4.78062865 159.3132019 4.9420166 C168.80267346 5.22645234 178.29222574 5.50811508 187.78179932 5.78912354 C202.03478105 6.21120164 216.28769926 6.63540186 230.54053581 7.06235456 C234.997782 7.19578637 239.45504543 7.32857314 243.91235733 7.45979309 C245.62249014 7.51017539 247.33262275 7.5605649 249.04275513 7.61096191 C249.8721506 7.6353781 250.70154607 7.65979428 251.55607474 7.68495035 C257.78079485 7.8692724 264.00499498 8.06780021 270.22911966 8.27115011 C274.80551563 8.41769046 279.38146632 8.52506558 283.95941162 8.61450195 C286.14205534 8.67049524 288.32469338 8.72671026 290.50732422 8.78320312 C291.46561693 8.79293907 292.42390965 8.80267502 293.41124153 8.81270599 C297.56435164 8.93794282 299.91212197 9.13868519 303.54920959 11.28961182 C305.45703125 13.4609375 305.45703125 13.4609375 305.93188477 16.87988281 C305.53284794 22.92271366 304.12610148 28.85055059 302.859375 34.7578125 C302.44643122 36.73274457 302.03349125 38.70767744 301.62072563 40.68264675 C301.18386067 42.76575468 300.74317605 44.84802088 300.30136108 46.93008423 C299.38607692 51.24481662 298.4822507 55.56189347 297.58129883 59.87963867 C297.43227458 60.59378402 297.28325033 61.30792936 297.1297102 62.04371548 C296.83035276 63.4785279 296.53104597 64.91335089 296.23179054 66.34818459 C295.78628127 68.48289059 295.33984766 70.61740159 294.89323425 72.75187683 C292.73430479 83.07782746 290.6363807 93.41388113 288.64453125 103.7734375 C288.51403381 104.45155487 288.38353638 105.12967224 288.24908447 105.82833862 C287.59437206 109.23643132 286.94372495 112.64527961 286.29589844 116.0546875 C285.51534134 120.1610047 284.72646352 124.26569799 283.93670654 128.37025452 C283.0453982 133.00421799 282.15712571 137.63876142 281.26953125 142.2734375 C281.01151733 143.61959641 281.01151733 143.61959641 280.74829102 144.99295044 C278.59062144 156.26785434 276.46566267 167.54352668 274.7355957 178.89379883 C273.98206385 183.56006245 272.9944227 187.37605052 270.45703125 191.4609375 C267.18781556 193.64041463 266.28412597 193.71705038 262.5 193.7265625 C261.43966553 193.73067139 260.37933105 193.73478027 259.28686523 193.73901367 C258.08489502 193.72974854 256.8829248 193.7204834 255.64453125 193.7109375 C254.99783478 193.70816803 254.35113831 193.70539856 253.68484497 193.70254517 C238.34741053 193.62840499 223.0260061 192.9912309 207.70239258 192.38378906 C192.07936662 191.76725905 176.45555374 191.22290226 160.828125 190.73046875 C159.82868551 190.6988735 158.82924603 190.66727825 157.79952049 190.63472557 C148.68064869 190.34654093 139.56174063 190.05956827 130.44259644 189.78012085 C107.51050936 189.07681343 84.59292253 188.23892434 61.67549133 187.15473938 C51.72985697 186.68627467 41.78907972 186.27980305 31.8359375 186.00390625 C29.81444126 185.94244642 27.7929563 185.8806138 25.77148438 185.81835938 C22.82270288 185.72770876 19.87457297 185.64536107 16.92504883 185.58276367 C13.9150774 185.51599077 10.90736645 185.41914707 7.8984375 185.31640625 C7.01233292 185.30473923 6.12622833 185.2930722 5.21327209 185.28105164 C0.79395986 185.10177167 -1.01241125 184.88650443 -4.57055664 182.0324707 C-7.58264056 178.1054649 -7.69973986 175.99199634 -7.82421875 171.0625 C-7.84231094 170.38761032 -7.86040314 169.71272064 -7.87904358 169.01737976 C-7.93907127 166.70699958 -7.99139128 164.39652106 -8.04296875 162.0859375 C-8.0832108 160.39347233 -8.12349544 158.70100817 -8.16381836 157.00854492 C-8.27547761 152.20686925 -8.37757372 147.40502662 -8.47723389 142.60308838 C-8.54427293 139.39859717 -8.61405265 136.19417323 -8.68408203 132.98974609 C-9.06803401 115.14806663 -9.3463244 97.30558242 -9.54296875 79.4609375 C-9.55180084 78.66667107 -9.56063293 77.87240463 -9.56973267 77.05406952 C-9.6922551 65.88847396 -9.77993926 54.72313611 -9.82907104 43.55697632 C-9.84460953 40.16738295 -9.86941279 36.77805043 -9.90213013 33.38858032 C-9.94013352 29.38895258 -9.95856381 25.38970444 -9.96198273 21.38990211 C-9.96645383 19.90897759 -9.97776615 18.42805613 -9.99629974 16.94724083 C-10.02050813 14.91418253 -10.01741037 12.88085376 -10.01293945 10.84765625 C-10.01880569 9.70514404 -10.02467194 8.56263184 -10.03071594 7.38549805 C-9.04816117 1.49404245 -5.56598443 -0.0462133 0 0 Z " fill="#094885" transform="translate(148.54296875,23.5390625)"/>
<path d="M0 0 C16.74156772 -0.43745369 32.05152897 1.63775363 48.07519531 6.48339844 C49.6477801 6.9557764 51.22846931 7.40108964 52.81103516 7.83886719 C61.02637035 10.24755185 67.04788944 15.02951715 72.98681641 21.05761719 C74.93722317 22.85921908 76.89431592 24.65005229 78.86181641 26.43261719 C79.9289731 27.41096592 80.99538374 28.39012907 82.06103516 29.37011719 C83.70242341 30.87782763 85.34765528 32.38146484 87.00634766 33.87011719 C99.94201932 45.9878424 108.82459386 64.02668726 112.98681641 81.05761719 C113.28458984 82.24226563 113.58236328 83.42691406 113.88916016 84.64746094 C120.14147503 113.02778422 114.84271735 142.40936319 99.70947266 167.14550781 C96.99924252 171.27675527 94.05163456 175.18409912 90.98681641 179.05761719 C90.41576172 179.80011719 89.84470703 180.54261719 89.25634766 181.30761719 C76.73321136 196.64459398 59.6363797 205.57135017 41.53369141 212.64746094 C38.17428537 213.89739153 38.17428537 213.89739153 35.89697266 215.20996094 C30.87426717 217.43885069 24.43619515 216.86875546 18.98681641 217.05761719 C18.11959961 217.09161621 17.25238281 217.12561523 16.35888672 217.16064453 C-15.92111235 218.28139882 -44.12929877 209.08085943 -68.01318359 187.05761719 C-69.00705078 186.18556641 -69.00705078 186.18556641 -70.02099609 185.29589844 C-88.50186931 168.2333248 -99.90257244 140.39026791 -101.13476562 115.61279297 C-101.1809339 113.98786338 -101.22459623 112.36286045 -101.265625 110.73779297 C-101.18343262 102.7319915 -101.18343262 102.7319915 -104.88818359 95.93261719 C-105.69255859 95.21912109 -105.69255859 95.21912109 -106.51318359 94.49121094 C-109.90681806 91.2478155 -110.88072539 86.65993411 -111.25537109 82.12792969 C-110.4485277 71.89923766 -99.19631485 61.87460627 -92.01318359 55.05761719 C-90.45742307 53.81398417 -88.87710631 52.59977929 -87.26318359 51.43261719 C-83.87008897 48.95886371 -81.70231371 46.45705831 -79.32568359 42.99511719 C-62.63044183 18.97508556 -37.43473983 5.91180402 -9.25146484 0.53027344 C-6.16482584 0.13703671 -3.10728796 0.08893039 0 0 Z " fill="#094885" transform="translate(125.01318359375,284.9423828125)"/>
<path d="M0 0 C13.48054837 11.28052288 22.74458703 28.92974643 24.8125 46.3125 C25.35672697 53.67294678 24.71093158 60.19338157 22.8125 67.3125 C23.51375 67.39886719 24.215 67.48523438 24.9375 67.57421875 C34.26998406 68.95633935 40.69676191 72.03746811 46.625 79.49609375 C49.89203834 84.49337279 50.63726385 90.47805942 49.8125 96.3125 C46.19700374 109.85595355 39.47848808 116.29405459 27.7421875 123.6015625 C16.64591187 129.68362153 4.99034383 129.61349862 -7.296875 128.93164062 C-15.77396149 128.68543823 -20.31322737 130.53008783 -27.1875 135.3125 C-30.39453125 136.73828125 -30.39453125 136.73828125 -33 137.625 C-34.30904297 138.08326172 -34.30904297 138.08326172 -35.64453125 138.55078125 C-50.28893649 142.93735425 -67.99526028 141.54301332 -82.1875 136.3125 C-83.25097656 135.92707031 -84.31445312 135.54164063 -85.41015625 135.14453125 C-101.55682221 128.83692091 -113.7014661 119.25851608 -121.1875 103.3125 C-131.78403466 77.30026198 -130.62681059 48.78574237 -119.84375 23.11328125 C-111.37075263 5.10816183 -97.82514956 -7.96162922 -79.64453125 -15.78125 C-77.50590762 -16.53828491 -75.38932392 -17.1441928 -73.1875 -17.6875 C-72.48238281 -17.88988281 -71.77726562 -18.09226562 -71.05078125 -18.30078125 C-45.97950262 -24.55795945 -20.05534504 -14.94076709 0 0 Z M14.8125 88.3125 C13.58196792 90.4011663 12.41870192 92.53040626 11.3125 94.6875 C9.54347512 98.12101647 7.78550824 101.3521262 5.609375 104.546875 C3.68768456 107.50460725 3.40737526 108.86893973 3.8125 112.3125 C12.40972377 111.58082138 20.35892455 108.0955741 26.8125 102.3125 C29.94745896 98.43505076 31.59420517 95.3332811 31.8125 90.3125 C31.32867907 88.01113938 31.32867907 88.01113938 29.8125 86.3125 C23.84385327 82.99658515 19.2536966 83.12968323 14.8125 88.3125 Z " fill="#2BAEFC" transform="translate(448.1875,371.6875)"/>
<path d="M0 0 C1.03705078 -0.01224609 2.07410156 -0.02449219 3.14257812 -0.03710938 C11.15424104 -0.05235033 17.49526108 1.14661091 24.9375 4.1875 C24.93226318 5.41380127 24.92702637 6.64010254 24.92163086 7.90356445 C24.90354439 12.4489672 24.8920546 16.99436676 24.88256836 21.53979492 C24.8775365 23.50789932 24.87071042 25.47599997 24.86206055 27.4440918 C24.84994483 30.27133101 24.84426024 33.09852084 24.83984375 35.92578125 C24.83468246 36.80712234 24.82952118 37.68846344 24.82420349 38.59651184 C24.82412796 39.41713608 24.82405243 40.23776031 24.82397461 41.08325195 C24.821754 41.80495071 24.81953339 42.52664948 24.81724548 43.2702179 C24.86924401 45.40976801 24.86924401 45.40976801 25.9375 48.1875 C26.08314045 49.87076752 26.15833215 51.56069543 26.1875 53.25 C26.22617187 54.56677734 26.22617187 54.56677734 26.265625 55.91015625 C25.97937025 58.76929591 25.45662027 60.75739815 24.54296875 63.4375 C22.36575605 70.344453 21.89301506 77.46541135 21.23153687 84.63861084 C20.83580966 88.88817961 20.39722837 93.13334113 19.9609375 97.37890625 C19.83137917 98.64528931 19.83137917 98.64528931 19.69920349 99.93725586 C14.10124694 154.20366648 14.10124694 154.20366648 0.5390625 170.91015625 C-2.20364324 173.09763132 -4.73143129 172.8380822 -8.1328125 172.71484375 C-29.5334209 168.86273424 -49.56286388 143.74781661 -64.0625 129.3125 C-64.94687744 128.43287598 -65.83125488 127.55325195 -66.74243164 126.64697266 C-71.21089799 122.16704544 -75.54104733 117.63114002 -79.64477539 112.81347656 C-80.86191882 111.41754489 -82.17351199 110.1049755 -83.5 108.8125 C-85.0625 107.1875 -85.0625 107.1875 -85.0625 105.1875 C-85.619375 104.94 -86.17625 104.6925 -86.75 104.4375 C-91.98674447 101.60682731 -95.03957488 98.0821855 -98.25 93.125 C-101.93309068 87.59257403 -106.01798726 82.74395051 -110.5703125 77.88671875 C-116.27390487 71.70931699 -121.47765038 65.22925335 -126.0625 58.1875 C-99.45105111 32.04667159 -66.17289753 13.08560426 -30.125 3.375 C-29.35575195 3.16762207 -28.58650391 2.96024414 -27.79394531 2.74658203 C-18.5491352 0.3784238 -9.51586657 0.00593629 0 0 Z " fill="#F7D356" transform="translate(166.0625,325.8125)"/>
<path d="M0 0 C11.6736624 8.99143485 22.22537487 21.11791977 25 36 C25.20989214 40.34697662 25.15980662 44.65215771 25 49 C24.95875 50.258125 24.9175 51.51625 24.875 52.8125 C23.61040236 57.41924856 21.10610227 60.43608221 18 64 C17.48308594 64.61101562 16.96617187 65.22203125 16.43359375 65.8515625 C7.75904537 75.3413094 -5.26453575 80.55630868 -17.93359375 81.41796875 C-36.57958139 82.15805205 -53.28151747 77.3401728 -67.3125 64.625 C-77.89406481 54.61979134 -85.01937635 42.91216601 -86.23828125 28.10546875 C-86.49458555 18.02866294 -83.94538975 11.26697895 -77.02734375 3.91015625 C-69.34406558 -3.32900179 -60.97513228 -6.95972039 -51 -10 C-50.37222656 -10.20109375 -49.74445313 -10.4021875 -49.09765625 -10.609375 C-32.49728496 -13.70069181 -14.02372717 -9.15678208 0 0 Z " fill="#F08550" transform="translate(430,382)"/>
<path d="M0 0 C4.7570665 2.17375887 8.18765649 5.47831388 12 9 C12.72703125 9.66128906 13.4540625 10.32257813 14.203125 11.00390625 C27.91860764 24.02402351 37.52430404 41.68640349 42 60 C42.44666016 61.77697266 42.44666016 61.77697266 42.90234375 63.58984375 C49.15465863 91.97016703 43.85590095 121.35174601 28.72265625 146.08789062 C26.01242611 150.21913809 23.06481815 154.12648193 20 158 C19.14341797 159.11375 19.14341797 159.11375 18.26953125 160.25 C6.80966548 174.28479858 -10.64578481 185.77572069 -28 191 C-28.66 190.67 -29.32 190.34 -30 190 C-29.63648438 189.48695313 -29.27296875 188.97390625 -28.8984375 188.4453125 C-12.14816609 162.93336066 -10.69352207 125.70758157 -8.77099609 96.12548828 C-8.37872158 90.87154743 -7.26211493 86.27274598 -5.65258789 81.26049805 C-4.84816831 78.47407049 -4.66502591 75.95586777 -4.75 73.0625 C-4.76546875 72.16660156 -4.7809375 71.27070313 -4.796875 70.34765625 C-4.92123698 67.84749936 -4.92123698 67.84749936 -6 65 C-6.06427615 62.06889728 -6.07039392 59.16771992 -6.01953125 56.23828125 C-6.00540695 55.37365768 -5.99128265 54.50903412 -5.97673035 53.61820984 C-5.94361386 51.7865105 -5.90725859 49.95486729 -5.86791992 48.12329102 C-5.8130545 45.3406233 -5.78424018 42.55843659 -5.75585938 39.77539062 C-5.72037164 37.99215449 -5.6833117 36.20894882 -5.64453125 34.42578125 C-5.64016556 33.60153152 -5.63579987 32.7772818 -5.63130188 31.92805481 C-5.48249265 26.80130404 -4.48983595 23.18097148 -1.94999695 18.71159363 C0.25809593 14.73330958 0.1034035 11.2709819 0.0625 6.8125 C0.05347656 5.54019531 0.04445312 4.26789063 0.03515625 2.95703125 C0.02355469 1.98121094 0.01195312 1.00539063 0 0 Z " fill="#2AAEFB" transform="translate(196,306)"/>
<path d="M0 0 C2.99788384 7.76344422 3.51656905 17.42964981 0.9375 25.4375 C-1.09247197 29.87806369 -4.39968095 33.73802419 -8 37 C-8.66 37 -9.32 37 -10 37 C-8.20594641 38.99339288 -6.55798315 40.27123761 -4.25 41.6875 C3.01458278 46.85653005 7.81795004 53.29762325 10 62 C11.27185295 71.04720142 9.32371661 79.25473453 4.08203125 86.73828125 C-1.80688819 93.77371598 -7.73756575 98.61010044 -17.0625 99.46875 C-28.24541309 100.05928738 -35.89914295 97.7316823 -44.55200195 90.39428711 C-46.87457694 88.15786395 -48.51028179 85.57753935 -50.25 82.875 C-53.90792208 77.35836495 -57.9737331 72.5369826 -62.5078125 67.69921875 C-68.21140487 61.52181699 -73.41515038 55.04175335 -78 48 C-60.81269379 31.11664937 -25.62302454 0 0 0 Z " fill="#EF854F" transform="translate(118,336)"/>
<path d="M0 0 C13.69220949 10.20037863 21.64799068 24.56824327 24.33984375 41.1953125 C24.99535912 49.04550872 24.74049992 56.66221901 22.33984375 64.1953125 C22.09492188 64.98164063 21.85 65.76796875 21.59765625 66.578125 C16.47289123 81.04538202 6.28125539 90.78000491 -7.18164062 97.40893555 C-27.02833138 106.5887122 -46.96274861 105.84946112 -67.3515625 98.9453125 C-86.06261895 91.58632717 -101.01957895 78.05272952 -109.59375 59.80078125 C-115.01500064 46.55545458 -115.75500524 31.69431909 -111.00390625 18.13671875 C-109.20918315 14.20815337 -106.97173888 10.83220394 -104.34375 7.4140625 C-102.59611648 5.22375273 -102.59611648 5.22375273 -101.2890625 2.6953125 C-93.81285866 -8.77895719 -77.70877302 -14.30354692 -64.96875 -17.07421875 C-41.58009096 -21.46929521 -19.21711271 -13.03716016 0 0 Z M-75.66015625 5.1953125 C-76.39363281 5.4840625 -77.12710938 5.7728125 -77.8828125 6.0703125 C-87.80555842 10.48918941 -96.18764922 18.25029845 -101.03515625 27.9453125 C-103.76307989 42.13051543 -99.88910091 54.06889578 -92.66015625 66.1953125 C-84.24959475 77.51842029 -73.70803973 85.0687879 -60.66015625 90.1953125 C-59.40525391 90.70771484 -59.40525391 90.70771484 -58.125 91.23046875 C-44.99700651 95.70355687 -28.22948987 94.71271546 -15.66015625 89.1953125 C-14.71011719 88.7828125 -13.76007813 88.3703125 -12.78125 87.9453125 C-3.98144754 83.63720337 3.71211688 76.92065511 8.33984375 68.1953125 C8.90063156 65.74823844 9.1849364 63.67825606 9.33984375 61.1953125 C9.41589844 60.25558594 9.49195313 59.31585938 9.5703125 58.34765625 C10.24813382 43.2707117 4.02791702 32.11221716 -5.56640625 20.984375 C-16.22132832 9.5871018 -32.85558119 1.92193115 -48.53125 0.95703125 C-58.26384762 0.72168596 -66.5227275 1.46257565 -75.66015625 5.1953125 Z " fill="#7BECE4" transform="translate(445.66015625,369.8046875)"/>
<path d="M0 0 C6.43649351 2.20679777 10.23968441 6.03512072 14.375 11.3125 C17.51791032 15.2359344 20.73228862 18.85514843 24.33984375 22.34765625 C26.04384226 24.04363594 27.61714083 25.80489696 29.1875 27.625 C36.95710843 36.61132564 45.11446957 45.18721038 53.56640625 53.53125 C55.57119292 55.56499827 57.42503615 57.62068591 59.25 59.8125 C64.3408046 65.76594691 70.29152153 70.90734195 76.05224609 76.19628906 C77.88267771 77.89135409 79.68940535 79.60749487 81.48828125 81.3359375 C95.17734073 94.42793565 109.88500702 105.75944782 127 114 C127 114.33 127 114.66 127 115 C98.50238086 119.83476849 69.90104292 112.94825905 46 97 C41.40958684 93.61790828 37.1882527 89.86197239 33 86 C32.33742187 85.41863281 31.67484375 84.83726562 30.9921875 84.23828125 C12.51001928 67.17451198 1.09000172 39.31844977 -0.12011719 14.54052734 C-0.2373191 9.68817591 -0.16576916 4.85028292 0 0 Z " fill="#28ADFC" transform="translate(24,386)"/>
<path d="M0 0 C10.1963609 -0.13525683 20.26897217 0.27154217 30.4375 0.9375 C32.53409846 1.06980133 34.63076848 1.2009221 36.72744751 1.3319397 C38.10735306 1.42006183 39.4870624 1.51131586 40.86654663 1.60580444 C44.31107008 1.84104695 47.74886498 2.03526777 51.19970703 2.14892578 C52.21424706 2.19153282 52.21424706 2.19153282 53.24928284 2.23500061 C55.10330838 2.31148291 56.9580372 2.37033818 58.81274414 2.42797852 C62.60819347 3.10915337 64.32904706 4.25080796 67 7 C68.10664372 14.31893913 65.61657681 21.39234242 63.75 28.4375 C63.10155454 30.93716052 62.45441569 33.43716037 61.80859375 35.9375 C61.49519043 37.14535156 61.18178711 38.35320312 60.85888672 39.59765625 C60.11701112 42.53647898 59.42781479 45.47573155 58.78515625 48.4375 C58.6159668 49.21295166 58.44677734 49.98840332 58.27246094 50.78735352 C57.84574384 52.7820974 57.43208214 54.77962195 57.01953125 56.77734375 C55.70666438 60.92721029 53.92922808 63.80591242 50.18061829 66.12609863 C47.6130272 67.15508265 45.73440316 67.22085403 42.97338867 67.16601562 C42.00074066 67.14772705 41.02809265 67.12943848 40.02597046 67.1105957 C35.15305072 66.93249615 30.29123583 66.66522419 25.42578125 66.34375 C23.85101265 66.2438678 23.85101265 66.2438678 22.24443054 66.14196777 C18.9335694 65.93123017 15.62304114 65.7157003 12.3125 65.5 C10.05015059 65.35515001 7.78778094 65.21061585 5.52539062 65.06640625 C0.016688 64.71458467 -5.49175045 64.35884174 -11 64 C-10.29421023 60.18793773 -9.22798185 57.03627512 -7.625 53.5 C-1.90436419 40.05815921 -0.94488637 26.35226365 -0.4375 11.9375 C-0.39431641 10.78572266 -0.35113281 9.63394531 -0.30664062 8.44726562 C-0.20149148 5.63160509 -0.09934607 2.81587024 0 0 Z " fill="#F8D455" transform="translate(241,379)"/>
<path d="M0 0 C5.51366635 -0.36757776 5.51366635 -0.36757776 7.6796875 1.26953125 C10.58578776 5.07841414 9.13157434 10.99801081 8.54296875 15.48046875 C8.06099554 18.66010493 7.54853443 21.83123416 7 25 C8.98 24.67 10.96 24.34 13 24 C13.18175781 22.83082031 13.36351562 21.66164062 13.55078125 20.45703125 C13.80413415 18.90876352 14.05807126 17.3605913 14.3125 15.8125 C14.43044922 15.04357422 14.54839844 14.27464844 14.66992188 13.48242188 C15.40130638 9.11286832 16.15368276 5.5473806 19 2 C22.0625 1.5625 22.0625 1.5625 25 2 C27 4 27 4 27 8 C27.99 7.38125 28.98 6.7625 30 6.125 C36.35389832 2.15381355 43.52595459 1.65534402 50.8125 1.6875 C51.56208984 1.67138672 52.31167969 1.65527344 53.08398438 1.63867188 C58.46439482 1.63386364 58.46439482 1.63386364 61 3.3671875 C62 5 62 5 62.1875 7.4375 C60.3418119 11.42030064 56.94554843 12.43406249 53 14 C52.01 14.33 51.02 14.66 50 15 C49.14461392 17.90405095 48.49549934 20.66134026 47.9375 23.625 C47.67936523 24.90431396 47.67936523 24.90431396 47.41601562 26.20947266 C46.133804 32.74607051 45.27611872 39.26176145 44.6875 45.8984375 C43.88851278 49.50295939 42.48800878 51.32137764 40 54 C37.5625 53.625 37.5625 53.625 35 53 C31.44208864 45.88417728 34.51636791 34.37583324 35.5 26.8125 C35.64308594 25.66974609 35.78617187 24.52699219 35.93359375 23.34960938 C36.28305265 20.56558681 36.63861208 17.78249475 37 15 C34.03 14.67 31.06 14.34 28 14 C27.73445313 15.32773438 27.46890625 16.65546875 27.1953125 18.0234375 C25.0703125 28.6484375 25.0703125 28.6484375 24.53173828 31.31787109 C24.17435394 33.12054525 23.82915469 34.92567398 23.49560547 36.73291016 C23.33205566 37.6047998 23.16850586 38.47668945 23 39.375 C22.78730469 40.54289062 22.78730469 40.54289062 22.5703125 41.734375 C21.62532293 45.48844314 19.87429539 48.6262683 18 52 C15.125 52.125 15.125 52.125 12 52 C10 50 10 50 9.76953125 47.72265625 C9.79080078 46.40587891 9.79080078 46.40587891 9.8125 45.0625 C9.81894531 44.18722656 9.82539063 43.31195313 9.83203125 42.41015625 C10 40 10 40 11 37 C8.69 37 6.38 37 4 37 C3.938125 38.19625 3.87625 39.3925 3.8125 40.625 C3.188969 45.48334571 1.70527167 47.78876456 -2 51 C-5.25 51 -5.25 51 -8 50 C-11.03919973 43.92160054 -8.51762405 35.545323 -7.125 29.25 C-5.8778875 23.38449573 -4.73683027 17.56873792 -3.9375 11.625 C-3.29955811 7.1594068 -2.40035173 3.8187414 0 0 Z " fill="#F3D156" transform="translate(315,131)"/>
<path d="M0 0 C2.5 0.625 2.5 0.625 4.08203125 2.69921875 C5.77841142 6.19946323 6.2328724 9.20399399 6.6875 13.0625 C6.84605469 14.33996094 7.00460937 15.61742188 7.16796875 16.93359375 C7.46114113 20.1929808 7.56568983 23.3556679 7.5 26.625 C8.16 26.625 8.82 26.625 9.5 26.625 C9.75007813 25.79226562 10.00015625 24.95953125 10.2578125 24.1015625 C11.65603743 20.18829146 13.41629874 16.65527149 15.375 13 C15.88353516 12.01773438 15.88353516 12.01773438 16.40234375 11.015625 C18.34763337 7.36173499 20.2051691 4.24741643 23.5 1.625 C26.25 1.875 26.25 1.875 28.5 2.625 C28.995 4.11 28.995 4.11 29.5 5.625 C30.8921875 4.8825 30.8921875 4.8825 32.3125 4.125 C37.24551564 2.01515624 42.22440572 1.99095323 47.5 2.625 C50.6875 4.125 50.6875 4.125 52.5 5.625 C52.1875 8 52.1875 8 51.5 10.625 C48.5 12.625 48.5 12.625 45.5 12.625 C45.45174072 13.2236084 45.40348145 13.8222168 45.35375977 14.43896484 C44.78524697 20.8154439 43.75019835 26.98801142 42.4375 33.25 C42.25123047 34.15878906 42.06496094 35.06757812 41.87304688 36.00390625 C41.41982704 38.2119003 40.96210307 40.41885124 40.5 42.625 C42.15 42.955 43.8 43.285 45.5 43.625 C45.875 45.875 45.875 45.875 45.5 48.625 C39.53240199 53.62112856 34.24283423 53.73112283 26.8046875 53.85546875 C24.5 53.625 24.5 53.625 21.5 51.625 C21.0625 49.1875 21.0625 49.1875 21.5 46.625 C23.3125 44.8125 23.3125 44.8125 25.5 43.625 C26.49 43.625 27.48 43.625 28.5 43.625 C28.64695312 42.63886719 28.64695312 42.63886719 28.796875 41.6328125 C30.27959391 32.19965253 32.37056802 22.9283436 34.5 13.625 C32.19 13.625 29.88 13.625 27.5 13.625 C27.14603149 14.43167114 27.14603149 14.43167114 26.78491211 15.25463867 C13.47511482 45.48306852 13.47511482 45.48306852 7.5 50.625 C4.9375 51.125 4.9375 51.125 2.5 50.625 C-4.22011558 44.68028237 -4.77218583 31.85738699 -5.5 23.625 C-5.67928957 20.43688088 -5.77002555 17.25521696 -5.8125 14.0625 C-5.83014404 13.30074463 -5.84778809 12.53898926 -5.8659668 11.75415039 C-5.85976258 6.68192356 -5.58119336 1.39529834 0 0 Z " fill="#F3D156" transform="translate(301.5,64.375)"/>
<path d="M0 0 C5.16618192 3.64878044 8.30579704 8.68497943 10.30078125 14.625 C11.20766392 21.6797036 10.66534829 27.8623126 6.30078125 33.625 C1.5067522 38.68925616 -2.88013294 42.19153148 -9.96875 42.99609375 C-21.75554184 43.21701488 -21.75554184 43.21701488 -27.015625 39.2578125 C-33.05913078 33.39659343 -35.83578135 28.42036904 -36.07421875 19.9375 C-36.00229399 12.17761789 -34.25815879 8.39527852 -29.0546875 2.8828125 C-20.62139713 -5.07455855 -9.85448302 -5.39467811 0 0 Z " fill="#0E4C88" transform="translate(111.69921875,383.375)"/>
<path d="M0 0 C3.78362355 2.27017413 7.15247173 4.60487014 10 8 C10 8.99 10 9.98 10 11 C9.34 11.33 8.68 11.66 8 12 C8 12.66 8 13.32 8 14 C8.99 14.33 9.98 14.66 11 15 C11.495 13.515 11.495 13.515 12 12 C14.81419172 16.81789623 14.60961824 21.5661189 14 27 C11.86864877 33.84336556 7.51000773 38.63357439 1.375 42.25 C-3.91533201 44.99313512 -8.12400275 45.78647963 -14 45 C-20.79600468 42.72446089 -26.1642315 39.11649572 -30 33 C-32.97611168 26.95509496 -32.72224875 20.58214321 -32 14 C-29.46893019 7.00425339 -24.02503903 2.624558 -17.625 -0.8125 C-11.44133217 -2.83818429 -6.04987497 -2.63038042 0 0 Z " fill="#0D4B88" transform="translate(168,360)"/>
<path d="M0 0 C2.80261742 0.30298567 4.52333988 0.56000604 6.625 2.5 C9.67332908 8.0424165 11.49048101 13.62374691 11 20 C11.66 20 12.32 20 13 20 C13.185625 19.21625 13.37125 18.4325 13.5625 17.625 C15.97349667 11.54509535 20.00095734 5.31611333 25 1 C27.4375 0.4375 27.4375 0.4375 30 1 C36.29172325 8.51511388 35.59364204 17.65632165 35 27 C34.68135222 30.18448623 34.24578362 33.33856183 33.75 36.5 C33.64075195 37.24080811 33.53150391 37.98161621 33.41894531 38.74487305 C32.53210264 43.89659099 30.80812711 47.59054421 28 52 C26.68 52 25.36 52 24 52 C22.10080783 46.31014378 21.59313442 41.03847428 21.375 35.0625 C21.31699219 33.75055664 21.31699219 33.75055664 21.2578125 32.41210938 C21.1643893 30.27505369 21.08114602 28.13755706 21 26 C20.61328125 27.08539063 20.2265625 28.17078125 19.828125 29.2890625 C19.3025015 30.73452713 18.77643628 32.17983118 18.25 33.625 C17.99734375 34.33785156 17.7446875 35.05070312 17.484375 35.78515625 C15.83366679 40.28333612 14.04052367 44.22835804 11 48 C8.75 48.875 8.75 48.875 7 49 C2.69301006 41.285052 1.86735804 33.66216784 1 25 C0.90203125 25.83402344 0.8040625 26.66804688 0.703125 27.52734375 C-0.42496299 36.0171784 -2.23727133 42.85590699 -7 50 C-8.875 49.75 -8.875 49.75 -11 49 C-15.03825143 43.02055402 -13.44588623 34.06587464 -12.46484375 27.3203125 C-10.31561787 16.58592751 -7.63798265 7.98516368 0 0 Z " fill="#77EAE2" transform="translate(220,62)"/>
<path d="M0 0 C0.94875 0.04125 1.8975 0.0825 2.875 0.125 C6.02701547 5.16690315 7.79146305 9.65079591 9.0625 15.4375 C10.08654651 20.41008496 10.08654651 20.41008496 11.875 25.125 C11.97296875 24.135 12.0709375 23.145 12.171875 22.125 C13.7014248 8.08725029 13.7014248 8.08725029 17.875 2.125 C20.625 1.125 20.625 1.125 22.875 1.125 C25.89375874 4.17578801 26.27596512 6.79473746 26.34277344 11.01416016 C26.3327832 11.7726123 26.32279297 12.53106445 26.3125 13.3125 C26.30637695 14.10188965 26.30025391 14.8912793 26.29394531 15.70458984 C25.99932154 27.10199708 24.0077262 41.59661405 15.9375 50.1875 C13.875 51.125 13.875 51.125 11.375 51.0625 C8.24767154 49.88975183 7.01746679 48.70343387 4.875 46.125 C3.82228735 43.52092134 2.92881727 41.04933544 2.125 38.375 C1.90457031 37.67761719 1.68414062 36.98023438 1.45703125 36.26171875 C0.91864258 34.55291992 0.39528943 32.83939632 -0.125 31.125 C-1.37377288 34.109619 -2.39280106 36.96146977 -3.0625 40.125 C-3.90989336 43.56672072 -4.79599091 46.36469293 -7.125 49.125 C-9.625 49.75 -9.625 49.75 -12.125 49.125 C-16.65418953 43.20221369 -15.95263033 36.22050977 -15.125 29.125 C-14.53940829 25.77152496 -13.78108869 22.48487081 -12.9375 19.1875 C-12.7415625 18.40745605 -12.545625 17.62741211 -12.34375 16.82373047 C-10.63278309 10.67395908 -7.27674441 0.29106978 0 0 Z " fill="#F9FAFC" transform="translate(219.125,126.875)"/>
<path d="M0 0 C0.63421875 0.23332031 1.2684375 0.46664063 1.921875 0.70703125 C9.66457174 3.9931758 15.06768639 10.28523611 18.5 17.875 C21.51276179 26.52497385 20.79487369 35.69955189 17 44 C11.99485211 52.10911557 5.71236285 57.77070385 -3.484375 60.4921875 C-12.19622117 62.25078999 -20.27723853 61.49967771 -28 57 C-34.16058113 52.61483044 -38.30523704 48.07189175 -41 41 C-41.61875 39.6078125 -41.61875 39.6078125 -42.25 38.1875 C-44.33467433 29.32763412 -43.38081661 20.7294836 -38.74609375 12.875 C-29.64250519 -0.22226093 -15.25373032 -5.75612465 0 0 Z M-32.84375 17.25390625 C-36.99389923 23.52119242 -36.65301214 29.62674898 -36 37 C-34.34644735 43.29736217 -30.29004562 47.40992676 -25 51 C-19.65814291 53.96769838 -14.99630521 54.90245396 -9 54 C-1.5030698 51.72894297 3.69342253 47.56240376 8 41 C9.70925722 37.34982799 10.27238179 34.46062685 10.25 30.4375 C10.25515625 29.50808594 10.2603125 28.57867187 10.265625 27.62109375 C9.99438101 24.9445538 9.36116595 23.29561718 8 21 C7.67 21.99 7.34 22.98 7 24 C6.01 23.67 5.02 23.34 4 23 C4 22.34 4 21.68 4 21 C4.66 20.67 5.32 20.34 6 20 C5.43866026 16.49541946 4.36612392 15.08409143 1.625 12.875 C1.01914063 12.37742187 0.41328125 11.87984375 -0.2109375 11.3671875 C-5.18845164 7.56341032 -9.46319387 6.5531309 -15.75390625 6.66015625 C-22.84873129 7.73363413 -28.46683339 11.74458971 -32.84375 17.25390625 Z " fill="#FBFBFA" transform="translate(172,351)"/>
<path d="M0 0 C0.6909375 -0.020625 1.381875 -0.04125 2.09375 -0.0625 C10.29989382 -0.12420033 17.0533001 3.30070381 23.0390625 8.93359375 C28.99434618 15.23098948 32.36419973 21.95099061 32.75 30.6875 C32.28878137 40.61068881 28.6482938 48.02851375 21.7109375 55.078125 C13.9296011 61.94546315 6.43725021 63.2399309 -3.67578125 62.73828125 C-9.11256502 62.24357275 -13.30567006 60.38005338 -17.75 57.25 C-18.62011719 56.67378906 -18.62011719 56.67378906 -19.5078125 56.0859375 C-25.63658942 51.55865003 -29.39571559 44.63700587 -30.75 37.25 C-31.61611993 26.20697093 -29.95285937 17.97299084 -22.85546875 9.33203125 C-16.25223546 2.80230334 -9.12762385 0.06662499 0 0 Z M-16.75 17.25 C-20.71004425 23.71065647 -20.49223992 29.87820809 -19.75 37.25 C-17.88763488 44.27821124 -12.92255398 48.6013353 -6.953125 52.390625 C-1.36910727 54.56878794 5.959813 54.07910613 11.69921875 52.6328125 C17.74531594 49.94829784 22.57200369 44.74068128 25.41796875 38.8203125 C27.49187774 32.41358894 26.99347685 26.05258981 24.25 19.9375 C20.98893699 14.11020274 16.50760214 11.08762172 10.8125 7.875 C-0.35849165 5.15036789 -9.24226204 8.81106974 -16.75 17.25 Z " fill="#FAFBF9" transform="translate(95.75,372.75)"/>
<path d="M0 0 C8.54281247 1.44278611 14.21113858 4.34322024 19.7421875 11.1484375 C23.10778503 16.10276429 23.82583535 22.15797959 23 28 C19.38450374 41.54345355 12.66598808 47.98155459 0.9296875 55.2890625 C-10.41970882 61.50986132 -22.44745527 61.37657634 -35 61 C-33.66236678 59.41596066 -32.31912378 57.8364945 -30.95703125 56.2734375 C-29.52982357 54.61548366 -28.13561912 52.92895214 -26.76171875 51.2265625 C-21.77615194 45.29477168 -17.99842928 42.00165719 -10.546875 39.8125 C-4.2443121 37.80186644 -0.08453955 33.81317069 3 28 C3.95828868 24.31427432 4.25261116 21.61865445 3 18 C0.69 17.34 -1.62 16.68 -4 16 C-2.84941444 10.60204011 -1.57578241 5.29012667 0 0 Z " fill="#7AEEE5" transform="translate(475,440)"/>
<path d="M0 0 C24.3516641 -0.1613844 48.66056799 0.24089116 73 1 C74.01898376 1.03158203 75.03796753 1.06316406 76.08782959 1.09570312 C112.66248948 2.23741512 149.20282386 3.88976808 185.74346924 5.82751465 C188.82354918 5.99065411 191.90370243 6.15232098 194.98388672 6.31347656 C199.29255265 6.53935054 203.60102558 6.76851825 207.90930176 7.00170898 C209.39730587 7.08223645 210.88534185 7.1621777 212.37341309 7.24145508 C218.91347265 7.59204046 225.41100412 7.99391515 231.91333008 8.78125 C235.84756712 9.19368435 239.7986435 9.28945127 243.75 9.4375 C253.62073727 9.8589669 263.40889695 10.72496351 273.23535156 11.72509766 C278.25803062 12.22452689 283.28541245 12.67250917 288.3125 13.125 C289.76450806 13.25636353 289.76450806 13.25636353 291.24584961 13.39038086 C293.49719245 13.59404155 295.7485749 13.79725113 298 14 C298 14.33 298 14.66 298 15 C270.24766977 15.2612646 242.53003034 14.96478821 214.78932571 14.18856049 C212.54097561 14.12613764 210.2925785 14.06578362 208.04415894 14.00592041 C190.17564664 13.52551634 172.35285882 12.73777242 154.51436615 11.59627342 C144.86839998 10.97908939 135.22115108 10.51537865 125.56439209 10.10888672 C112.35210231 9.54787934 99.16890772 8.90077143 85.99291992 7.74780273 C78.46520533 7.09335685 70.93304296 6.61498379 63.38986206 6.18185425 C50.01846833 5.41360461 36.66486851 4.48638022 23.3125 3.4375 C22.07193344 3.34131882 22.07193344 3.34131882 20.80630493 3.24319458 C18.45003674 3.05978836 16.09411791 2.87245413 13.73828125 2.68359375 C13.04283203 2.62948334 12.34738281 2.57537292 11.63085938 2.5196228 C7.71097506 2.19885131 3.86948887 1.70316801 0 1 C0 0.67 0 0.34 0 0 Z " fill="#184D87" transform="translate(125,228)"/>
<path d="M0 0 C4.58513086 1.87573535 6.53979281 4.78250196 9 9 C12.34246254 19.02738761 9.90656162 30.52995581 6 40 C3.05558473 45.49624183 -0.96386313 49.98795438 -7 52 C-11.95121865 52.48700511 -14.00809854 52.5988839 -18.3125 50 C-23.6248411 44.76003411 -24.21085874 38.90016612 -24.4375 31.75 C-24.19434582 21.12521951 -21.47461472 11.77359931 -14 4 C-9.21655218 -0.15951984 -6.10781531 -0.67864615 0 0 Z " fill="#F9FAFC" transform="translate(282,64)"/>
<path d="M0 0 C14.35994469 -0.37522237 28.29957228 0.22682514 41.98681641 5.05761719 C41.98681641 5.38761719 41.98681641 5.71761719 41.98681641 6.05761719 C40.75717163 6.16251465 40.75717163 6.16251465 39.50268555 6.26953125 C16.97355261 8.08508596 16.97355261 8.08508596 -5.01318359 13.05761719 C-6.09003418 13.38648926 -7.16688477 13.71536133 -8.27636719 14.05419922 C-32.03943746 21.41646508 -53.94906528 30.5705381 -75.08007812 43.84619141 C-77.37198491 45.28246843 -79.68733315 46.67708222 -82.01318359 48.05761719 C-80.58330186 43.5625292 -78.0893083 40.59430202 -74.88818359 37.24511719 C-74.14133301 36.45355225 -74.14133301 36.45355225 -73.37939453 35.64599609 C-72.38062962 34.59088565 -71.378738 33.53872496 -70.37353516 32.48974609 C-69.24005304 31.29645714 -68.1346155 30.07660736 -67.03662109 28.85058594 C-51.92154572 12.50366521 -26.90987176 1.42572347 -4.77490234 0.11230469 C-3.18314011 0.08078464 -1.59142265 0.04554642 0 0 Z " fill="#2AACFB" transform="translate(125.01318359375,284.9423828125)"/>
<path d="M0 0 C2.97787686 1.69899613 3.37843973 2.75687945 5 6 C5.73614513 11.79714289 5.06239263 15.99809203 2 21 C-1.0625 22.0625 -1.0625 22.0625 -4 22 C-6 20 -6 20 -6.1953125 17.8359375 C-6.17210937 17.02382812 -6.14890625 16.21171875 -6.125 15.375 C-6.10695313 14.55773437 -6.08890625 13.74046875 -6.0703125 12.8984375 C-6.04710937 12.27195313 -6.02390625 11.64546875 -6 11 C-8.34148231 10.87786106 -8.34148231 10.87786106 -11 12 C-17.60891111 19.69787942 -18.31721627 28.25441125 -18 38 C-15.57570994 38.16683726 -15.57570994 38.16683726 -13 38 C-11.15684329 36.0995533 -11.15684329 36.0995533 -10 34 C-11.32 33.34 -12.64 32.68 -14 32 C-14.3125 29.6875 -14.3125 29.6875 -14 27 C-10.1906552 24.03012192 -7.19793056 23.59190315 -2.4375 23.625 C-1.32246094 23.61726563 -0.20742188 23.60953125 0.94140625 23.6015625 C4.22845597 24.02976055 5.59855171 24.78056857 8 27 C7.8125 29.3125 7.8125 29.3125 7 32 C6.22011719 32.43828125 5.44023437 32.8765625 4.63671875 33.328125 C1.45563714 35.34516638 0.6086948 37.06929526 -1 40.4375 C-3.7159677 45.70272639 -6.10926176 48.47855882 -11.375 51.25 C-15.8972865 52.54208186 -19.4383591 52.79897906 -23.6875 50.625 C-29.18002747 44.39023909 -30.70315412 37.18067323 -30.37890625 29.01171875 C-29.07530039 18.65006808 -23.723815 8.74433693 -15.8125 1.875 C-11.02839417 -1.1516792 -5.4100445 -1.0651504 0 0 Z " fill="#78EAE2" transform="translate(300,130)"/>
<path d="M0 0 C0.97324219 0.35191406 1.94648438 0.70382812 2.94921875 1.06640625 C20.47767039 7.86681707 32.08391407 18.42764502 40.16796875 35.4609375 C43.86817568 45.64084954 42.88602975 57.76666742 40 68 C39.67 68 39.34 68 39 68 C38.98582031 67.07960938 38.97164063 66.15921875 38.95703125 65.2109375 C38.31869487 48.26914501 32.48994567 34.35318021 19.9375 22.61328125 C5.18627991 10.3305113 -14.09088955 5.44277914 -33 7 C-37.54719743 7.90381988 -41.71311385 9.2487614 -46 11 C-46.73347656 11.28875 -47.46695312 11.5775 -48.22265625 11.875 C-56.22068314 15.43674557 -63.75846804 21.28812371 -68 29 C-69 26 -69 26 -67.8125 23.546875 C-58.81995351 9.67044551 -48.4090497 1.55983285 -32.00390625 -2.34375 C-21.27070745 -4.32477206 -10.25093055 -3.82680916 0 0 Z " fill="#2DAEF9" transform="translate(416,365)"/>
<path d="M0 0 C2 2 2 2 2.125 5.125 C2.08375 6.07375 2.0425 7.0225 2 8 C0.10545176 8.96087136 -1.79069581 9.91858969 -3.6875 10.875 C-4.74324219 11.40867187 -5.79898437 11.94234375 -6.88671875 12.4921875 C-10 14 -10 14 -12.8125 15.03125 C-15.26892492 15.84142588 -15.26892492 15.84142588 -16.3125 18.625 C-16.539375 19.40875 -16.76625 20.1925 -17 21 C-16.319375 20.67 -15.63875 20.34 -14.9375 20 C-11.44174101 18.80995439 -8.67062141 18.72297197 -5 19 C-3 21 -3 21 -2.875 23.875 C-4.13589514 27.3774865 -4.53572477 27.64699386 -7.6875 29.25 C-11.05653203 30.70687872 -14.48311452 31.94493436 -18 33 C-18.495 35.475 -18.495 35.475 -19 38 C-18.41992188 37.855625 -17.83984375 37.71125 -17.2421875 37.5625 C-12.77712555 36.50149518 -8.62055133 35.5492145 -4 36 C-3.34 36.66 -2.68 37.32 -2 38 C-2.0078125 40.91796875 -2.0078125 40.91796875 -3 44 C-5.6171875 45.86328125 -5.6171875 45.86328125 -8.875 47.3125 C-10.47988281 48.04919922 -10.47988281 48.04919922 -12.1171875 48.80078125 C-16.68475714 50.70084071 -21.05400324 51.98738763 -26 51 C-28.7578125 49.6328125 -28.7578125 49.6328125 -31 47 C-31.565475 43.4856397 -31.28707563 40.09778321 -31 36.5625 C-30.93458008 35.57491699 -30.86916016 34.58733398 -30.80175781 33.56982422 C-29.11676677 11.11676677 -29.11676677 11.11676677 -22 4 C-19.4177256 2.50720445 -16.89137226 1.68870469 -14 1 C-13.195625 0.773125 -12.39125 0.54625 -11.5625 0.3125 C-7.73564693 -0.1541894 -3.83825336 -0.4449056 0 0 Z " fill="#78EBE2" transform="translate(382,67)"/>
<path d="M0 0 C3.49992803 -0.05869332 6.9997272 -0.09382709 10.5 -0.125 C11.48226562 -0.14175781 12.46453125 -0.15851563 13.4765625 -0.17578125 C21.3950185 -0.22857096 27.64269847 0.99234777 35 4 C35.04950115 8.76886487 35.08576738 13.53757959 35.10986328 18.30664062 C35.11991023 19.92841192 35.13355015 21.55016516 35.15087891 23.171875 C35.17518493 25.50525374 35.18649613 27.8383926 35.1953125 30.171875 C35.20563507 30.89493835 35.21595764 31.61800171 35.22659302 32.36297607 C35.22741782 36.07798039 35.06235471 38.84581045 33 42 C32.6596875 41.41992188 32.319375 40.83984375 31.96875 40.2421875 C27.67608183 33.32368507 22.5877604 28.21020632 15 25 C10.66900468 24.04622125 6.55073153 23.89233947 2.125 23.9375 C0.97257813 23.94652344 -0.17984375 23.95554687 -1.3671875 23.96484375 C-2.23601562 23.97644531 -3.10484375 23.98804688 -4 24 C-4.11016715 21.87622208 -4.18654667 19.75068651 -4.25 17.625 C-4.29640625 16.44164062 -4.3428125 15.25828125 -4.390625 14.0390625 C-4.22943101 8.97705121 -2.05499315 4.55365167 0 0 Z " fill="#EF8550" transform="translate(156,326)"/>
<path d="M0 0 C3.875 4.7265625 3.875 4.7265625 5 7.1875 C6.30278364 9.54879535 7.5697042 9.88900763 10 11 C11.68889872 12.3050581 13.3603279 13.63360658 15 15 C14.41992188 15.32871094 13.83984375 15.65742188 13.2421875 15.99609375 C5.94150812 20.44155694 1.8936347 25.43806186 -1.375 33.3125 C-2.58701987 40.46341723 -2.57777524 47.90001142 -1 55 C-10.99118186 45.33111433 -20.41267097 34.66232148 -28 23 C-19.18287185 14.45086967 -10.19113038 6.86120176 0 0 Z " fill="#F6D356" transform="translate(68,361)"/>
<path d="M0 0 C7.97689601 3.01565581 13.24221094 7.40478357 17.1484375 15.015625 C19.04592398 19.71879661 18.40459564 23.17894181 16.9375 27.90625 C14.73608519 31.86879665 12.68178151 33.62711023 9.0625 36.28125 C8.36125 35.64058594 7.66 34.99992187 6.9375 34.33984375 C5.514375 33.04240234 5.514375 33.04240234 4.0625 31.71875 C3.55630127 31.25694336 3.05010254 30.79513672 2.52856445 30.31933594 C-0.19355877 27.84271725 -2.94269099 25.4104291 -5.75 23.03125 C-12.15147424 17.48867377 -17.99164963 11.30225859 -23.9375 5.28125 C-16.96449143 -1.8752588 -9.81500518 -2.40154382 0 0 Z " fill="#F0864F" transform="translate(125.9375,449.71875)"/>
<path d="M0 0 C12.33527127 -0.82235142 23.43502825 3.87883996 32.96484375 11.58984375 C38.88010831 17.09091035 44.60017427 24.84159263 45.23828125 33.07421875 C45.41477631 41.66674121 45.11056285 47.40639866 39.3046875 53.89453125 C32.68321645 60.26133034 25.67311152 63.19175335 16.5 63.375 C4.4634208 62.92398064 -6.40380329 60.32293174 -14.9375 51.1875 C-18.95832476 46.12280728 -21.51663313 40.95390867 -22.5625 34.5625 C-21.60377353 28.49056566 -19.48583868 23.22961299 -14.83984375 19.0625 C-8.72835069 14.81812418 -2.51712459 12.87765154 5 14 C11.44260676 16.10170403 16.00901822 18.95315134 19.2265625 25.01171875 C20.72860481 28.87302954 20.56207543 31.57607558 19.0625 35.375 C16.17274978 37.6517729 13.844203 37.39668702 10.25390625 37.3359375 C7.82389656 36.97375235 6.12397721 36.20955422 4 35 C4 34.01 4 33.02 4 32 C4.71027344 32.08378906 5.42054688 32.16757812 6.15234375 32.25390625 C7.07144531 32.35574219 7.99054688 32.45757812 8.9375 32.5625 C9.85402344 32.66691406 10.77054687 32.77132812 11.71484375 32.87890625 C12.46894531 32.91886719 13.22304688 32.95882812 14 33 C14.33 32.67 14.66 32.34 15 32 C14.8345641 27.6986666 14.414965 25.51590243 11.6875 22.125 C6.77795083 18.24303089 1.06633415 18.35404775 -5 19 C-10.37208875 20.62195757 -13.44234348 24.1152575 -16.11328125 28.93359375 C-17.90212687 33.10231328 -17.6180394 36.17249594 -16.18359375 40.4140625 C-12.71796138 48.40796017 -7.06826617 53.54016111 0.9375 56.9375 C9.72645467 59.39778837 21.35087668 59.7725956 29.75 56 C34.71002383 52.99314618 38.89035884 48.59939852 40.625 42.97265625 C42.28921789 34.21817672 39.55331231 28.46823631 35 21 C28.98625019 12.49103466 21.13020368 7.37089873 11 5 C7.67173572 4.52054375 4.3559049 4.20317587 1 4 C0.67 2.68 0.34 1.36 0 0 Z " fill="#FDA1A4" transform="translate(391,385)"/>
<path d="M0 0 C0.8971875 0.7425 0.8971875 0.7425 1.8125 1.5 C1.5 3.875 1.5 3.875 0.8125 6.5 C-2.1875 8.5 -2.1875 8.5 -5.1875 8.5 C-5.23575928 9.0986084 -5.28401855 9.6972168 -5.33374023 10.31396484 C-5.90225303 16.6904439 -6.93730165 22.86301142 -8.25 29.125 C-8.43626953 30.03378906 -8.62253906 30.94257812 -8.81445312 31.87890625 C-9.26767296 34.0869003 -9.72539693 36.29385124 -10.1875 38.5 C-8.5375 38.83 -6.8875 39.16 -5.1875 39.5 C-4.8125 41.75 -4.8125 41.75 -5.1875 44.5 C-11.15509801 49.49612856 -16.44466577 49.60612283 -23.8828125 49.73046875 C-26.1875 49.5 -26.1875 49.5 -29.1875 47.5 C-29.625 45.0625 -29.625 45.0625 -29.1875 42.5 C-27.375 40.6875 -27.375 40.6875 -25.1875 39.5 C-24.1975 39.5 -23.2075 39.5 -22.1875 39.5 C-22.08953125 38.84257813 -21.9915625 38.18515625 -21.890625 37.5078125 C-20.40790609 28.07465253 -18.31693198 18.8033436 -16.1875 9.5 C-18.4975 9.17 -20.8075 8.84 -23.1875 8.5 C-23.5 6.25 -23.5 6.25 -23.1875 3.5 C-17.22259587 -2.46490413 -7.60172035 -3.57728016 0 0 Z " fill="#F6A0AA" transform="translate(352.1875,68.5)"/>
<path d="M0 0 C1.40378906 -0.02126953 1.40378906 -0.02126953 2.8359375 -0.04296875 C5.78618154 0.20081892 7.94864112 0.95637492 10.625 2.1875 C10.875 4.5 10.875 4.5 10.625 7.1875 C8.8125 9 8.8125 9 6.625 10.1875 C5.635 10.1875 4.645 10.1875 3.625 10.1875 C3.59921875 10.85652344 3.5734375 11.52554688 3.546875 12.21484375 C2.99835303 21.50231807 0.91258223 30.20740975 -1.375 39.1875 C0.275 39.8475 1.925 40.5075 3.625 41.1875 C4 43.4375 4 43.4375 3.625 46.1875 C-2.34259801 51.18362856 -7.63216577 51.29362283 -15.0703125 51.41796875 C-17.375 51.1875 -17.375 51.1875 -20.375 49.1875 C-20.25 46.375 -20.25 46.375 -19.375 43.1875 C-18.42496094 42.89488281 -17.47492188 42.60226563 -16.49609375 42.30078125 C-12.68892793 39.72296309 -12.67311404 38.68883263 -11.73046875 34.3125 C-11.3145699 31.94200944 -10.92624974 29.56655096 -10.5625 27.1875 C-10.16111789 24.81233729 -9.75881705 22.4373296 -9.35546875 20.0625 C-9.18942139 19.00804687 -9.02337402 17.95359375 -8.85229492 16.8671875 C-8.375 14.1875 -8.375 14.1875 -7.375 11.1875 C-8.15875 11.22875 -8.9425 11.27 -9.75 11.3125 C-12.375 11.1875 -12.375 11.1875 -14.375 9.1875 C-14.3125 6.75 -14.3125 6.75 -13.375 4.1875 C-9.05622026 1.00524124 -5.29307559 0.03625394 0 0 Z " fill="#F6A0AA" transform="translate(263.375,128.8125)"/>
<path d="M0 0 C0.74604492 -0.01385742 1.49208984 -0.02771484 2.26074219 -0.04199219 C7.52285666 0.00359841 7.52285666 0.00359841 10.0546875 1.74609375 C11.0625 3.375 11.0625 3.375 11.25 5.8125 C9.4043119 9.79530064 6.00804843 10.80906249 2.0625 12.375 C1.0725 12.705 0.0825 13.035 -0.9375 13.375 C-1.79288608 16.27905095 -2.44200066 19.03634026 -3 22 C-3.17208984 22.85287598 -3.34417969 23.70575195 -3.52148438 24.58447266 C-4.803696 31.12107051 -5.66138128 37.63676145 -6.25 44.2734375 C-7.04898722 47.87795939 -8.44949122 49.69637764 -10.9375 52.375 C-13.375 52 -13.375 52 -15.9375 51.375 C-19.49541136 44.25917728 -16.42113209 32.75083324 -15.4375 25.1875 C-15.22287109 23.47336914 -15.22287109 23.47336914 -15.00390625 21.72460938 C-14.65444735 18.94058681 -14.29888792 16.15749475 -13.9375 13.375 C-16.9075 13.045 -19.8775 12.715 -22.9375 12.375 C-23.2675 10.725 -23.5975 9.075 -23.9375 7.375 C-17.16509221 0.82833914 -8.99277744 0.10257921 0 0 Z " fill="#F8FAFB" transform="translate(365.9375,132.625)"/>
<path d="M0 0 C2.71548094 7.35074375 4.65259661 14.14868332 5 22 C4.03900391 22.22042969 4.03900391 22.22042969 3.05859375 22.4453125 C-3.13645512 24.05177823 -7.84682245 25.99311373 -12 31 C-13.30515957 33.32131953 -14.13700363 35.46177538 -15 38 C-19.49165204 36.50278265 -21.65824816 32.87989365 -24 29 C-25.30356918 26.14282146 -26.32701111 23.22986878 -27.3125 20.25 C-27.57611328 19.49589844 -27.83972656 18.74179687 -28.11132812 17.96484375 C-29.1686657 14.87247463 -30 12.28969535 -30 9 C-28.97261719 8.68546875 -27.94523438 8.3709375 -26.88671875 8.046875 C-19.55565633 5.78700342 -12.29465962 3.47250978 -5.13671875 0.69921875 C-3 0 -3 0 0 0 Z " fill="#0C4984" transform="translate(156,417)"/>
<path d="M0 0 C3.27634941 0.11298669 6.55205981 0.23223239 9.82763672 0.3659668 C10.95685547 0.40141602 12.08607422 0.43686523 13.24951172 0.47338867 C19.05451233 0.7011024 24.21486765 1.10491111 29.70263672 3.0534668 C27.19118634 19.56491718 27.19118634 19.56491718 24.70263672 22.0534668 C17.33960293 22.52940434 9.8774778 21.97419455 2.51513672 21.6159668 C1.24017334 21.55723389 1.24017334 21.55723389 -0.06054688 21.49731445 C-6.17769334 21.17313674 -6.17769334 21.17313674 -7.29736328 20.0534668 C-7.17189606 0.16691235 -7.17189606 0.16691235 0 0 Z " fill="#FD6286" transform="translate(263.29736328125,267.946533203125)"/>
<path d="M0 0 C2.95006261 0.06615839 5.86891321 0.1944615 8.8125 0.375 C9.66948486 0.42390381 10.52646973 0.47280762 11.40942383 0.52319336 C17.94888226 0.9072168 24.47766624 1.38812438 31 2 C32.47083876 5.92881763 31.57110454 9.11318415 30.6875 13.125 C30.42324219 14.36507813 30.15898437 15.60515625 29.88671875 16.8828125 C29 20 29 20 27 22 C19.30967291 22.66626916 11.39053628 21.97850482 3.6875 21.5625 C2.56686157 21.50388794 2.56686157 21.50388794 1.42358398 21.4440918 C-3.87837903 21.12162097 -3.87837903 21.12162097 -5 20 C-4.9047619 4.9047619 -4.9047619 4.9047619 0 0 Z " fill="#F9D357" transform="translate(317,271)"/>
<path d="M0 0 C10.72655709 -0.10194194 21.31563078 -0.07419152 32 1 C33.47083876 4.92881763 32.57110454 8.11318415 31.6875 12.125 C31.42324219 13.36507813 31.15898437 14.60515625 30.88671875 15.8828125 C30 19 30 19 28 21 C25.0859375 21.23046875 25.0859375 21.23046875 21.375 21.1875 C20.71999512 21.18032959 20.06499023 21.17315918 19.39013672 21.16577148 C14.29636122 21.0843531 9.21059948 20.85632181 4.125 20.5625 C3.08158447 20.50388794 3.08158447 20.50388794 2.01708984 20.4440918 C-2.87689572 20.12310428 -2.87689572 20.12310428 -4 19 C-3.9881589 17.12318641 -3.88933043 15.24667211 -3.75 13.375 C-3.68296875 12.35148437 -3.6159375 11.32796875 -3.546875 10.2734375 C-2.9043251 6.42731741 -1.65038816 3.52260268 0 0 Z " fill="#F18551" transform="translate(372,275)"/>
<path d="M0 0 C1.28825684 0.0942627 2.57651367 0.18852539 3.90380859 0.28564453 C4.93167984 0.35647751 4.93167984 0.35647751 5.98031616 0.42874146 C8.17179885 0.58205814 10.36187423 0.75007759 12.55224609 0.91845703 C14.03655192 1.02489483 15.52092671 1.13037569 17.00537109 1.23486328 C20.64686198 1.49328966 24.28723249 1.76491356 27.92724609 2.04345703 C29.1373089 6.12303371 28.53225677 9.00269765 27.61474609 13.16845703 C27.35048828 14.40853516 27.08623047 15.64861328 26.81396484 16.92626953 C25.92724609 20.04345703 25.92724609 20.04345703 23.92724609 22.04345703 C13.39768574 23.22304534 2.38083478 21.27978431 -8.07275391 20.04345703 C-6.84626195 0.09682462 -6.84626195 0.09682462 0 0 Z " fill="#0C4885" transform="translate(208.07275390625,264.95654296875)"/>
<path d="M0 0 C4.39675988 0.11797018 8.79328399 0.24219726 13.18969727 0.37231445 C14.68639269 0.41571813 16.18313939 0.45738913 17.67993164 0.49731445 C19.82714312 0.55488616 21.97409521 0.61861716 24.12109375 0.68359375 C26.06133423 0.73858032 26.06133423 0.73858032 28.04077148 0.79467773 C31 1 31 1 32 2 C31.69047619 17.30952381 31.69047619 17.30952381 28 21 C26.31355964 21.09965586 24.62297481 21.13080526 22.93359375 21.1328125 C21.89009766 21.13410156 20.84660156 21.13539063 19.77148438 21.13671875 C18.67126953 21.13285156 17.57105469 21.12898438 16.4375 21.125 C14.8277832 21.13080078 14.8277832 21.13080078 13.18554688 21.13671875 C7.36141758 21.12958571 1.75859995 20.87949527 -4 20 C-3.91184022 17.97840511 -3.80365464 15.95767973 -3.6875 13.9375 C-3.62949219 12.81214844 -3.57148438 11.68679688 -3.51171875 10.52734375 C-2.92849201 6.50708612 -1.653373 3.69362374 0 0 Z " fill="#FD6185" transform="translate(302,340)"/>
<path d="M0 0 C6.93147527 0.01575335 13.82941682 0.18959223 20.75 0.5703125 C21.87051758 0.62904541 21.87051758 0.62904541 23.01367188 0.68896484 C28.31545846 1.01077096 28.31545846 1.01077096 29.4375 2.1328125 C29.12797619 17.44233631 29.12797619 17.44233631 25.4375 21.1328125 C24.07840835 21.23189346 22.71425949 21.2636096 21.3515625 21.265625 C20.50762939 21.26763916 19.66369629 21.26965332 18.79418945 21.27172852 C17.89273193 21.26713623 16.99127441 21.26254395 16.0625 21.2578125 C15.1552417 21.25515381 14.2479834 21.25249512 13.31323242 21.24975586 C-4.57185699 21.12345551 -4.57185699 21.12345551 -6.5625 19.1328125 C-6.18215607 0.32041663 -6.18215607 0.32041663 0 0 Z " fill="#0B4885" transform="translate(367.5625,308.8671875)"/>
<path d="M0 0 C1.34868164 -0.00193359 1.34868164 -0.00193359 2.72460938 -0.00390625 C4.14676758 0.00189453 4.14676758 0.00189453 5.59765625 0.0078125 C6.51095703 0.00394531 7.42425781 0.00007813 8.36523438 -0.00390625 C25.54775813 0.02041438 25.54775813 0.02041438 27.66015625 2.1328125 C27.35063244 17.44233631 27.35063244 17.44233631 23.66015625 21.1328125 C16.10184829 21.56763902 8.46369726 21.08537673 0.91015625 20.6953125 C0.1116626 20.65615723 -0.68683105 20.61700195 -1.50952148 20.57666016 C-7.21907316 20.25358309 -7.21907316 20.25358309 -8.33984375 19.1328125 C-7.95324539 0.01106264 -7.95324539 0.01106264 0 0 Z " fill="#0B4885" transform="translate(257.33984375,302.8671875)"/>
<path d="M0 0 C1.21635132 0.0611499 1.21635132 0.0611499 2.45727539 0.12353516 C3.80595703 0.18927734 3.80595703 0.18927734 5.18188477 0.25634766 C6.12999023 0.30791016 7.0780957 0.35947266 8.05493164 0.41259766 C8.96823242 0.45642578 9.8815332 0.50025391 10.82250977 0.54541016 C16.94366297 0.85731605 23.02500027 1.37104415 29.11743164 2.03759766 C30.42824326 6.29041407 29.44022533 9.55661698 28.24243164 13.72509766 C27.96206055 14.75860352 27.96206055 14.75860352 27.67602539 15.81298828 C26.26947246 20.88555684 26.26947246 20.88555684 25.11743164 22.03759766 C22.92082335 22.06672186 20.72320084 22.02390963 18.52758789 21.95166016 C17.86786484 21.93042084 17.20814178 21.90918152 16.52842712 21.88729858 C15.13035645 21.84096169 13.73236984 21.79202752 12.33447266 21.74072266 C10.19264199 21.66305854 8.05066417 21.59582842 5.90844727 21.52978516 C4.55230592 21.48353793 3.19618513 21.43668304 1.84008789 21.38916016 C0.60009033 21.3461377 -0.63990723 21.30311523 -1.91748047 21.25878906 C-4.88256836 21.03759766 -4.88256836 21.03759766 -6.88256836 20.03759766 C-5.82058452 0.11624563 -5.82058452 0.11624563 0 0 Z " fill="#FD6185" transform="translate(150.882568359375,261.96240234375)"/>
<path d="M0 0 C4.39675988 0.11797018 8.79328399 0.24219726 13.18969727 0.37231445 C14.68639269 0.41571813 16.18313939 0.45738913 17.67993164 0.49731445 C19.82714312 0.55488616 21.97409521 0.61861716 24.12109375 0.68359375 C26.06133423 0.73858032 26.06133423 0.73858032 28.04077148 0.79467773 C31 1 31 1 32 2 C31.69047619 17.30952381 31.69047619 17.30952381 28 21 C26.38657422 21.09951305 24.76883425 21.13080319 23.15234375 21.1328125 C22.15396484 21.13410156 21.15558594 21.13539063 20.12695312 21.13671875 C19.07443359 21.13285156 18.02191406 21.12898438 16.9375 21.125 C15.39932617 21.13080078 15.39932617 21.13080078 13.83007812 21.13671875 C-1.88338805 21.11661195 -1.88338805 21.11661195 -4 19 C-3.9881589 17.12318641 -3.88933043 15.24667211 -3.75 13.375 C-3.68296875 12.35148437 -3.6159375 11.32796875 -3.546875 10.2734375 C-2.9051927 6.43251061 -1.58004895 3.55221532 0 0 Z " fill="#F18550" transform="translate(246,337)"/>
<path d="M0 0 C7.97803096 -0.10316419 15.9096095 -0.03995232 23.875 0.4375 C24.91817383 0.49635376 24.91817383 0.49635376 25.98242188 0.55639648 C30.87605319 0.87605319 30.87605319 0.87605319 32 2 C31.69047619 17.30952381 31.69047619 17.30952381 28 21 C25.0528295 21.10214454 22.13464123 21.14092294 19.1875 21.125 C18.32979004 21.12234131 17.47208008 21.11968262 16.58837891 21.11694336 C-2.02109878 20.97890122 -2.02109878 20.97890122 -4 19 C-3.95650272 12.10568045 -3.201625 6.12484782 0 0 Z " fill="#F18550" transform="translate(309,306)"/>
<path d="M0 0 C-0.38058607 8.04480208 -1.18409515 15.92427429 -2.4375 23.875 C-2.55971924 24.6585083 -2.68193848 25.4420166 -2.80786133 26.24926758 C-3.6222686 31.24630971 -4.71176332 36.10358524 -6 41 C-12.61752562 38.70412376 -17.98178901 35.07005882 -21.171875 28.63671875 C-22.88914152 23.16900694 -23.07696866 17.05558549 -21.16015625 11.6171875 C-16.62704517 3.58884936 -9.02451888 -0.20054486 0 0 Z " fill="#EF8650" transform="translate(185,427)"/>
<path d="M0 0 C2.625 1.0625 2.625 1.0625 4.3125 4.3125 C7.60118223 14.76515152 7.96631186 25.6946656 7.9375 36.5625 C7.95361328 37.77808594 7.96972656 38.99367188 7.98632812 40.24609375 C7.99377431 54.20024294 5.09655502 72.06327482 -4.375 83.0625 C-6.5 84.0625 -6.5 84.0625 -8.375 84.0625 C-9.035 83.4025 -9.695 82.7425 -10.375 82.0625 C-10.01538353 78.36713074 -8.74685048 75.55211362 -7 72.3125 C-4.60960913 67.65571548 -2.78194521 63.10112252 -1.375 58.0625 C-1.16875 57.37542969 -0.9625 56.68835938 -0.75 55.98046875 C2.68692683 42.35209915 3.01947633 19.85145265 -3.375 7.0625 C-3.5 4 -3.5 4 -3.375 1.0625 C-2.375 0.0625 -2.375 0.0625 0 0 Z " fill="#78EDE5" transform="translate(225.375,356.9375)"/>
<path d="M0 0 C1.04329468 0.00688843 1.04329468 0.00688843 2.10766602 0.01391602 C2.81673096 0.01657471 3.5257959 0.0192334 4.25634766 0.02197266 C25.04743478 0.20368478 25.04743478 0.20368478 26.98266602 2.13891602 C26.67314221 17.44843983 26.67314221 17.44843983 22.98266602 21.13891602 C18.799553 22.00631738 15.15773692 22.07159267 10.98266602 21.13891602 C7.72573081 18.66330556 5.16596031 15.97655455 2.47485352 12.92016602 C-0.43435177 9.6735294 -3.37460665 7.48645141 -7.01733398 5.13891602 C-5.88670528 0.13184605 -5.19463366 0.01628412 0 0 Z " fill="#F7D457" transform="translate(202.017333984375,299.861083984375)"/>
<path d="M0 0 C4.39675988 0.11797018 8.79328399 0.24219726 13.18969727 0.37231445 C14.68639269 0.41571813 16.18313939 0.45738913 17.67993164 0.49731445 C19.82714312 0.55488616 21.97409521 0.61861716 24.12109375 0.68359375 C26.06133423 0.73858032 26.06133423 0.73858032 28.04077148 0.79467773 C31 1 31 1 32 2 C32.04092937 4.33297433 32.04241723 6.66705225 32 9 C30.83984375 9.23074219 29.6796875 9.46148437 28.484375 9.69921875 C18.13094029 11.83273451 7.93148366 14.04567756 -1 20 C-1.99 20 -2.98 20 -4 20 C-3.91184022 17.97840511 -3.80365464 15.95767973 -3.6875 13.9375 C-3.62949219 12.81214844 -3.57148438 11.68679688 -3.51171875 10.52734375 C-2.92849201 6.50708612 -1.653373 3.69362374 0 0 Z " fill="#F8D457" transform="translate(358,343)"/>
<path d="M0 0 C2.5 0.125 2.5 0.125 3.5 1.125 C3.71584943 2.69082375 3.86919812 4.26533044 3.99658203 5.84082031 C4.0798172 6.84566467 4.16305237 7.85050903 4.24880981 8.88580322 C4.3342807 9.98051941 4.41975159 11.0752356 4.5078125 12.203125 C4.59755341 13.32184998 4.68729431 14.44057495 4.77975464 15.59320068 C4.96863548 17.96705887 5.15509615 20.34111065 5.33935547 22.71533203 C5.62274471 26.34610531 5.91832848 29.97574684 6.21484375 33.60546875 C6.39657988 35.90879538 6.57759296 38.21217921 6.7578125 40.515625 C6.89209152 42.14555389 6.89209152 42.14555389 7.02908325 43.80841064 C7.1060141 44.82586365 7.18294495 45.84331665 7.26220703 46.89160156 C7.33247101 47.78349182 7.40273499 48.67538208 7.47512817 49.59429932 C7.50116983 52.24402998 7.10954233 54.55250086 6.5 57.125 C4.84385343 57.50718767 3.17542976 57.83895102 1.5 58.125 C-0.61317239 56.01182761 -0.16364538 51.60954549 -0.4375 48.6875 C-0.52177246 47.8123877 -0.60604492 46.93727539 -0.69287109 46.03564453 C-1.39975577 38.52907809 -2.02714552 31.01596176 -2.625 23.5 C-2.71257568 22.42306885 -2.80015137 21.3461377 -2.89038086 20.23657227 C-3.90831494 7.00752967 -3.90831494 7.00752967 -3.5 1.125 C-2.5 0.125 -2.5 0.125 0 0 Z " fill="#FFFBFB" transform="translate(427.5,282.875)"/>
<path d="M0 0 C1.93041992 0.22802734 1.93041992 0.22802734 4 1 C5.59354458 3.52728512 6.96587273 5.97259689 8.3125 8.625 C14.94847481 20.90303284 23.04830244 26.21660409 35 33 C34.67 34.65 34.34 36.3 34 38 C32.38671875 38.71484375 32.38671875 38.71484375 30 39 C15.82150712 32.3378166 7.03023555 22.68957139 0 9 C-0.40992188 8.24589844 -0.81984375 7.49179687 -1.2421875 6.71484375 C-2.24238651 4.45150682 -1.86189113 3.27225843 -1 1 C-0.67 0.67 -0.34 0.34 0 0 Z " fill="#F6FBFE" transform="translate(329,459)"/>
<path d="M0 0 C0.495 2.475 0.495 2.475 1 5 C-0.10214844 5.30292969 -1.20429688 5.60585938 -2.33984375 5.91796875 C-6.40030487 7.03661653 -10.45634127 8.17069611 -14.51171875 9.30761719 C-16.77579879 9.93761434 -19.04341061 10.55242248 -21.3125 11.1640625 C-30.1351706 13.59585917 -38.43223561 16.67589112 -46.75756836 20.49731445 C-47.51432861 20.83593506 -48.27108887 21.17455566 -49.05078125 21.5234375 C-49.71762939 21.83200684 -50.38447754 22.14057617 -51.0715332 22.45849609 C-53.39553323 23.11106377 -54.74150598 22.76300049 -57 22 C-56.82617188 20.18481445 -56.82617188 20.18481445 -56 18 C-48.43304975 12.82196421 -39.15313373 10.10335712 -30.5 7.3125 C-29.36691406 6.93544922 -28.23382813 6.55839844 -27.06640625 6.16992188 C-7.4563089 -0.26569427 -7.4563089 -0.26569427 0 0 Z " fill="#F0F4F7" transform="translate(139,297)"/>
<path d="M0 0 C2.5 0.125 2.5 0.125 3.5 1.125 C3.72962659 2.95654096 3.8957057 4.79611445 4.03515625 6.63671875 C4.1223291 7.78164795 4.20950195 8.92657715 4.29931641 10.10620117 C4.38616699 11.32927979 4.47301758 12.5523584 4.5625 13.8125 C4.65192871 15.04009033 4.74135742 16.26768066 4.83349609 17.5324707 C5.40487858 25.74895087 5.77406782 33.88773928 5.5 42.125 C3.125 42.25 3.125 42.25 0.5 42.125 C-2.20897926 39.41602074 -1.88909804 37.72980413 -2.1328125 33.9375 C-2.25849609 32.05224609 -2.25849609 32.05224609 -2.38671875 30.12890625 C-2.42587402 29.47035645 -2.4650293 28.81180664 -2.50537109 28.13330078 C-2.62292178 26.15988873 -2.75469351 24.1873403 -2.88671875 22.21484375 C-3.89331388 6.50876416 -3.89331388 6.50876416 -3.5 1.125 C-2.5 0.125 -2.5 0.125 0 0 Z " fill="#FFFAFA" transform="translate(127.5,125.875)"/>
<path d="M0 0 C3.86248624 3.34316036 4.54212374 7.20983513 6 12 C9.3 12.66 12.6 13.32 16 14 C16 14.99 16 15.98 16 17 C10.555 18.485 10.555 18.485 5 20 C4.01 23.96 3.02 27.92 2 32 C1.34 32 0.68 32 0 32 C-0.50310058 30.2092015 -1.00238628 28.41733089 -1.5 26.625 C-1.7784375 25.62726563 -2.056875 24.62953125 -2.34375 23.6015625 C-3 21 -3 21 -3 19 C-8.94 18.01 -8.94 18.01 -15 17 C-15 16.34 -15 15.68 -15 15 C-14.24074219 14.91105469 -13.48148438 14.82210937 -12.69921875 14.73046875 C-9.46469918 14.14733228 -6.91520344 13.53726385 -4 12 C-2.14224294 8.43885539 -1.60298366 4.93863796 -1 1 C-0.67 0.67 -0.34 0.34 0 0 Z " fill="#F1F4F8" transform="translate(167,162)"/>
<path d="M0 0 C0.66 0.33 1.32 0.66 2 1 C2.44791674 2.80033632 2.8345994 4.61615395 3.1875 6.4375 C3.86734925 9.42410023 3.86734925 9.42410023 5 12 C8.35745814 13.73333202 8.35745814 13.73333202 12 14 C13.35350594 14.62469505 14.69934483 15.2716331 16 16 C12.63576723 18.96052484 9.30840713 19.92289822 5 21 C4.01 24.96 3.02 28.92 2 33 C1.34 33 0.68 33 0 33 C-0.99 28.71 -1.98 24.42 -3 20 C-4.051875 19.855625 -5.10375 19.71125 -6.1875 19.5625 C-9.15460549 19.12473034 -12.06794366 18.62195134 -15 18 C-15 17.34 -15 16.68 -15 16 C-11.04 15.01 -7.08 14.02 -3 13 C-2.690625 11.040625 -2.38125 9.08125 -2.0625 7.0625 C-1.125 1.125 -1.125 1.125 0 0 Z " fill="#27A8F6" transform="translate(180,104)"/>
<path d="M0 0 C3.86248624 3.34316036 4.54212374 7.20983513 6 12 C9.3 12.66 12.6 13.32 16 14 C16 14.99 16 15.98 16 17 C10.555 18.485 10.555 18.485 5 20 C4.01 23.96 3.02 27.92 2 32 C1.34 32 0.68 32 0 32 C-0.50310058 30.2092015 -1.00238628 28.41733089 -1.5 26.625 C-1.7784375 25.62726563 -2.056875 24.62953125 -2.34375 23.6015625 C-3 21 -3 21 -3 19 C-8.94 18.01 -8.94 18.01 -15 17 C-15 16.34 -15 15.68 -15 15 C-14.21753906 14.79503906 -13.43507813 14.59007813 -12.62890625 14.37890625 C-11.61699219 14.10949219 -10.60507812 13.84007813 -9.5625 13.5625 C-8.55316406 13.29566406 -7.54382813 13.02882813 -6.50390625 12.75390625 C-4.08247999 12.24021923 -4.08247999 12.24021923 -3 11 C-2.63128912 9.34080104 -2.30404678 7.67225729 -2 6 C-1.11111111 1.11111111 -1.11111111 1.11111111 0 0 Z " fill="#F2F5F8" transform="translate(406,93)"/>
<path d="M0 0 C0.66 0.33 1.32 0.66 2 1 C2.91739307 4.62993184 3.40455491 8.29973411 4 12 C9.94 12.99 9.94 12.99 16 14 C16 14.99 16 15.98 16 17 C10.555 18.485 10.555 18.485 5 20 C4.01 23.96 3.02 27.92 2 32 C1.34 32 0.68 32 0 32 C-0.18175781 31.22914062 -0.36351562 30.45828125 -0.55078125 29.6640625 C-0.80214844 28.66117188 -1.05351562 27.65828125 -1.3125 26.625 C-1.67794922 25.12839844 -1.67794922 25.12839844 -2.05078125 23.6015625 C-2.82193858 20.6915014 -2.82193858 20.6915014 -6 19 C-8.27538323 18.33386665 -8.27538323 18.33386665 -10.6875 17.875 C-11.49574219 17.70742188 -12.30398437 17.53984375 -13.13671875 17.3671875 C-13.75160156 17.24601562 -14.36648437 17.12484375 -15 17 C-15 16.34 -15 15.68 -15 15 C-14.24074219 14.91105469 -13.48148438 14.82210937 -12.69921875 14.73046875 C-9.46469918 14.14733228 -6.91520344 13.53726385 -4 12 C-2.14224294 8.43885539 -1.60298366 4.93863796 -1 1 C-0.67 0.67 -0.34 0.34 0 0 Z " fill="#27A9F7" transform="translate(166,41)"/>
<path d="M0 0 C0.66 0 1.32 0 2 0 C2.11214844 0.75925781 2.22429687 1.51851562 2.33984375 2.30078125 C2.96178452 5.43487493 3.62723093 8.10905954 5 11 C7.29775123 12.45481456 9.18951363 12.99988525 11.84375 13.53515625 C14 14 14 14 17 16 C16.37351562 16.20496094 15.74703125 16.40992188 15.1015625 16.62109375 C14.28429687 16.89050781 13.46703125 17.15992188 12.625 17.4375 C11.81289063 17.70433594 11.00078125 17.97117188 10.1640625 18.24609375 C7.98968201 18.95179729 7.98968201 18.95179729 6 20 C5.08719862 22.57437581 5.08719862 22.57437581 4.375 25.5625 C4.11460937 26.57441406 3.85421875 27.58632812 3.5859375 28.62890625 C3.39257812 29.41136719 3.19921875 30.19382813 3 31 C2.01 31 1.02 31 0 31 C-0.99 27.37 -1.98 23.74 -3 20 C-6.96 19.01 -10.92 18.02 -15 17 C-14 15 -14 15 -11.49609375 14.1484375 C-10.48675781 13.89320313 -9.47742188 13.63796875 -8.4375 13.375 C-6.643125 12.92125 -4.84875 12.4675 -3 12 C-2.01 8.04 -1.02 4.08 0 0 Z " fill="#27AAF8" transform="translate(395,167)"/>
<path d="M0 0 C0.33609891 5.48961547 -0.31832015 9.17297626 -3 14 C-5.48338666 16.71439938 -7.3394302 18.66404657 -11.02734375 19.41015625 C-14.36293388 19.55302138 -16.63105067 19.2213696 -19.5 17.5 C-19.995 17.005 -20.49 16.51 -21 16 C-17.83967403 8.66804375 -14.28448123 3.84820759 -6.8125 0.625 C-4 0 -4 0 0 0 Z " fill="#F76184" transform="translate(161,439)"/>
<path d="M0 0 C1.22264305 -0.0049926 1.22264305 -0.0049926 2.46998596 -0.01008606 C4.19751418 -0.01515867 5.92505223 -0.01749428 7.65258789 -0.01733398 C10.3017587 -0.01951917 12.95051241 -0.03766746 15.59960938 -0.05664062 C17.27473815 -0.05957469 18.94986892 -0.0615594 20.625 -0.0625 C21.42087021 -0.06968552 22.21674042 -0.07687103 23.03672791 -0.08427429 C28.65008398 -0.06085352 28.65008398 -0.06085352 30.87890625 2.16796875 C30.50390625 4.79296875 30.50390625 4.79296875 29.87890625 7.16796875 C17.18287549 7.33167115 4.55617087 6.82707432 -8.12109375 6.16796875 C-8.50328142 4.51182218 -8.83504477 2.84339851 -9.12109375 1.16796875 C-7.07596322 -0.87716178 -2.81204197 0.00392196 0 0 Z " fill="#F7F9FB" transform="translate(367.12109375,37.83203125)"/>
<path d="M0 0 C0.495 1.98 0.495 1.98 1 4 C-1.78866545 4.95401713 -4.57052002 5.88255321 -7.4140625 6.66015625 C-16.29644952 9.11555931 -21.72670529 13.39262451 -28 20 C-29.32 19.34 -30.64 18.68 -32 18 C-30.63212487 12.35751508 -26.55950906 9.21588562 -22 6 C-14.53691211 1.98537341 -8.48432469 -0.16316009 0 0 Z " fill="#F6FDFD" transform="translate(382,357)"/>
<path d="M0 0 C3.53571429 0.53571429 3.53571429 0.53571429 5 2 C5.73450132 8.99188752 4.71610881 15.52120834 2 22 C1.34 22.66 0.68 23.32 0 24 C-2.0625 23.75 -2.0625 23.75 -4 23 C-6.28424641 18.43150717 -5.67842831 11.56833575 -4.3984375 6.72265625 C-3.26873929 4.02393274 -2.07317777 2.07317777 0 0 Z " fill="#114E8A" transform="translate(275,79)"/>
<path d="M0 0 C0.99 0 1.98 0 3 0 C6.48767582 8.50120982 5.25967835 15.26733608 2.265625 23.71484375 C0.8200136 26.32497544 -0.24259617 26.98624859 -3 28 C-4.1875 26.4375 -4.1875 26.4375 -5 24 C-4.24820073 22.33188028 -3.49550939 20.66415196 -2.73657227 18.99926758 C-1.4868945 15.60728508 -1.46738617 12.20826372 -1.375 8.625 C-1.10697782 1.10697782 -1.10697782 1.10697782 0 0 Z " fill="#F3FDFC" transform="translate(463,411)"/>
<path d="M0 0 C-1.93672986 2.10488005 -3.87435141 4.20892696 -5.8125 6.3125 C-6.35970703 6.90740234 -6.90691406 7.50230469 -7.47070312 8.11523438 C-8.00244141 8.69208984 -8.53417969 9.26894531 -9.08203125 9.86328125 C-9.81256714 10.65665894 -9.81256714 10.65665894 -10.55786133 11.46606445 C-11.03376709 11.97226318 -11.50967285 12.47846191 -12 13 C-12.51304687 13.55816406 -13.02609375 14.11632812 -13.5546875 14.69140625 C-15 16 -15 16 -17.04296875 16.07421875 C-20.02148438 15.53710938 -20.02148438 15.53710938 -23 15 C-22.278125 14.28328125 -21.55625 13.5665625 -20.8125 12.828125 C-19.02042119 11.0260902 -17.24725026 9.20490809 -15.5 7.359375 C-14.675 6.49828125 -13.85 5.6371875 -13 4.75 C-12.175 3.87859375 -11.35 3.0071875 -10.5 2.109375 C-6.84422425 -0.97518579 -4.51904669 -1.5063489 0 0 Z " fill="#0E528C" transform="translate(455,485)"/>
<path d="M0 0 C0.515625 0.2475 1.03125 0.495 1.5625 0.75 C0.5625 3.75 0.5625 3.75 -1.94921875 5.28515625 C-3.52123047 6.04119141 -3.52123047 6.04119141 -5.125 6.8125 C-6.16011719 7.31910156 -7.19523437 7.82570313 -8.26171875 8.34765625 C-13.49965274 10.66059389 -17.67835123 12.02424518 -23.4375 11.75 C-23.4375 10.43 -23.4375 9.11 -23.4375 7.75 C-22.04337891 7.38648438 -22.04337891 7.38648438 -20.62109375 7.015625 C-12.66248982 4.99094421 -12.66248982 4.99094421 -5.3125 1.4375 C-2.4375 -0.25 -2.4375 -0.25 0 0 Z " fill="#F5FDFD" transform="translate(476.4375,486.25)"/>
<path d="M0 0 C1.65 0 3.3 0 5 0 C4.39891424 5.65020618 2.92471317 10.66164461 1 16 C-0.65 16 -2.3 16 -4 16 C-3.39891424 10.34979382 -1.92471317 5.33835539 0 0 Z " fill="#0B4F8B" transform="translate(470,440)"/>
<path d="M0 0 C5.70709064 0.46588495 9.15939723 1.93757784 14 5 C13.67 5.99 13.34 6.98 13 8 C12.34 7.731875 11.68 7.46375 11 7.1875 C7.35060933 5.74294953 3.67754567 4.37128822 0 3 C0 2.01 0 1.02 0 0 Z " fill="#E9EFF4" transform="translate(101,384)"/>
<path d="M0 0 C0 0.66 0 1.32 0 2 C-1.72744016 2.65043719 -3.4570369 3.29514844 -5.1875 3.9375 C-6.15042969 4.29714844 -7.11335938 4.65679687 -8.10546875 5.02734375 C-10.7368278 5.91156562 -13.26894908 6.52568586 -16 7 C-16.33 6.34 -16.66 5.68 -17 5 C-15.23002526 4.18563132 -13.45898848 3.3735706 -11.6875 2.5625 C-10.70136719 2.11003906 -9.71523438 1.65757812 -8.69921875 1.19140625 C-3.41843088 -1.13947696 -3.41843088 -1.13947696 0 0 Z " fill="#88EDD9" transform="translate(375,356)"/>
<path d="M0 0 C5.39286575 0.43142926 8.80486318 1.52110606 13 5 C13 5.99 13 6.98 13 8 C12.34 7.731875 11.68 7.46375 11 7.1875 C7.35060933 5.74294953 3.67754567 4.37128822 0 3 C0 2.01 0 1.02 0 0 Z " fill="#EDF1F6" transform="translate(161,362)"/>
<path d="M0 0 C1.2065625 0.0309375 1.2065625 0.0309375 2.4375 0.0625 C2.81968767 1.71864657 3.15145102 3.38707024 3.4375 5.0625 C2.4375 6.0625 2.4375 6.0625 -0.125 6.125 C-1.3315625 6.0940625 -1.3315625 6.0940625 -2.5625 6.0625 C-2.94468767 4.40635343 -3.27645102 2.73792976 -3.5625 1.0625 C-2.5625 0.0625 -2.5625 0.0625 0 0 Z " fill="#DFE7EF" transform="translate(149.5625,294.9375)"/>
<path d="M0 0 C1.67542976 0.28604898 3.34385343 0.61781233 5 1 C5 2.65 5 4.3 5 6 C3.34385343 6.38218767 1.67542976 6.71395102 0 7 C-1 6 -1 6 -1.125 3.5 C-1 1 -1 1 0 0 Z " fill="#E4EBF2" transform="translate(421,61)"/>
<path d="M0 0 C1.67542976 0.28604898 3.34385343 0.61781233 5 1 C5 2.65 5 4.3 5 6 C3.34385343 6.38218767 1.67542976 6.71395102 0 7 C-1 6 -1 6 -1.125 3.5 C-1 1 -1 1 0 0 Z " fill="#E4EBF2" transform="translate(213,42)"/>
<path d="M0 0 C2.125 0.375 2.125 0.375 4 1 C4.625 2.875 4.625 2.875 5 5 C4.34 5.66 3.68 6.32 3 7 C0.875 6.625 0.875 6.625 -1 6 C-1.625 4.125 -1.625 4.125 -2 2 C-1.34 1.34 -0.68 0.68 0 0 Z " fill="#E5ECF2" transform="translate(310,196)"/>
<path d="M0 0 C2.125 0.375 2.125 0.375 4 1 C4.625 2.875 4.625 2.875 5 5 C4.34 5.66 3.68 6.32 3 7 C0.875 6.625 0.875 6.625 -1 6 C-1.625 4.125 -1.625 4.125 -2 2 C-1.34 1.34 -0.68 0.68 0 0 Z " fill="#E3EAF1" transform="translate(389,149)"/>
<path d="M0 0 C1.65 0.33 3.3 0.66 5 1 C5 2.65 5 4.3 5 6 C3.125 6.625 3.125 6.625 1 7 C0.34 6.34 -0.32 5.68 -1 5 C-0.625 2.375 -0.625 2.375 0 0 Z " fill="#ECF8FE" transform="translate(370,496)"/>
<path d="M0 0 C1.67542976 0.28604898 3.34385343 0.61781233 5 1 C4.67 2.65 4.34 4.3 4 6 C2.0625 6.5625 2.0625 6.5625 0 7 C-1 6 -1 6 -1.125 3.5 C-1 1 -1 1 0 0 Z " fill="#FFF7F8" transform="translate(125,112)"/>
<path d="M0 0 C1.67542976 0.28604898 3.34385343 0.61781233 5 1 C4.67 2.65 4.34 4.3 4 6 C3.01 6.33 2.02 6.66 1 7 C0.34 6.67 -0.32 6.34 -1 6 C-1.042721 4.33388095 -1.04063832 2.66617115 -1 1 C-0.67 0.67 -0.34 0.34 0 0 Z " fill="#FFF8F9" transform="translate(424,270)"/>
<path d="M0 0 C2.0625 0.4375 2.0625 0.4375 4 1 C4 2.65 4 4.3 4 6 C2.125 6.625 2.125 6.625 0 7 C-0.66 6.34 -1.32 5.68 -2 5 C-1.46428571 1.46428571 -1.46428571 1.46428571 0 0 Z " fill="#75EAE6" transform="translate(208,445)"/>
<path d="M0 0 C1.32 0.66 2.64 1.32 4 2 C3.67 3.65 3.34 5.3 3 7 C1.35 6.67 -0.3 6.34 -2 6 C-1.125 1.125 -1.125 1.125 0 0 Z " fill="#F1F5F8" transform="translate(74,319)"/>
<path d="M0 0 C1.65 0 3.3 0 5 0 C5.38218767 1.65614657 5.71395102 3.32457024 6 5 C5 6 5 6 2.4375 6.0625 C1.2309375 6.0315625 1.2309375 6.0315625 0 6 C0 4.02 0 2.04 0 0 Z " fill="#EBF0F5" transform="translate(309,46)"/>
<path d="M0 0 C1.67542976 0.28604898 3.34385343 0.61781233 5 1 C4.67 2.65 4.34 4.3 4 6 C2.35 6 0.7 6 -1 6 C-1.042721 4.33388095 -1.04063832 2.66617115 -1 1 C-0.67 0.67 -0.34 0.34 0 0 Z " fill="#F4FBFE" transform="translate(327,447)"/>
<path d="M0 0 C1.67542976 0.28604898 3.34385343 0.61781233 5 1 C4.67 2.65 4.34 4.3 4 6 C2.35 6 0.7 6 -1 6 C-1.042721 4.33388095 -1.04063832 2.66617115 -1 1 C-0.67 0.67 -0.34 0.34 0 0 Z " fill="#F4F7F9" transform="translate(405,40)"/>
<path d="M0 0 C1.65 0.33 3.3 0.66 5 1 C4.67 2.65 4.34 4.3 4 6 C2.35 5.67 0.7 5.34 -1 5 C-0.67 3.35 -0.34 1.7 0 0 Z " fill="#F8FAFB" transform="translate(216,191)"/>
<path d="M0 0 C1.65 0.33 3.3 0.66 5 1 C4.67 2.65 4.34 4.3 4 6 C2.35 5.67 0.7 5.34 -1 5 C-0.67 3.35 -0.34 1.7 0 0 Z " fill="#F8F9FB" transform="translate(345,37)"/>
<path d="M0 0 C0.99 0.33 1.98 0.66 3 1 C2.67 2.32 2.34 3.64 2 5 C0.68 4.67 -0.64 4.34 -2 4 C-1.34 2.68 -0.68 1.36 0 0 Z " fill="#EFFDFB" transform="translate(482,480)"/>
<path d="M0 0 C0.66 0.99 1.32 1.98 2 3 C1.67 3.99 1.34 4.98 1 6 C-0.32 5.67 -1.64 5.34 -3 5 C-2.67 4.01 -2.34 3.02 -2 2 C-1.34 2 -0.68 2 0 2 C0 1.34 0 0.68 0 0 Z " fill="#9DB6CF" transform="translate(178,369)"/>
</svg>
