<?xml version="1.0" encoding="UTF-8"?>
<svg version="1.1" xmlns="http://www.w3.org/2000/svg" width="512" height="512">
<path d="M0 0 C8.6798209 9.27162687 9.5444969 21.94486978 9.30566406 34.00952148 C9.12630587 39.24294682 8.41625885 44.26369233 7.48046875 49.41015625 C7.3063446 50.38590103 7.13222046 51.36164581 6.95281982 52.36695862 C4.25968017 67.09668952 1.01310114 81.71749538 -2.203125 96.33984375 C-2.55299899 97.93490598 -2.90287285 99.52996823 -3.25274658 101.12503052 C-12.85649862 144.83976376 -22.83886968 188.72800462 -36.33312988 231.42834473 C-36.98917524 233.51712392 -37.63387112 235.60916351 -38.27636719 237.70214844 C-43.94610782 256.14316755 -50.23324016 274.2859011 -57.203125 292.27734375 C-57.53129211 293.13143829 -57.85945923 293.98553284 -58.1975708 294.86550903 C-66.53558567 316.47639435 -75.94171047 337.83254007 -98.015625 348.1796875 C-112.83288402 354.34697749 -128.66743261 351.58609902 -143.15234375 345.77734375 C-153.34650515 341.39985091 -162.19197809 335.42589553 -171.05566406 328.81103516 C-173.99108016 326.63175687 -176.97274355 324.51957577 -179.953125 322.40234375 C-180.50355469 322.7684375 -181.05398437 323.13453125 -181.62109375 323.51171875 C-239.26141338 361.04495014 -239.26141338 361.04495014 -267.50390625 355.94140625 C-277.91273947 353.18945967 -285.22140568 347.45242688 -290.953125 338.40234375 C-299.65407111 323.13327397 -301.60721352 304.68439299 -302.25559998 287.41719055 C-302.70842008 275.51347232 -303.68917642 263.69368264 -305.04272461 251.85961914 C-305.2766243 249.74533012 -305.49215731 247.62893627 -305.69018555 245.51098633 C-306.66624194 231.07053431 -306.66624194 231.07053431 -313.9375 219.15234375 C-315.56949142 217.85070247 -317.23875495 216.59339427 -318.953125 215.40234375 C-320.2351534 214.31119547 -321.50841291 213.2094951 -322.765625 212.08984375 C-323.40371094 211.53941406 -324.04179687 210.98898437 -324.69921875 210.421875 C-342.61272253 194.37112724 -361.25687624 173.42577026 -363.19140625 148.30859375 C-363.51888147 133.27920492 -359.02629582 120.67487174 -348.640625 109.65234375 C-337.31493982 99.12670697 -323.10287794 92.54606935 -308.94921875 86.73876953 C-301.72870492 83.76818041 -294.62520625 80.56563024 -287.515625 77.33984375 C-224.15188491 48.72223054 -158.4251538 25.64679304 -91.953125 5.40234375 C-91.15787415 5.16004028 -90.36262329 4.91773682 -89.54327393 4.66809082 C-20.09797471 -16.44014331 -20.09797471 -16.44014331 0 0 Z " fill="#681B2E" transform="translate(432.953125,82.59765625)"/>
<path d="M0 0 C8.6798209 9.27162687 9.5444969 21.94486978 9.30566406 34.00952148 C9.12630587 39.24294682 8.41625885 44.26369233 7.48046875 49.41015625 C7.3063446 50.38590103 7.13222046 51.36164581 6.95281982 52.36695862 C4.25968017 67.09668952 1.01310114 81.71749538 -2.203125 96.33984375 C-2.55299899 97.93490598 -2.90287285 99.52996823 -3.25274658 101.12503052 C-12.85649862 144.83976376 -22.83886968 188.72800462 -36.33312988 231.42834473 C-36.98917524 233.51712392 -37.63387112 235.60916351 -38.27636719 237.70214844 C-43.94610782 256.14316755 -50.23324016 274.2859011 -57.203125 292.27734375 C-57.53129211 293.13143829 -57.85945923 293.98553284 -58.1975708 294.86550903 C-66.53558567 316.47639435 -75.94171047 337.83254007 -98.015625 348.1796875 C-112.83288402 354.34697749 -128.66743261 351.58609902 -143.15234375 345.77734375 C-153.34650515 341.39985091 -162.19197809 335.42589553 -171.05566406 328.81103516 C-173.99108016 326.63175687 -176.97274355 324.51957577 -179.953125 322.40234375 C-180.50355469 322.7684375 -181.05398437 323.13453125 -181.62109375 323.51171875 C-239.26141338 361.04495014 -239.26141338 361.04495014 -267.50390625 355.94140625 C-277.91273947 353.18945967 -285.22140568 347.45242688 -290.953125 338.40234375 C-299.65407111 323.13327397 -301.60721352 304.68439299 -302.25559998 287.41719055 C-302.70842008 275.51347232 -303.68917642 263.69368264 -305.04272461 251.85961914 C-305.2766243 249.74533012 -305.49215731 247.62893627 -305.69018555 245.51098633 C-306.66624194 231.07053431 -306.66624194 231.07053431 -313.9375 219.15234375 C-315.56949142 217.85070247 -317.23875495 216.59339427 -318.953125 215.40234375 C-320.2351534 214.31119547 -321.50841291 213.2094951 -322.765625 212.08984375 C-323.40371094 211.53941406 -324.04179687 210.98898437 -324.69921875 210.421875 C-342.61272253 194.37112724 -361.25687624 173.42577026 -363.19140625 148.30859375 C-363.51888147 133.27920492 -359.02629582 120.67487174 -348.640625 109.65234375 C-337.31493982 99.12670697 -323.10287794 92.54606935 -308.94921875 86.73876953 C-301.72870492 83.76818041 -294.62520625 80.56563024 -287.515625 77.33984375 C-224.15188491 48.72223054 -158.4251538 25.64679304 -91.953125 5.40234375 C-91.15787415 5.16004028 -90.36262329 4.91773682 -89.54327393 4.66809082 C-20.09797471 -16.44014331 -20.09797471 -16.44014331 0 0 Z M-62.953125 21.40234375 C-64.46417743 21.83695879 -65.97581006 22.26956708 -67.48828125 22.69921875 C-71.65623419 23.89150589 -75.80617186 25.13913666 -79.953125 26.40234375 C-80.85305176 26.67626953 -81.75297852 26.95019531 -82.68017578 27.23242188 C-88.06551934 28.8752577 -93.44648114 30.53165603 -98.82421875 32.19921875 C-103.56040363 33.66774255 -108.30276893 35.11318064 -113.05078125 36.54296875 C-170.96593257 54.12544605 -227.80743123 76.1401304 -282.88671875 101.20703125 C-287.16488903 103.15334389 -291.4545779 105.06585841 -295.76795959 106.93234253 C-298.37367174 108.06017212 -300.9749577 109.19803225 -303.57620239 110.33612061 C-305.37216895 111.11713814 -307.17412315 111.88434338 -308.97631836 112.65087891 C-319.89349771 117.44570849 -331.97901012 123.58038155 -337.953125 134.40234375 C-340.97916139 143.48045293 -339.06272836 153.02413453 -334.953125 161.40234375 C-330.86101206 169.10841512 -325.57350243 175.3067325 -319.6015625 181.578125 C-317.75918028 183.54278923 -316.03450302 185.48390773 -314.3359375 187.5625 C-312.44697779 189.81376837 -310.69562919 191.66198799 -308.453125 193.52734375 C-293.34536823 206.53039395 -286.29798514 214.7505743 -283.734375 234.94140625 C-283.63160248 235.73274963 -283.52882996 236.52409302 -283.42294312 237.3394165 C-283.09360945 239.90133077 -282.77249961 242.46417006 -282.453125 245.02734375 C-282.28638275 246.34826019 -282.28638275 246.34826019 -282.11627197 247.69586182 C-280.63046211 259.54563089 -279.48583122 271.35362218 -278.828125 283.27734375 C-278.19744855 309.13604044 -278.19744855 309.13604044 -266.953125 331.40234375 C-260.86961189 334.44410031 -253.53426202 331.96197602 -247.49291992 329.96582031 C-246.4897876 329.61487305 -245.48665527 329.26392578 -244.453125 328.90234375 C-243.39649658 328.53850586 -242.33986816 328.17466797 -241.2512207 327.79980469 C-221.12480632 320.71667578 -202.60696256 310.58526142 -186.31567383 296.70385742 C-183.14471543 294.05607526 -182.26754299 293.40234375 -177.953125 293.40234375 C-176.31591797 294.40527344 -176.31591797 294.40527344 -174.6953125 295.82421875 C-174.07914063 296.34927002 -173.46296875 296.87432129 -172.828125 297.4152832 C-172.168125 297.98851318 -171.508125 298.56174316 -170.828125 299.15234375 C-153.64065821 313.55517137 -133.35740133 329.40977411 -109.953125 327.40234375 C-101.87130119 325.21950596 -97.25887834 320.33238549 -92.953125 313.40234375 C-87.41218215 303.11545024 -82.80284376 292.58315277 -78.703125 281.65234375 C-78.43298584 280.94032806 -78.16284668 280.22831238 -77.88452148 279.49472046 C-72.12535486 264.3032229 -66.95397638 248.91979252 -61.93473816 233.4703064 C-60.8445768 230.11530612 -59.7425741 226.76545243 -58.60766602 223.42529297 C-56.07921233 215.97817797 -53.80220227 208.53181964 -51.890625 200.90234375 C-51.38047836 198.90878505 -50.87006179 196.9152954 -50.359375 194.921875 C-50.11832031 193.97393066 -49.87726563 193.02598633 -49.62890625 192.04931641 C-48.7372916 188.5569443 -47.81841315 185.07279039 -46.890625 181.58984375 C-46.42076172 179.82447266 -46.42076172 179.82447266 -45.94140625 178.0234375 C-45.24928339 175.48747745 -44.54115648 172.96158355 -43.80859375 170.4375 C-40.52952941 159.06691258 -37.93415413 147.59184891 -35.4140625 136.03125 C-34.20785545 130.51077445 -32.91710259 125.01681516 -31.578125 119.52734375 C-26.28773799 97.57028148 -21.59964907 75.45572381 -17.42132568 53.26095581 C-17.11314522 51.62618522 -16.80190562 49.99198787 -16.48736572 48.35842896 C-12.95383776 33.34646716 -12.95383776 33.34646716 -15.765625 18.83984375 C-18.33396184 15.9779827 -19.99159784 14.54976922 -23.83203125 13.9609375 C-37.52887177 13.51067021 -49.93017421 17.52507065 -62.953125 21.40234375 Z " fill="#FEFDFD" transform="translate(432.953125,82.59765625)"/>
<path d="M0 0 C0.33 0 0.66 0 1 0 C1.34523066 6.45944742 0.04102414 12.27906519 -1.375 18.5625 C-1.78893715 20.43605779 -2.20283773 22.3096238 -2.61587524 24.18338013 C-2.91893429 25.55653685 -3.2229835 26.92947535 -3.52792358 28.30221558 C-4.74679396 33.80127815 -5.91008386 39.31089833 -7.0625 44.82421875 C-18.89509109 101.13740263 -33.24316174 156.77749002 -51.25 211.4375 C-51.57871094 212.44184082 -51.90742188 213.44618164 -52.24609375 214.48095703 C-55.52782907 224.46949178 -58.95115497 234.33063816 -63.203125 243.953125 C-63.67398529 245.019011 -63.67398529 245.019011 -64.15435791 246.10643005 C-68.15592523 254.87601672 -73.21238919 264.80197804 -82.1171875 269.32421875 C-88.54434238 271.63106065 -93.78467574 269.30167811 -99.71484375 266.65625 C-117.20802677 257.8368569 -133.01555862 244.58795397 -147 231 C-147.66418945 230.3615918 -148.32837891 229.72318359 -149.01269531 229.06542969 C-173.83067938 205.1357851 -173.83067938 205.1357851 -174.4375 194.875 C-174.27908142 187.62619635 -169.48941289 182.25887518 -164.4765625 177.3671875 C-163.20109107 176.19394598 -161.9168827 175.03014592 -160.625 173.875 C-159.20297411 172.57177921 -157.78110355 171.26838891 -156.359375 169.96484375 C-155.63685547 169.3085498 -154.91433594 168.65225586 -154.16992188 167.97607422 C-150.71078069 164.82595172 -147.29026311 161.63506042 -143.875 158.4375 C-143.21717529 157.82173096 -142.55935059 157.20596191 -141.8815918 156.5715332 C-133.26585853 148.47229758 -124.67091511 140.29573835 -117.03515625 131.25390625 C-113.3898085 127.21673609 -109.47500949 123.436596 -105.59204102 119.62915039 C-101.81555823 115.90385413 -98.25860938 112.06577055 -94.79492188 108.04882812 C-90.98241262 103.69700853 -86.94694874 99.54765298 -82.9609375 95.35546875 C-79.07371429 91.25062108 -75.28467748 87.08422012 -71.58105469 82.81298828 C-69.47353952 80.39631015 -67.30075768 78.04273937 -65.125 75.6875 C-61.81663086 72.06476095 -58.63987642 68.38307109 -55.5625 64.5625 C-52.34054925 60.56773566 -48.99322017 56.75468333 -45.5 53 C-41.28725558 48.46743801 -37.31970715 43.79075263 -33.4375 38.97265625 C-30.02456889 34.81041174 -26.48652606 30.76184512 -22.95117188 26.70361328 C-19.30803546 22.51826739 -15.70095579 18.30536031 -12.125 14.0625 C-9.05522193 10.42581568 -5.98468891 6.79018838 -2.875 3.1875 C-2.33617187 2.56230469 -1.79734375 1.93710938 -1.2421875 1.29296875 C-0.83226562 0.86628906 -0.42234375 0.43960938 0 0 Z " fill="#00EAEC" transform="translate(402,128)"/>
<path d="M0 0 C-6.96802086 5.85005486 -14.28483565 10.98844627 -21.9175415 15.92196655 C-23.94160443 17.23056101 -25.96128493 18.54569103 -27.97998047 19.86254883 C-30.19938247 21.31025327 -32.41902323 22.75757743 -34.63980103 24.20317078 C-43.85172634 30.19971394 -53.03867517 36.23416267 -62.22027588 42.27700806 C-65.06045319 44.14504634 -67.90295829 46.00950246 -70.74560547 47.8737793 C-79.62008639 53.70559525 -88.41405549 59.60813203 -97.01367188 65.83911133 C-100.4386585 68.31741059 -103.9032023 70.73385891 -107.37573242 73.14477539 C-128.94420952 88.12130268 -149.93752215 103.87787089 -170.2265625 120.546875 C-171.8432593 121.87156929 -173.46808288 123.1863296 -175.09375 124.5 C-180.42766247 128.81507525 -185.59429548 133.26457132 -190.66796875 137.8828125 C-192.75823889 139.78051169 -194.86986115 141.64733415 -197 143.5 C-200.00491058 146.11796033 -202.97722756 148.76914965 -205.9375 151.4375 C-206.77539062 152.18644531 -207.61328125 152.93539062 -208.4765625 153.70703125 C-210.16322047 155.23964461 -211.82497973 156.80009939 -213.4609375 158.38671875 C-214.23695313 159.12535156 -215.01296875 159.86398437 -215.8125 160.625 C-216.49957031 161.29789063 -217.18664062 161.97078125 -217.89453125 162.6640625 C-220 164 -220 164 -222.56640625 163.8984375 C-225.19819339 162.92683069 -226.28498116 162.080859 -228.125 160 C-230.93468979 157.01508224 -233.85438561 154.42830102 -237.0625 151.875 C-267.29358996 127.3824113 -267.29358996 127.3824113 -269.3046875 112.7890625 C-269.52451086 108.89689587 -269.18031196 106.39982217 -267.5625 102.8125 C-260.66318605 95.24008225 -250.78525965 91.1810015 -241.6875 86.8125 C-240.98692474 86.4742923 -240.28634949 86.13608459 -239.56454468 85.78762817 C-181.98119973 58.05839236 -121.75665712 35.67631362 -61 16 C-60.00806641 15.67854004 -59.01613281 15.35708008 -57.99414062 15.02587891 C-52.67505768 13.30969592 -47.34233819 11.64214457 -42 10 C-41.09008301 9.71817871 -40.18016602 9.43635742 -39.24267578 9.14599609 C-29.62866807 6.16989168 -20.00760337 3.20283299 -10.3125 0.5 C-9.17425781 0.1803125 -8.03601563 -0.139375 -6.86328125 -0.46875 C-4.01230918 -0.99771617 -2.70520351 -0.79208533 0 0 Z " fill="#01E9EB" transform="translate(376,118)"/>
<path d="M0 0 C0.99 0.33 1.98 0.66 3 1 C-2.37064608 7.64549642 -7.84212021 14.18872719 -13.41503906 20.66455078 C-16.79616282 24.59353193 -20.15681856 28.53869556 -23.5 32.5 C-31.79144543 42.31027184 -40.09081477 52.0904004 -48.7734375 61.55859375 C-50.69133207 63.66154833 -52.57376045 65.78669156 -54.4375 67.9375 C-57.86971551 71.88901053 -61.41383951 75.73516535 -64.95947266 79.58447266 C-67.45097058 82.29417909 -69.91145824 85.02242869 -72.3125 87.8125 C-76.73105782 92.90117085 -81.36181882 97.79419112 -85.97387695 102.70678711 C-88.52848212 105.42891374 -91.07823572 108.15541952 -93.62329102 110.88647461 C-102.67315005 120.57646978 -111.90516473 130.06271938 -121.29394531 139.42431641 C-123.53048995 141.65541572 -125.761523 143.89192947 -127.9921875 146.12890625 C-129.44238723 147.57844632 -130.89289651 149.02767679 -132.34375 150.4765625 C-132.99597534 151.13081207 -133.64820068 151.78506165 -134.32019043 152.45913696 C-139.49319855 157.60619881 -144.87504565 162.46936212 -150.546875 167.0625 C-159.96935747 175.34893849 -164.58767363 186.92180617 -170 198 C-171.99310817 202.02427246 -173.99623857 206.04352333 -176 210.0625 C-176.73899536 211.54955444 -176.73899536 211.54955444 -177.49291992 213.06665039 C-197.95516234 254.06129149 -197.95516234 254.06129149 -206 263 C-206.99 263 -207.98 263 -209 263 C-210.49320313 255.31652757 -211.14096594 247.8667179 -211.375 240.0625 C-211.81055309 227.13505816 -213.65655964 214.43652475 -215.48144531 201.64404297 C-216.26450896 196.14121433 -217.01386429 190.63427579 -217.75 185.125 C-217.87745605 184.21113525 -218.00491211 183.29727051 -218.13623047 182.35571289 C-220.13969091 167.40562698 -220.13969091 167.40562698 -216 161 C-214.14463258 158.91374242 -212.31897226 156.98599549 -210.3125 155.0625 C-209.77431641 154.53599854 -209.23613281 154.00949707 -208.68164062 153.46704102 C-205.25619423 150.13953778 -201.75076227 146.92727908 -198.11328125 143.83203125 C-195.94336605 141.95090328 -193.83495392 140.01041397 -191.73046875 138.05664062 C-186.55230254 133.25208894 -181.2634427 128.66163835 -175.7578125 124.23046875 C-172.9289335 121.9425227 -170.15252458 119.59992202 -167.375 117.25 C-161.93321184 112.70582638 -156.34584853 108.38075073 -150.69628906 104.09863281 C-146.96407711 101.26940194 -143.25077511 98.42192195 -139.578125 95.515625 C-131.21738856 88.9066269 -122.73130397 82.63548683 -113.890625 76.68139648 C-109.04682162 73.41689969 -104.30343924 70.05915267 -99.625 66.5625 C-91.24419167 60.33026747 -82.53059112 54.61267088 -73.81542969 48.86230469 C-71.01965696 47.01300237 -68.23122857 45.15317529 -65.4453125 43.2890625 C-52.50382895 34.62999723 -39.50623954 26.05965527 -26.47729492 17.53295898 C-25.83734085 17.1137468 -25.19738678 16.69453461 -24.53804016 16.26261902 C-23.26925223 15.43208805 -21.99964028 14.60281444 -20.72917175 13.77485657 C-17.39128232 11.59385922 -14.08376608 9.37773269 -10.80517578 7.10839844 C-10.12117203 6.63916962 -9.43716827 6.1699408 -8.73243713 5.68649292 C-7.41944877 4.78376046 -6.11212234 3.87272173 -4.81138611 2.9524231 C-3.25871871 1.88944751 -1.63337715 0.9342228 0 0 Z " fill="#E4E4E4" transform="translate(379,131)"/>
<path d="M0 0 C-0.34544557 7.562141 -1.637765 13.81968052 -4.54296875 20.79296875 C-4.90303009 21.68950165 -5.26309143 22.58603455 -5.63406372 23.50973511 C-6.80349955 26.40869528 -7.99455923 29.29814189 -9.1875 32.1875 C-10.01073433 34.20925915 -10.83323691 36.23131641 -11.6550293 38.25366211 C-18.47276333 54.96722542 -25.55460649 71.55679017 -33 88 C-33.27930359 88.61834717 -33.55860718 89.23669434 -33.84637451 89.8737793 C-57.59290363 142.41711978 -57.59290363 142.41711978 -68.00390625 147.40234375 C-74.89771827 149.46644011 -80.79106742 148.45865998 -87.25 145.5 C-93.41764493 142.12343496 -98.7246649 137.8260053 -101 131 C-102.23957449 121.2383509 -97.6911631 115.0435933 -92.0703125 107.36328125 C-87.34412294 101.31793436 -82.17895803 95.65701569 -77 90 C-71.24223452 83.70337952 -65.71048526 77.2866276 -60.34423828 70.65332031 C-58.25574742 68.0846207 -56.14648273 65.5331556 -54.0390625 62.97998047 C-44.70985824 51.67748655 -35.38506567 40.37200654 -26.375 28.8125 C-21.09850584 22.04980451 -15.59231994 15.50269761 -10 9 C-9.28199219 8.15695313 -8.56398438 7.31390625 -7.82421875 6.4453125 C-7.20160156 5.72085938 -6.57898438 4.99640625 -5.9375 4.25 C-5.41027344 3.63640625 -4.88304687 3.0228125 -4.33984375 2.390625 C-3.03420193 1.03549821 -1.98280963 0 0 0 Z " fill="#6AFEFA" transform="translate(363,202)"/>
<path d="M0 0 C0.99 0.495 0.99 0.495 2 1 C-4.47993576 8.62672851 -11.00892069 16.18204923 -17.7734375 23.55859375 C-19.69133207 25.66154833 -21.57376045 27.78669156 -23.4375 29.9375 C-26.86971551 33.88901053 -30.41383951 37.73516535 -33.95947266 41.58447266 C-36.45097058 44.29417909 -38.91145824 47.02242869 -41.3125 49.8125 C-45.73105782 54.90117085 -50.36181882 59.79419112 -54.97387695 64.70678711 C-57.52848212 67.42891374 -60.07823572 70.15541952 -62.62329102 72.88647461 C-71.67315005 82.57646978 -80.90516473 92.06271938 -90.29394531 101.42431641 C-92.53048995 103.65541572 -94.761523 105.89192947 -96.9921875 108.12890625 C-98.44238723 109.57844632 -99.89289651 111.02767679 -101.34375 112.4765625 C-101.99597534 113.13081207 -102.64820068 113.78506165 -103.32019043 114.45913696 C-108.49319855 119.60619881 -113.87504565 124.46936212 -119.546875 129.0625 C-128.96935747 137.34893849 -133.58767363 148.92180617 -139 160 C-140.99310829 164.0242727 -142.9963707 168.04345728 -145 172.0625 C-145.49121338 173.05169434 -145.98242676 174.04088867 -146.48852539 175.06005859 C-153.77267498 189.66173302 -161.61269257 204.00146576 -170 218 C-171.29086916 214.23525807 -170.84431138 211.00096496 -170.3984375 207.0859375 C-170.28364548 206.06763603 -170.28364548 206.06763603 -170.16653442 205.02876282 C-169.91211856 202.80962112 -169.64489965 200.59230884 -169.375 198.375 C-169.28452393 197.617565 -169.19404785 196.86013 -169.10083008 196.07974243 C-164.33196532 156.45083159 -157.21334667 134.38640118 -125.609375 109.140625 C-122.81568484 106.84879535 -120.15791222 104.44768188 -117.5 102 C-113.05272888 97.90648909 -108.45282537 94.07557501 -103.75 90.28125 C-100.91900422 87.93281032 -98.20616402 85.49090098 -95.5 83 C-91.05272888 78.90648909 -86.45282537 75.07557501 -81.75 71.28125 C-77.96094593 68.13805742 -74.36730648 64.79841405 -70.74609375 61.46484375 C-68.08124834 59.07292703 -65.35168175 56.80745116 -62.5625 54.5625 C-58.02683557 50.90428985 -53.7429883 47.05257035 -49.48071289 43.08618164 C-45.39338994 39.30509442 -41.11956756 35.80310034 -36.78125 32.3125 C-33.75980664 29.80028867 -30.87559922 27.17597543 -28 24.5 C-23.4035794 20.22307315 -18.6512001 16.21878638 -13.7578125 12.28125 C-9.01650467 8.35926166 -4.51298603 4.18127719 0 0 Z " fill="#C5C5C5" transform="translate(348,169)"/>
<path d="M0 0 C1.0028661 3.14800143 0.95735639 5.22883185 0.21826172 8.43408203 C-0.08007065 9.75609367 -0.08007065 9.75609367 -0.38442993 11.10481262 C-0.7239418 12.54179756 -0.7239418 12.54179756 -1.0703125 14.0078125 C-1.3025351 15.02022507 -1.53475769 16.03263763 -1.77401733 17.07572937 C-2.54709482 20.42804276 -3.33501523 23.77663315 -4.125 27.125 C-4.52948364 28.85537003 -4.52948364 28.85537003 -4.94213867 30.62069702 C-13.9490028 69.13153712 -23.71503792 107.39411861 -36 145 C-36.29966675 145.9198468 -36.5993335 146.8396936 -36.90808105 147.78741455 C-38.84168445 153.71354858 -40.79812835 159.63158752 -42.77984619 165.54180908 C-43.41404096 167.43473782 -44.04515432 169.32870246 -44.67279053 171.22381592 C-57.68426732 210.37989008 -57.68426732 210.37989008 -70.5625 218.6875 C-77.81940648 221.45831884 -82.87641796 219.70684887 -89.71484375 216.65625 C-113.73299955 204.54721545 -133.31934153 184.93050267 -152 166 C-148.41247385 166 -148.17393157 166.48229202 -145.6875 168.875 C-129.3422148 183.69352779 -108.13491831 198.57212858 -85.5078125 198.3359375 C-77.67993314 197.58627422 -72.23902396 192.99187027 -66.97265625 187.421875 C-57.20705556 175.43242465 -50.97742458 160.78109235 -45.9375 146.3125 C-45.50195801 145.07717529 -45.06641602 143.84185059 -44.61767578 142.5690918 C-42.16616927 135.55079201 -39.84148593 128.52267671 -37.82739258 121.36694336 C-36.0783741 115.15302503 -34.109393 109.01739073 -32.125 102.875 C-29.51888717 94.78958679 -26.96191318 86.69303188 -24.5 78.5625 C-24.07895996 77.17200439 -24.07895996 77.17200439 -23.64941406 75.75341797 C-23.07113265 73.84233248 -22.49301018 71.93119889 -21.91503906 70.02001953 C-17.80940653 56.46967949 -13.70345059 42.92767429 -9.15234375 29.51953125 C-7.57244944 24.69415913 -6.1574323 19.82563388 -4.74462891 14.94921875 C-3.28466031 9.92082891 -1.70998713 4.94996274 0 0 Z " fill="#19BEBA" transform="translate(392,178)"/>
<path d="M0 0 C-1.58196448 4.51073655 -5.10903823 6.80021784 -8.75 9.625 C-9.42248779 10.15424072 -10.09497559 10.68348145 -10.7878418 11.22875977 C-16.76228846 15.89391131 -22.90101446 20.30275409 -29.10302734 24.65771484 C-31.87681909 26.62043132 -34.62421385 28.6189372 -37.37353516 30.61572266 C-80.54787177 61.95480412 -80.54787177 61.95480412 -104 73 C-104.99 73.495 -104.99 73.495 -106 74 C-109.98993592 74.55673525 -112.3881917 74.05589871 -115.6875 71.875 C-120.01049393 68.47016407 -121.62555131 65.0220229 -122.625 59.625 C-121.67962437 54.14182136 -119.30842649 51.44408167 -115 48 C-110.59962487 45.40463312 -106.05608114 43.24750657 -101.41503906 41.12011719 C-98.89184996 39.94983902 -96.39452822 38.73476809 -93.8984375 37.5078125 C-72.02217696 26.79451938 -49.60775165 17.3551883 -27 8.3125 C-26.23957397 8.0082309 -25.47914795 7.70396179 -24.69567871 7.39047241 C-22.52735778 6.5245161 -20.35779023 5.66178883 -18.1875 4.80078125 C-17.54814514 4.54616119 -16.90879028 4.29154114 -16.25006104 4.02920532 C-5.2604002 -0.30943531 -5.2604002 -0.30943531 0 0 Z " fill="#6AFEFA" transform="translate(258,168)"/>
<path d="M0 0 C0.99 0.495 0.99 0.495 2 1 C-2.08169023 3.73162998 -6.16537303 6.46026431 -10.25 9.1875 C-11.21607178 9.83268585 -11.21607178 9.83268585 -12.20166016 10.49090576 C-21.21142938 16.50537095 -30.24380942 22.4844892 -39.296875 28.43359375 C-40.74710052 29.38708961 -40.74710052 29.38708961 -42.22662354 30.35984802 C-47.02929795 33.51713403 -51.83392485 36.67138146 -56.64160156 39.82104492 C-65.55325216 45.67026342 -74.38658444 51.5849335 -83.01806641 57.84130859 C-86.44122981 60.31941657 -89.90451128 62.73476771 -93.37573242 65.14477539 C-114.94420952 80.12130268 -135.93752215 95.87787089 -156.2265625 112.546875 C-157.8432593 113.87156929 -159.46808288 115.1863296 -161.09375 116.5 C-166.42766247 120.81507525 -171.59429548 125.26457132 -176.66796875 129.8828125 C-178.75823889 131.78051169 -180.86986115 133.64733415 -183 135.5 C-186.00491058 138.11796033 -188.97722756 140.76914965 -191.9375 143.4375 C-192.77539062 144.18644531 -193.61328125 144.93539062 -194.4765625 145.70703125 C-196.16322047 147.23964461 -197.82497973 148.80009939 -199.4609375 150.38671875 C-200.23695313 151.12535156 -201.01296875 151.86398437 -201.8125 152.625 C-202.49957031 153.29789063 -203.18664062 153.97078125 -203.89453125 154.6640625 C-206 156 -206 156 -208.56640625 155.8984375 C-211.19819339 154.92683069 -212.28498116 154.080859 -214.125 152 C-216.93468979 149.01508224 -219.85438561 146.42830102 -223.0625 143.875 C-230.03558657 138.27128002 -236.49977719 132.13962651 -243 126 C-242.01 125.505 -242.01 125.505 -241 125 C-239.29174805 125.60498047 -239.29174805 125.60498047 -237.26171875 126.6171875 C-236.52373047 126.97683594 -235.78574219 127.33648437 -235.02539062 127.70703125 C-234.25388672 128.09246094 -233.48238281 128.47789062 -232.6875 128.875 C-221.94592675 134.213899 -211.70120982 136.04549622 -199.875 132.4375 C-182.94694232 126.02335315 -168.74145127 112.09615375 -154.89526367 100.75317383 C-149.74643252 96.55601331 -144.47658754 92.54630258 -139.14013672 88.59155273 C-134.80135173 85.37097322 -130.52894218 82.07826123 -126.28393555 78.73510742 C-118.03600524 72.24344405 -109.63372269 66.10644584 -100.90722656 60.27490234 C-99.04522066 59.03022815 -97.19001098 57.77598201 -95.3359375 56.51953125 C-67.00486001 37.38873252 -37.3828411 19.93575368 -7.3125 3.6875 C-6.24201416 3.09980835 -6.24201416 3.09980835 -5.14990234 2.50024414 C-3.46550241 1.60346678 -1.73603361 0.79221214 0 0 Z " fill="#19BDBA" transform="translate(362,126)"/>
<path d="M0 0 C0.99 0.33 1.98 0.66 3 1 C-0.09897646 5.77900765 -2.40243883 9.19681008 -7.96875 11.11328125 C-11.7153724 12.74882603 -14.81869802 15.41189528 -18.078125 17.84765625 C-20.81576855 19.8642894 -23.59592536 21.75871157 -26.4375 23.625 C-35.4221722 29.56046998 -44.19472937 35.80306037 -53 42 C-54.47782775 43.03781287 -55.95569042 44.07557602 -57.43359375 45.11328125 C-66.16327452 51.25089661 -74.83617608 57.46393163 -83.4765625 63.7265625 C-86.44366447 65.87691382 -89.41750504 68.01730316 -92.3984375 70.1484375 C-101.42065482 76.60888948 -110.29920865 83.23185103 -119.10595703 89.9831543 C-124.91758395 94.43283119 -130.7793702 98.80447447 -136.6875 103.125 C-145.23106484 109.38210862 -153.60755348 115.83593813 -161.93359375 122.37890625 C-163.87821476 123.90445959 -165.82850454 125.42236768 -167.78125 126.9375 C-175.69724819 133.09270917 -183.39282943 139.46786699 -191 146 C-191.76183594 146.63679687 -192.52367187 147.27359375 -193.30859375 147.9296875 C-202.89745479 156.04190133 -210.043782 164.24052404 -212 177 C-212.23445828 180.33071952 -212.36945246 183.66378509 -212.5 187 C-212.91752577 197.67010309 -212.91752577 197.67010309 -214 202 C-215.72390219 198.94338539 -216.40308605 196.33051999 -216.8515625 192.859375 C-217.04492188 191.37630859 -217.04492188 191.37630859 -217.2421875 189.86328125 C-217.36851562 188.83589844 -217.49484375 187.80851563 -217.625 186.75 C-217.7590625 185.73808594 -217.893125 184.72617187 -218.03125 183.68359375 C-220.10677761 167.35469798 -220.10677761 167.35469798 -216 161 C-214.14463258 158.91374242 -212.31897226 156.98599549 -210.3125 155.0625 C-209.77431641 154.53599854 -209.23613281 154.00949707 -208.68164062 153.46704102 C-205.25619423 150.13953778 -201.75076227 146.92727908 -198.11328125 143.83203125 C-195.94336605 141.95090328 -193.83495392 140.01041397 -191.73046875 138.05664062 C-186.55230254 133.25208894 -181.2634427 128.66163835 -175.7578125 124.23046875 C-172.9289335 121.9425227 -170.15252458 119.59992202 -167.375 117.25 C-161.93321184 112.70582638 -156.34584853 108.38075073 -150.69628906 104.09863281 C-146.96407711 101.26940194 -143.25077511 98.42192195 -139.578125 95.515625 C-131.21738856 88.9066269 -122.73130397 82.63548683 -113.890625 76.68139648 C-109.04682162 73.41689969 -104.30343924 70.05915267 -99.625 66.5625 C-91.24419167 60.33026747 -82.53059112 54.61267088 -73.81542969 48.86230469 C-71.01965696 47.01300237 -68.23122857 45.15317529 -65.4453125 43.2890625 C-52.50382895 34.62999723 -39.50623954 26.05965527 -26.47729492 17.53295898 C-25.83734085 17.1137468 -25.19738678 16.69453461 -24.53804016 16.26261902 C-23.26925223 15.43208805 -21.99964028 14.60281444 -20.72917175 13.77485657 C-17.39128232 11.59385922 -14.08376608 9.37773269 -10.80517578 7.10839844 C-10.12117203 6.63916962 -9.43716827 6.1699408 -8.73243713 5.68649292 C-7.41944877 4.78376046 -6.11212234 3.87272173 -4.81138611 2.9524231 C-3.25871871 1.88944751 -1.63337715 0.9342228 0 0 Z " fill="#F0EEEF" transform="translate(379,131)"/>
<path d="M0 0 C2.91579966 2.81817244 5.47958808 5.76311756 8 8.9375 C13.36909276 15.57043596 19.15880542 21.78322946 25 28 C23.46216584 32.28609262 20.24888661 34.43689845 16.6875 37 C16.03595947 37.47203857 15.38441895 37.94407715 14.71313477 38.43041992 C-17.20580033 61 -17.20580033 61 -31 61 C-29.45464601 55.71724098 -27.09591161 51.13156422 -24.5 46.3125 C-23.59629078 44.61461707 -22.6926468 42.91669941 -21.7890625 41.21875 C-21.32661133 40.35378906 -20.86416016 39.48882812 -20.38769531 38.59765625 C-18.20374909 34.50948106 -16.0370931 30.4122664 -13.875 26.3125 C-13.46451416 25.53511475 -13.05402832 24.75772949 -12.63110352 23.95678711 C-9.4720436 17.9518743 -6.41417721 11.90020763 -3.42333984 5.80981445 C-1.10106709 1.10106709 -1.10106709 1.10106709 0 0 Z " fill="#01E7E9" transform="translate(218,336)"/>
<path d="M0 0 C3.09892008 2.99303443 5.84782605 6.15603615 8.5625 9.5 C9.32691406 10.4384375 10.09132812 11.376875 10.87890625 12.34375 C12.62857492 14.53486362 14.33490145 16.74440324 16 19 C14.98292969 19.29390625 14.98292969 19.29390625 13.9453125 19.59375 C13.01460937 19.8928125 12.08390625 20.191875 11.125 20.5 C10.22007812 20.7784375 9.31515625 21.056875 8.3828125 21.34375 C-0.83524051 25.85697688 -8.02451152 33.75483072 -15.125 41 C-16.41664063 42.30517578 -16.41664063 42.30517578 -17.734375 43.63671875 C-19.82763992 45.75324217 -21.91603944 47.87432172 -24 50 C-24.33 49.34 -24.66 48.68 -25 48 C-24.03577799 45.78713828 -23.01408406 43.70994157 -21.87890625 41.5859375 C-21.37586975 40.62164825 -21.37586975 40.62164825 -20.8626709 39.63787842 C-19.76981262 37.54639116 -18.66620253 35.46078166 -17.5625 33.375 C-16.44796078 31.24867942 -15.33606931 29.12098783 -14.22422791 26.99325562 C-13.49297688 25.59450038 -12.7607724 24.19624317 -12.02760315 22.79849243 C-8.97483394 16.97488919 -6.01494538 11.10890022 -3.12133789 5.20458984 C-1.09718528 1.09718528 -1.09718528 1.09718528 0 0 Z " fill="#19BDB9" transform="translate(218,336)"/>
</svg>
