<?xml version="1.0" encoding="UTF-8"?>
<svg version="1.1" xmlns="http://www.w3.org/2000/svg" width="512" height="512">
<path d="M0 0 C7.13704467 5.8647362 11.29891395 11.85355229 15.3984375 20.12890625 C15.98407974 21.28377029 16.56972198 22.43863434 17.17311096 23.62849426 C18.85903137 26.95852531 20.52430531 30.29850106 22.18412018 33.64160919 C23.35604806 36.00193534 24.53069302 38.36089548 25.70574951 40.71966553 C30.18695807 49.71891396 34.65458524 58.72490235 39.11914062 67.73242188 C39.57971045 68.66144758 40.04028027 69.59047329 40.51480675 70.54765129 C42.88119737 75.32292655 45.24301655 80.10039019 47.59741211 84.8815918 C49.91782918 89.59286419 52.25006299 94.29812016 54.59013557 98.99965858 C55.46795692 100.76878513 56.34147103 102.54005636 57.21035576 104.3135891 C63.9265285 119.15440752 63.9265285 119.15440752 75.7265625 129.7421875 C83.08528933 131.97339462 91.07589752 132.58660268 98.69116211 133.54199219 C100.82832286 133.81412033 102.96059918 134.11230713 105.09375 134.4140625 C106.35727295 134.57825684 107.6207959 134.74245117 108.92260742 134.91162109 C113.019677 136.09896293 114.74502986 137.49858426 117.30078125 140.890625 C117.61328125 143.703125 117.61328125 143.703125 117.30078125 145.890625 C117.98479004 145.97103027 118.66879883 146.05143555 119.37353516 146.13427734 C144.49466347 149.09541926 144.49466347 149.09541926 156.30078125 150.890625 C156.91953125 149.92125 157.53828125 148.951875 158.17578125 147.953125 C160.30078125 144.890625 160.30078125 144.890625 162.30078125 143.890625 C168.61555109 143.29031781 173.84023403 143.54743282 179.30078125 146.890625 C182.30078125 151.63256048 182.30078125 151.63256048 182.30078125 154.890625 C185.50654112 154.54715073 186.27594884 153.9198396 188.42578125 151.390625 C189.04453125 150.565625 189.66328125 149.740625 190.30078125 148.890625 C194.59105893 146.74548616 198.89991074 147.52479258 203.3671875 148.69140625 C216.04595115 153.04739234 224.12650675 161.15197147 230.328125 172.82421875 C234.5331516 182.76513417 233.6405045 196.48978905 229.76171875 206.3359375 C224.43726022 215.64662167 216.62950019 222.83836693 209.08984375 230.33203125 C207.79442386 231.62625651 206.4993762 232.92085444 205.2046814 234.21580505 C202.49956584 236.91936302 199.79114607 239.61954991 197.08007812 242.31713867 C193.62319332 245.75704358 190.17291805 249.20348472 186.72489357 252.65226841 C184.0535913 255.32329737 181.37967996 257.99170158 178.70490646 260.65925407 C177.43260436 261.92839745 176.16088637 263.19812671 174.88978958 264.46847725 C163.18101796 276.16285009 163.18101796 276.16285009 156.89401245 281.52522278 C153.08462688 284.78987358 149.59752 288.40934186 146.05078125 291.953125 C145.261875 292.72978516 144.47296875 293.50644531 143.66015625 294.30664062 C137.15184026 300.79846595 132.21597382 305.95215985 131.98071289 315.54516602 C132.07393637 326.66879817 134.41802587 337.51088243 136.421875 348.41796875 C136.84655868 350.77995991 137.27012876 353.14215153 137.69264221 355.50453186 C138.80120414 361.68665575 139.92401541 367.86610405 141.0501709 374.04504395 C142.41751942 381.56242875 143.76788267 389.08287951 145.12094975 396.60284519 C146.17342598 402.45024877 147.228316 408.29718264 148.29063416 414.14280701 C148.48548904 415.21714493 148.68034393 416.29148285 148.88110352 417.39837646 C149.24320401 419.39405826 149.60629185 421.38956128 149.97059631 423.38484192 C152.71657334 438.53650892 154.15811089 451.96097336 145.55078125 465.765625 C138.64181361 475.19636582 128.98944679 481.51563159 117.43359375 483.609375 C101.33434252 485.73235318 88.16258365 478.22516448 74.42578125 470.953125 C72.57914929 469.98938255 70.73181266 469.02698917 68.88378906 468.06591797 C64.44502189 465.75387622 60.01446431 463.42664865 55.58679199 461.09344482 C52.57190919 459.50711772 49.5504397 457.93390012 46.52734375 456.36328125 C42.96306031 454.51103203 39.40168696 452.65347343 35.84375 450.7890625 C19.07302427 442.00867515 2.27734694 433.26738296 -14.69921875 424.890625 C-15.35921875 424.560625 -16.01921875 424.230625 -16.69921875 423.890625 C-18.83255466 423.61497063 -18.83255466 423.61497063 -21.26171875 423.578125 C-22.06738281 423.54074219 -22.87304688 423.50335938 -23.703125 423.46484375 C-32.75415251 424.75110451 -41.38607355 430.73027386 -49.38671875 434.890625 C-50.34121918 435.38533798 -50.34121918 435.38533798 -51.31500244 435.89004517 C-60.51700416 440.66054373 -69.65112107 445.54167354 -78.73120117 450.54101562 C-86.11872009 454.60091537 -93.58291789 458.50117678 -101.06884766 462.37597656 C-108.80726977 466.39357223 -116.4645633 470.54900381 -124.08007812 474.79492188 C-138.17745409 482.58586217 -151.17532178 487.93626871 -167.42578125 483.984375 C-179.51814432 479.56655617 -187.38330795 472.90172362 -192.98828125 461.19921875 C-197.16358589 451.12141511 -197.30149122 442.09828608 -195.4934082 431.45043945 C-195.36488968 430.65850693 -195.23637115 429.8665744 -195.10395813 429.05064392 C-194.68026466 426.4505666 -194.24646295 423.85228753 -193.8125 421.25390625 C-193.50998032 419.41059775 -193.20808741 417.56718629 -192.90678406 415.72367859 C-192.11113967 410.86637899 -191.30687077 406.01054585 -190.50079346 401.15496826 C-189.70030781 396.32358332 -188.90820387 391.49082623 -188.11523438 386.65820312 C-187.49397434 382.87752435 -186.87215167 379.09693839 -186.25 375.31640625 C-186.0974387 374.38935001 -185.9448774 373.46229378 -185.78769302 372.50714493 C-184.26456247 363.26023793 -182.72899788 354.01622079 -181.12646484 344.78271484 C-180.88793324 343.39677547 -180.64957989 342.0108054 -180.41142273 340.62480164 C-179.98305864 338.14211825 -179.54813941 335.66055144 -179.10481262 333.18049622 C-177.38390073 323.17225234 -175.87417899 313.78007617 -181.69921875 304.890625 C-184.73628189 301.28357682 -188.04585832 298.0251116 -191.44921875 294.765625 C-192.31804687 293.91097656 -193.186875 293.05632812 -194.08203125 292.17578125 C-197.88030969 288.46304962 -201.71836115 284.8301532 -205.74609375 281.3671875 C-211.34988049 276.53550942 -216.44624213 271.18779065 -221.6328125 265.91796875 C-225.21827934 262.29763513 -228.79863767 258.73955446 -232.66796875 255.421875 C-238.53609235 250.38453261 -243.85405237 244.77889996 -249.27734375 239.2734375 C-254.24831402 234.25672211 -259.30956835 229.4544601 -264.69921875 224.890625 C-272.17197423 218.53369346 -276.61260466 210.15046727 -279.69921875 200.890625 C-280.58871264 186.54206775 -279.40412808 174.27398871 -269.69921875 162.890625 C-261.70971148 155.40509407 -253.38251708 151.58736651 -242.66723633 149.86352539 C-241.7110909 149.69998849 -240.75494547 149.53645159 -239.76982594 149.36795902 C-236.74885028 148.85804192 -233.72513954 148.37027141 -230.69921875 147.890625 C-229.74886623 147.73964733 -228.79851372 147.58866966 -227.81936264 147.43311691 C-221.98899414 146.51622829 -216.15292851 145.6409467 -210.3138485 144.78146172 C-207.11233059 144.3096881 -203.91165213 143.83253843 -200.71113586 143.35401917 C-191.63089568 141.99703907 -182.5496289 140.64708617 -173.46704102 139.3059082 C-167.86448181 138.47822923 -162.26314278 137.64267785 -156.66248512 136.80223274 C-154.54635831 136.48627985 -152.42978326 136.17331309 -150.31274986 135.86349297 C-147.36058361 135.43128159 -144.41007103 134.98906641 -141.4597168 134.54467773 C-140.60091415 134.42148666 -139.74211151 134.29829559 -138.85728455 134.17137146 C-130.99681531 132.96796637 -122.8190439 131.21634026 -116.69921875 125.890625 C-114.61520685 122.85347842 -113.00976426 119.62975859 -111.38671875 116.328125 C-110.62911255 114.83200684 -110.62911255 114.83200684 -109.85620117 113.30566406 C-108.11504748 109.84469499 -106.40339521 106.36988162 -104.69921875 102.890625 C-104.38408325 102.24901428 -104.06894775 101.60740356 -103.7442627 100.9463501 C-99.47769303 92.25907091 -95.25482516 83.55099779 -91.0511322 74.83314514 C-88.4276815 69.3939061 -85.79182415 63.9608265 -83.1484375 58.53125 C-82.77675949 57.76749054 -82.40508148 57.00373108 -82.0221405 56.21682739 C-80.5518434 53.19569536 -79.08141912 50.17462739 -77.60910034 47.15447998 C-73.88976229 39.5239144 -70.21158645 31.88332895 -66.67724609 24.16479492 C-63.4194173 17.07876493 -60.20622795 10.55239792 -54.69921875 4.890625 C-54.15910156 4.33503906 -53.61898437 3.77945312 -53.0625 3.20703125 C-38.53612755 -10.37123298 -16.09673199 -10.87701501 0 0 Z " fill="#FEA71E" transform="translate(279.69921875,17.109375)"/>
<path d="M0 0 C5.15814943 1.57248439 8.75450844 4.78278447 12.8125 8.1875 C13.55588623 8.80681396 14.29927246 9.42612793 15.06518555 10.06420898 C32.19812612 24.48079707 47.53756107 40.11231409 61 58 C61.61391602 58.8046167 61.61391602 58.8046167 62.24023438 59.62548828 C85.13955751 89.77995124 100.15059454 124.39684538 109 161 C109.19722656 161.78729492 109.39445312 162.57458984 109.59765625 163.38574219 C110.89365273 168.56293093 112.02139249 173.75348552 113 179 C113.15098145 179.80195801 113.30196289 180.60391602 113.45751953 181.43017578 C115.9968074 195.69346804 116.28901586 209.93034997 116.3125 224.375 C116.31608521 225.26179443 116.31967041 226.14858887 116.32336426 227.06225586 C116.36097008 244.3593344 114.71539811 260.97654072 111.25 277.9375 C111.11994568 278.57920135 110.98989136 279.22090271 110.855896 279.88204956 C108.61429872 290.87205105 105.83256354 301.46434742 102 312 C101.53956299 313.28076416 101.53956299 313.28076416 101.06982422 314.58740234 C96.93589893 326.00049654 92.35493233 337.10605955 87 348 C81.10681715 347.52550863 76.85632978 344.95534333 71.8125 342.125 C60.53982765 336.03264957 48.55047116 330.89698146 35.5246582 334.72802734 C28.76010394 337.07419176 22.49009611 340.12565983 16.1875 343.5 C15.19685547 344.02335937 14.20621094 344.54671875 13.18554688 345.0859375 C5.51044553 349.15466593 -2.11368915 353.31653062 -9.7277832 357.49804688 C-17.22272743 361.60501195 -24.79048384 365.56077973 -32.37915039 369.49121094 C-39.11491062 372.98980198 -45.7870062 376.59222841 -52.4375 380.25 C-61.18606788 385.05984232 -70.02831508 389.62210562 -79 394 C-79.66 394.33 -80.32 394.66 -81 395 C-88.17170695 395.84826641 -94.43501466 396.065065 -100.625 392 C-105.85418849 387.77543393 -107.92646911 383.22059267 -110 377 C-110.52388944 370.43643994 -109.56296202 364.07676776 -108.47119141 357.62182617 C-108.30859329 356.62541611 -108.14599518 355.62900604 -107.97846985 354.60240173 C-107.44296802 351.33143148 -106.89734131 348.06223853 -106.3515625 344.79296875 C-105.97458626 342.50297626 -105.59824353 340.2128794 -105.22250366 337.92268372 C-104.23336237 331.90440468 -103.2356014 325.8875858 -102.23602295 319.87103271 C-101.22501693 313.7762146 -100.2222503 307.68004194 -99.21875 301.58398438 C-97.74604348 292.64405291 -96.26943798 283.70477942 -94.78759766 274.76635742 C-94.62683558 273.79459155 -94.46607349 272.82282568 -94.30043983 271.82161236 C-93.33494965 265.99158626 -92.35227331 260.16489639 -91.33041382 254.34443665 C-89.76191366 243.21521309 -91.80955653 233.36365647 -97.8046875 223.84375 C-103.86832612 215.98907221 -111.37220157 209.0928474 -118.8828125 202.63671875 C-124.5338627 197.74129234 -129.69250662 192.35255748 -134.93359375 187.02734375 C-138.52936227 183.39660828 -142.12146956 179.82942643 -146 176.5 C-151.62812757 171.66867614 -156.73436598 166.31002622 -161.93359375 161.02734375 C-166.21123002 156.70810972 -170.55013494 152.55767078 -175.16015625 148.59521484 C-192.09604423 133.91115273 -192.09604423 133.91115273 -193.4296875 123.71484375 C-193.80747801 116.65016112 -193.29885492 111.46392611 -188.83203125 105.8359375 C-179.99658841 96.98165576 -168.28205164 96.67089829 -156.4375 95.125 C-146.19797552 93.75303969 -135.99887676 92.2507435 -125.82006836 90.48291016 C-113.68591146 88.38620335 -101.49740139 86.61460344 -89.30067444 84.92424011 C-85.9044882 84.45226779 -82.509924 83.96917879 -79.11547852 83.48486328 C-77.40169133 83.24329091 -75.68714737 83.00703239 -73.97192383 82.77587891 C-54.44377712 80.19654047 -54.44377712 80.19654047 -38 70 C-37.34 70 -36.68 70 -36 70 C-35.6596875 69.2265625 -35.6596875 69.2265625 -35.3125 68.4375 C-34 66 -34 66 -31.71484375 62.95703125 C-28.62332802 58.65383273 -26.46582349 54.04794843 -24.25 49.25 C-23.30077585 47.23116065 -22.35015462 45.21297782 -21.3984375 43.1953125 C-20.87088867 42.07415039 -20.34333984 40.95298828 -19.79980469 39.79785156 C-16.59536842 33.0160548 -13.31386012 26.27103252 -10.03845215 19.52331543 C-8.88192688 17.13927892 -7.72848264 14.75376827 -6.57519531 12.36816406 C-5.86020185 10.89379494 -5.1450404 9.41950726 -4.4296875 7.9453125 C-4.09788483 7.25782928 -3.76608215 6.57034607 -3.42422485 5.86203003 C-1.1142638 1.1142638 -1.1142638 1.1142638 0 0 Z " fill="#FED82D" transform="translate(212,88)"/>
<path d="M0 0 C7.13704467 5.8647362 11.29891395 11.85355229 15.3984375 20.12890625 C15.98407974 21.28377029 16.56972198 22.43863434 17.17311096 23.62849426 C18.85903137 26.95852531 20.52430531 30.29850106 22.18412018 33.64160919 C23.35604806 36.00193534 24.53069302 38.36089548 25.70574951 40.71966553 C30.18695807 49.71891396 34.65458524 58.72490235 39.11914062 67.73242188 C39.57971045 68.66144758 40.04028027 69.59047329 40.51480675 70.54765129 C42.88119737 75.32292655 45.24301655 80.10039019 47.59741211 84.8815918 C49.91782918 89.59286419 52.25006299 94.29812016 54.59013557 98.99965858 C55.46795692 100.76878513 56.34147103 102.54005636 57.21035576 104.3135891 C63.9265285 119.15440752 63.9265285 119.15440752 75.7265625 129.7421875 C83.08528933 131.97339462 91.07589752 132.58660268 98.69116211 133.54199219 C100.82832286 133.81412033 102.96059918 134.11230713 105.09375 134.4140625 C106.35727295 134.57825684 107.6207959 134.74245117 108.92260742 134.91162109 C112.96032528 136.08176264 114.6722525 137.65753463 117.30078125 140.890625 C117.7109375 143.20703125 117.7109375 143.20703125 117.36328125 145.453125 C117.27175781 146.19691406 117.18023437 146.94070312 117.0859375 147.70703125 C116.03317783 150.63485541 114.71475231 151.9309231 112.30078125 153.890625 C96.81312179 156.37327573 75.96974231 152.42412668 62.23046875 145.0625 C54.98924849 139.69434205 50.13682071 133.75295144 46.1953125 125.69921875 C45.46668755 124.25983192 45.46668755 124.25983192 44.7233429 122.79136658 C43.24979009 119.8667461 41.79329234 116.93459033 40.34320831 113.9983139 C38.78526931 110.84830862 37.217605 107.70316025 35.65115166 104.55738258 C31.4083735 96.03514096 27.17642465 87.50752215 22.94726562 78.97851562 C22.4592642 77.99462168 21.97126278 77.01072773 21.46847343 75.99701881 C18.9629218 70.94352972 16.46192177 65.88785799 13.96850586 60.82836914 C11.52071402 55.86235565 9.06111182 50.90234998 6.59366798 45.94607353 C5.66561442 44.07646549 4.74187276 42.20471007 3.82272911 40.33070564 C2.54102494 37.71874381 1.24432495 35.11473957 -0.0559082 32.51196289 C-0.42332123 31.75399414 -0.79073425 30.99602539 -1.16928101 30.21508789 C-4.83968824 22.94315315 -9.71828076 15.64123548 -17.69921875 12.890625 C-23.90924237 12.02612055 -30.58348813 11.69502433 -36.19921875 14.828125 C-44.3300832 21.33794423 -48.3956039 31.87496969 -52.88671875 41.015625 C-53.55670674 42.36825154 -54.22704077 43.72070672 -54.89770508 45.07299805 C-59.04804555 53.4586785 -63.12275908 61.87939546 -67.13452148 70.33227539 C-72.00161502 80.57380184 -76.97744559 90.76211383 -81.94921875 100.953125 C-82.37955414 101.83594147 -82.80988953 102.71875793 -83.25326538 103.62832642 C-85.69400762 108.6347576 -88.14268227 113.63718926 -90.59790039 118.63653564 C-91.63830323 120.76594805 -92.66562237 122.90115627 -93.68945312 125.03857422 C-94.29149847 126.279704 -94.89370077 127.52075766 -95.49609375 128.76171875 C-95.99979492 129.81157959 -96.50349609 130.86144043 -97.02246094 131.94311523 C-99.92227341 137.04058699 -103.50915725 141.11770535 -108.32421875 144.515625 C-109.07960937 145.06476563 -109.835 145.61390625 -110.61328125 146.1796875 C-119.10195016 150.88606343 -127.84801786 152.66432014 -137.38671875 153.890625 C-139.78933682 154.22197526 -142.19167688 154.55534704 -144.59375 154.890625 C-145.7895166 155.055625 -146.9852832 155.220625 -148.21728516 155.390625 C-153.35325803 156.12814235 -158.46188239 157.00616316 -163.57421875 157.890625 C-176.10885939 160.03045523 -188.69720672 161.73009992 -201.29785156 163.42919922 C-219.53903202 165.89788147 -219.53903202 165.89788147 -237.69921875 168.890625 C-238.49199219 169.00792969 -239.28476563 169.12523437 -240.1015625 169.24609375 C-247.66476149 170.55187682 -253.28731489 174.06693267 -258.26171875 179.890625 C-261.04636021 185.65239466 -261.04683504 193.81620754 -259.06347656 199.81274414 C-256.40973383 205.79691927 -252.11476901 209.97013975 -247.44921875 214.453125 C-246.72347656 215.16919922 -245.99773437 215.88527344 -245.25 216.62304688 C-241.83657139 219.96650324 -238.36964856 223.20966128 -234.74609375 226.32421875 C-229.11455188 231.19104335 -223.98314296 236.56201501 -218.765625 241.86328125 C-215.16985648 245.49401672 -211.57774919 249.06119857 -207.69921875 252.390625 C-202.07109118 257.22194886 -196.96485277 262.58059878 -191.765625 267.86328125 C-187.4649576 272.20577038 -183.10267373 276.3825343 -178.46777344 280.36669922 C-167.99013585 289.39505563 -158.61424476 299.907612 -157.51464844 314.307724 C-157.45900375 321.92413673 -158.51168317 329.15453948 -159.82421875 336.64453125 C-160.05009027 337.9729206 -160.27509915 339.30145687 -160.49931335 340.63012695 C-160.97620863 343.44693094 -161.45838945 346.26275508 -161.94491577 349.07791138 C-162.70744909 353.49223191 -163.45637645 357.90878951 -164.20239258 362.32592773 C-164.45471286 363.81917051 -164.70704749 365.31241086 -164.95939636 366.8056488 C-165.08453299 367.54620451 -165.20966961 368.28676022 -165.33859825 369.049757 C-165.71931437 371.30021108 -166.10114344 373.55047349 -166.48335266 375.80067444 C-168.65826689 388.60781622 -170.79355418 401.42097265 -172.86645508 414.24508667 C-173.21056292 416.36691682 -173.55752238 418.48828666 -173.9074707 420.60916138 C-174.39039199 423.53656502 -174.86434205 426.46528479 -175.3359375 429.39453125 C-175.4760173 430.23226074 -175.61609711 431.06999023 -175.76042175 431.93310547 C-177.47806015 442.62977994 -177.47806015 442.62977994 -174.69921875 452.828125 C-172.69921875 456.765625 -172.69921875 456.765625 -172.69921875 458.890625 C-172.16296875 459.138125 -171.62671875 459.385625 -171.07421875 459.640625 C-168.69921875 460.890625 -168.69921875 460.890625 -166.32421875 463.015625 C-161.0434123 466.47455323 -154.67202397 465.85301053 -148.69921875 464.890625 C-143.87784365 463.07939337 -139.51184772 460.72398454 -135.03662109 458.19140625 C-131.56555644 456.25973375 -128.02850759 454.46135155 -124.49584961 452.64550781 C-114.90708245 447.70649547 -105.42342106 442.58418397 -95.97021484 437.39160156 C-88.48055732 433.28837447 -80.91931307 429.33396794 -73.33544922 425.40820312 C-65.53707769 421.3593812 -57.82065759 417.17087211 -50.14257812 412.8984375 C-33.68773129 403.8112452 -33.68773129 403.8112452 -23.76171875 403.578125 C-22.74207031 403.54074219 -21.72242188 403.50335938 -20.671875 403.46484375 C-7.19322797 404.90945784 4.37628695 411.70096793 16.17578125 417.890625 C18.02262287 418.84941277 19.86995764 419.8072512 21.71777344 420.76416016 C26.15506782 423.0649958 30.58626037 425.37725585 35.01477051 427.69494629 C38.0319614 429.27306264 41.05288902 430.84388515 44.07421875 432.4140625 C47.63814355 434.26827284 51.19921963 436.12776603 54.7578125 437.9921875 C62.82190968 442.21418111 70.89964343 446.41053389 78.99414062 450.57397461 C79.59888214 450.8850264 80.20362366 451.19607819 80.82669067 451.51655579 C81.42013275 451.82175644 82.01357483 452.12695709 82.625 452.44140625 C86.56342111 454.46777942 90.48567643 456.51649661 94.3828125 458.62109375 C102.23041681 462.81682513 107.99936826 465.62303764 116.88671875 463.1796875 C123.48620914 460.91534622 126.96317296 458.29977233 130.26171875 452.078125 C133.84586518 443.92336981 132.43405516 435.10983397 130.83203125 426.6171875 C130.6761554 425.75182373 130.52027954 424.88645996 130.35968018 423.99487305 C129.84824685 421.16689592 129.324574 418.34133656 128.80078125 415.515625 C128.43832249 413.52407214 128.07668272 411.53237007 127.71582031 409.54052734 C126.77486642 404.35751984 125.82393074 399.17639463 124.87084961 393.99560547 C123.95047292 388.9826073 123.03965142 383.96788039 122.12890625 378.953125 C121.95460083 377.99427902 121.78029541 377.03543304 121.60070801 376.04753113 C120.74541486 371.34224507 119.89138219 366.63673379 119.0390625 361.9309082 C118.71492005 360.14272705 118.39070316 358.35455939 118.06640625 356.56640625 C117.91200073 355.71460281 117.75759521 354.86279938 117.59851074 353.98518372 C116.7272298 349.19216796 115.83078627 344.40493467 114.91015625 339.62109375 C108.97612532 308.36375862 108.97612532 308.36375862 118.06640625 294.125 C123.21860566 286.70096463 129.17774008 280.58539038 135.991745 274.70228577 C139.97057909 271.22263992 143.75534209 267.59036251 147.49536133 263.85717773 C148.16470703 263.19279694 148.83405273 262.52841614 149.52368164 261.84390259 C151.70863058 259.67340784 153.88980292 257.49917276 156.0703125 255.32421875 C156.82047827 254.57688036 157.57064404 253.82954197 158.3435421 253.05955696 C162.30489078 249.11312419 166.26341273 245.16388262 170.21948242 241.2121582 C174.29926148 237.13788657 178.38825308 233.07299253 182.47943592 229.01017666 C185.63374392 225.87449215 188.78132419 222.73211998 191.92709923 219.58787727 C193.43208249 218.08591613 194.93956118 216.58645104 196.4495945 215.08956718 C198.5579396 212.99829357 200.65659835 210.89774168 202.75317383 208.79467773 C203.3750206 208.18204575 203.99686737 207.56941376 204.63755798 206.93821716 C209.82408701 201.70129102 212.72909701 197.10181012 212.73828125 189.515625 C212.528557 181.83447417 210.6945018 176.92723948 205.17578125 171.578125 C201.59936769 168.71235949 197.91539056 167.74490939 193.54296875 166.58203125 C190.44883167 165.62791581 189.01715733 164.65175174 187.30078125 161.890625 C186.43653533 159.16624715 186.04591313 156.74514798 186.30078125 153.890625 C188.06542186 151.03069022 189.29643822 149.39279651 192.30078125 147.890625 C200.98543101 146.9074571 209.07589732 149.89437673 216.1484375 154.91015625 C224.34554005 161.96980264 231.46883682 170.76629143 232.48095703 181.86669922 C233.33735615 195.74404841 231.33214681 206.04184995 222.30078125 216.890625 C218.04555051 221.512575 213.54476024 225.90428988 209.08984375 230.33203125 C207.79442386 231.62625651 206.4993762 232.92085444 205.2046814 234.21580505 C202.49956584 236.91936302 199.79114607 239.61954991 197.08007812 242.31713867 C193.62319332 245.75704358 190.17291805 249.20348472 186.72489357 252.65226841 C184.0535913 255.32329737 181.37967996 257.99170158 178.70490646 260.65925407 C177.43260436 261.92839745 176.16088637 263.19812671 174.88978958 264.46847725 C163.18101796 276.16285009 163.18101796 276.16285009 156.89401245 281.52522278 C153.08462688 284.78987358 149.59752 288.40934186 146.05078125 291.953125 C145.261875 292.72978516 144.47296875 293.50644531 143.66015625 294.30664062 C137.15184026 300.79846595 132.21597382 305.95215985 131.98071289 315.54516602 C132.07393637 326.66879817 134.41802587 337.51088243 136.421875 348.41796875 C136.84655868 350.77995991 137.27012876 353.14215153 137.69264221 355.50453186 C138.80120414 361.68665575 139.92401541 367.86610405 141.0501709 374.04504395 C142.41751942 381.56242875 143.76788267 389.08287951 145.12094975 396.60284519 C146.17342598 402.45024877 147.228316 408.29718264 148.29063416 414.14280701 C148.48548904 415.21714493 148.68034393 416.29148285 148.88110352 417.39837646 C149.24320401 419.39405826 149.60629185 421.38956128 149.97059631 423.38484192 C152.71657334 438.53650892 154.15811089 451.96097336 145.55078125 465.765625 C138.64181361 475.19636582 128.98944679 481.51563159 117.43359375 483.609375 C101.33434252 485.73235318 88.16258365 478.22516448 74.42578125 470.953125 C72.57914929 469.98938255 70.73181266 469.02698917 68.88378906 468.06591797 C64.44502189 465.75387622 60.01446431 463.42664865 55.58679199 461.09344482 C52.57190919 459.50711772 49.5504397 457.93390012 46.52734375 456.36328125 C42.96306031 454.51103203 39.40168696 452.65347343 35.84375 450.7890625 C19.07302427 442.00867515 2.27734694 433.26738296 -14.69921875 424.890625 C-15.35921875 424.560625 -16.01921875 424.230625 -16.69921875 423.890625 C-18.83255466 423.61497063 -18.83255466 423.61497063 -21.26171875 423.578125 C-22.06738281 423.54074219 -22.87304688 423.50335938 -23.703125 423.46484375 C-32.75415251 424.75110451 -41.38607355 430.73027386 -49.38671875 434.890625 C-50.34121918 435.38533798 -50.34121918 435.38533798 -51.31500244 435.89004517 C-60.51700416 440.66054373 -69.65112107 445.54167354 -78.73120117 450.54101562 C-86.11872009 454.60091537 -93.58291789 458.50117678 -101.06884766 462.37597656 C-108.80726977 466.39357223 -116.4645633 470.54900381 -124.08007812 474.79492188 C-138.17745409 482.58586217 -151.17532178 487.93626871 -167.42578125 483.984375 C-179.51814432 479.56655617 -187.38330795 472.90172362 -192.98828125 461.19921875 C-197.16358589 451.12141511 -197.30149122 442.09828608 -195.4934082 431.45043945 C-195.36488968 430.65850693 -195.23637115 429.8665744 -195.10395813 429.05064392 C-194.68026466 426.4505666 -194.24646295 423.85228753 -193.8125 421.25390625 C-193.50998032 419.41059775 -193.20808741 417.56718629 -192.90678406 415.72367859 C-192.11113967 410.86637899 -191.30687077 406.01054585 -190.50079346 401.15496826 C-189.70030781 396.32358332 -188.90820387 391.49082623 -188.11523438 386.65820312 C-187.49397434 382.87752435 -186.87215167 379.09693839 -186.25 375.31640625 C-186.0974387 374.38935001 -185.9448774 373.46229378 -185.78769302 372.50714493 C-184.26456247 363.26023793 -182.72899788 354.01622079 -181.12646484 344.78271484 C-180.88793324 343.39677547 -180.64957989 342.0108054 -180.41142273 340.62480164 C-179.98305864 338.14211825 -179.54813941 335.66055144 -179.10481262 333.18049622 C-177.38390073 323.17225234 -175.87417899 313.78007617 -181.69921875 304.890625 C-184.73628189 301.28357682 -188.04585832 298.0251116 -191.44921875 294.765625 C-192.31804687 293.91097656 -193.186875 293.05632812 -194.08203125 292.17578125 C-197.88030969 288.46304962 -201.71836115 284.8301532 -205.74609375 281.3671875 C-211.34988049 276.53550942 -216.44624213 271.18779065 -221.6328125 265.91796875 C-225.21827934 262.29763513 -228.79863767 258.73955446 -232.66796875 255.421875 C-238.53609235 250.38453261 -243.85405237 244.77889996 -249.27734375 239.2734375 C-254.24831402 234.25672211 -259.30956835 229.4544601 -264.69921875 224.890625 C-272.17197423 218.53369346 -276.61260466 210.15046727 -279.69921875 200.890625 C-280.58871264 186.54206775 -279.40412808 174.27398871 -269.69921875 162.890625 C-261.70971148 155.40509407 -253.38251708 151.58736651 -242.66723633 149.86352539 C-241.7110909 149.69998849 -240.75494547 149.53645159 -239.76982594 149.36795902 C-236.74885028 148.85804192 -233.72513954 148.37027141 -230.69921875 147.890625 C-229.74886623 147.73964733 -228.79851372 147.58866966 -227.81936264 147.43311691 C-221.98899414 146.51622829 -216.15292851 145.6409467 -210.3138485 144.78146172 C-207.11233059 144.3096881 -203.91165213 143.83253843 -200.71113586 143.35401917 C-191.63089568 141.99703907 -182.5496289 140.64708617 -173.46704102 139.3059082 C-167.86448181 138.47822923 -162.26314278 137.64267785 -156.66248512 136.80223274 C-154.54635831 136.48627985 -152.42978326 136.17331309 -150.31274986 135.86349297 C-147.36058361 135.43128159 -144.41007103 134.98906641 -141.4597168 134.54467773 C-140.60091415 134.42148666 -139.74211151 134.29829559 -138.85728455 134.17137146 C-130.99681531 132.96796637 -122.8190439 131.21634026 -116.69921875 125.890625 C-114.61520685 122.85347842 -113.00976426 119.62975859 -111.38671875 116.328125 C-110.62911255 114.83200684 -110.62911255 114.83200684 -109.85620117 113.30566406 C-108.11504748 109.84469499 -106.40339521 106.36988162 -104.69921875 102.890625 C-104.38408325 102.24901428 -104.06894775 101.60740356 -103.7442627 100.9463501 C-99.47769303 92.25907091 -95.25482516 83.55099779 -91.0511322 74.83314514 C-88.4276815 69.3939061 -85.79182415 63.9608265 -83.1484375 58.53125 C-82.77675949 57.76749054 -82.40508148 57.00373108 -82.0221405 56.21682739 C-80.5518434 53.19569536 -79.08141912 50.17462739 -77.60910034 47.15447998 C-73.88976229 39.5239144 -70.21158645 31.88332895 -66.67724609 24.16479492 C-63.4194173 17.07876493 -60.20622795 10.55239792 -54.69921875 4.890625 C-54.15910156 4.33503906 -53.61898437 3.77945312 -53.0625 3.20703125 C-38.53612755 -10.37123298 -16.09673199 -10.87701501 0 0 Z " fill="#1D2041" transform="translate(279.69921875,17.109375)"/>
<path d="M0 0 C-0.14336159 2.45849884 -0.28965313 4.9167699 -0.4375 7.375 C-0.47681641 8.05433594 -0.51613281 8.73367187 -0.55664062 9.43359375 C-0.77971765 13.10578479 -1.08456054 16.74132787 -1.51953125 20.39453125 C-2.33048691 28.33808943 -2.24263829 36.3356585 -2.25 44.3125 C-2.25133942 45.16982727 -2.25267883 46.02715454 -2.25405884 46.91046143 C-2.24678469 68.50365728 -0.3636012 89.82686119 4 111 C4.25412969 112.33459289 4.50803047 113.66922938 4.76171875 115.00390625 C7.7930891 130.25132617 12.13265113 146.33376437 18.12646484 160.69995117 C19 163 19 163 19 166 C19.66 166 20.32 166 21 166 C21.268125 165.21625 21.53625 164.4325 21.8125 163.625 C23 161 23 161 26 159 C29.86362386 158.57070846 32.35065407 158.72368258 35.9375 160.25 C38.85338365 164.13784486 38.62707666 167.31756283 38.4296875 172.078125 C37.8298301 176.15715534 36.77887588 177.98293476 34 181 C31 183 31 183 27 183 C40.92519478 212.87165993 56.89095908 240.47004016 78.25 265.72265625 C80 268 80 268 81 271 C80.17725586 271.43642822 79.35451172 271.87285645 78.50683594 272.32250977 C74.58758425 274.40192976 70.66873215 276.48210114 66.75 278.5625 C65.67422699 279.13348419 65.67422699 279.13348419 64.57672119 279.71600342 C56.7534867 283.86893339 48.93388796 288.02822087 41.1328125 292.22265625 C40.51414307 292.55509842 39.89547363 292.88754059 39.25805664 293.23005676 C36.35905791 294.78815313 33.46129056 296.34842629 30.56542969 297.91235352 C27.38472672 299.62337747 24.19475781 301.31537741 21 303 C20.40582275 303.31773376 19.81164551 303.63546753 19.19946289 303.96282959 C17.35514713 304.9455234 15.50297733 305.91176489 13.6484375 306.875 C11.99980713 307.74125 11.99980713 307.74125 10.31787109 308.625 C4.54008516 311.01944374 -0.91050746 311.26440537 -7 310 C-13.40122055 307.17940941 -17.67633825 303.26234869 -20.37890625 296.796875 C-23.18511296 288.67828956 -21.88072451 280.95549419 -20.47119141 272.62182617 C-20.30859329 271.62541611 -20.14599518 270.62900604 -19.97846985 269.60240173 C-19.44296802 266.33143148 -18.89734131 263.06223853 -18.3515625 259.79296875 C-17.97458626 257.50297626 -17.59824353 255.2128794 -17.22250366 252.92268372 C-16.23336237 246.90440468 -15.2356014 240.8875858 -14.23602295 234.87103271 C-13.22501693 228.7762146 -12.2222503 222.68004194 -11.21875 216.58398438 C-9.74604348 207.64405291 -8.26943798 198.70477942 -6.78759766 189.76635742 C-6.62683558 188.79459155 -6.46607349 187.82282568 -6.30043983 186.82161236 C-5.33494965 180.99158626 -4.35227331 175.16489639 -3.33041382 169.34443665 C-1.76191366 158.21521309 -3.80955653 148.36365647 -9.8046875 138.84375 C-15.86832612 130.98907221 -23.37220157 124.0928474 -30.8828125 117.63671875 C-36.5338627 112.74129234 -41.69250662 107.35255748 -46.93359375 102.02734375 C-50.52936227 98.39660828 -54.12146956 94.82942643 -58 91.5 C-63.62812757 86.66867614 -68.73436598 81.31002622 -73.93359375 76.02734375 C-78.21123002 71.70810972 -82.55013494 67.55767078 -87.16015625 63.59521484 C-104.09604423 48.91115273 -104.09604423 48.91115273 -105.4296875 38.71484375 C-105.80747801 31.65016112 -105.29885492 26.46392611 -100.83203125 20.8359375 C-91.99658841 11.98165576 -80.28205164 11.67089829 -68.4375 10.125 C-58.09367372 8.73906463 -47.79673451 7.19636489 -37.51025391 5.43676758 C-30.12961078 4.17618429 -22.73729296 3.02917666 -15.32788086 1.95092773 C-12.26419882 1.50279741 -9.23165247 1.04813977 -6.19921875 0.41796875 C-4 0 -4 0 0 0 Z " fill="#FDE470" transform="translate(124,173)"/>
<path d="M0 0 C4.08187671 0.57289498 5.68033728 1.61783728 8.5625 4.5 C13.11070599 13.59641199 6.22182401 31.72869536 4.26074219 41.09375 C3.55080443 44.55705477 2.88275819 48.02613684 2.2265625 51.5 C2.01032227 52.63083008 1.79408203 53.76166016 1.57128906 54.92675781 C1.15745603 57.09667121 0.75025317 59.26786253 0.35058594 61.44042969 C-1.45701606 70.77817742 -1.45701606 70.77817742 -4.4375 74.5 C-8.11964956 76.95476637 -11.16220215 77.30000543 -15.4375 76.5 C-17.9375 74.625 -17.9375 74.625 -19.4375 71.5 C-20.05614957 64.91083353 -19.14416815 58.55812951 -17.828125 52.1171875 C-17.66004333 51.25924591 -17.49196167 50.40130432 -17.31878662 49.5173645 C-16.96339738 47.71316729 -16.60349648 45.90985336 -16.23925781 44.10742188 C-15.69341371 41.40428593 -15.16188796 38.69864988 -14.6328125 35.9921875 C-13.61282454 30.81827547 -12.54326437 25.65623287 -11.4375 20.5 C-11.18359497 19.30896667 -11.18359497 19.30896667 -10.92456055 18.09387207 C-10.44217996 15.87298439 -9.93709027 13.65878598 -9.421875 11.4453125 C-8.99213379 9.56996826 -8.99213379 9.56996826 -8.55371094 7.65673828 C-6.84902641 2.83574726 -5.10825543 0.74301897 0 0 Z " fill="#FFFEFD" transform="translate(145.4375,370.5)"/>
<path d="M0 0 C4.12194118 0.93645591 6.50614707 2.32656418 9.0625 5.8125 C10.22555697 9.76689369 9.82889109 11.34221783 8 15 C5.81134296 17.72961762 4.67539419 18.87207018 1.1953125 19.53125 C-5.13502673 19.46681907 -9.24395547 19.3704193 -14 15 C-15.61827917 11.76344166 -15.56192191 8.49863286 -15 5 C-11.23651657 -1.02157349 -6.47098527 -0.90856267 0 0 Z " fill="#1E2141" transform="translate(452,161)"/>
<path d="M0 0 C2.9375 1.25 2.9375 1.25 5 4 C5.86674752 9.30692779 6.17593468 14.94543563 3.1875 19.625 C0.607186 22.42648377 -1.06927202 23.85836748 -4.875 24.4375 C-9.00845985 23.85881562 -10.34407545 22.1112259 -13 19 C-13.33 18.67 -13.66 18.34 -14 18 C-14.62889891 11.96257044 -13.16104544 7.19088064 -10 2 C-6.2626144 -0.4915904 -4.42668417 -0.45793285 0 0 Z " fill="#FFFEFA" transform="translate(157,332)"/>
</svg>
