<?xml version="1.0" encoding="UTF-8"?>
<svg version="1.1" xmlns="http://www.w3.org/2000/svg" width="512" height="512">
<path d="M0 0 C3.09931323 1.72472243 6.08105168 2.75208136 9.45703125 3.7734375 C22.7156363 8.21507019 31.27009787 15.69989907 37.62109375 28.05859375 C38.50087237 29.92302526 39.29812382 31.8268173 40.05078125 33.74609375 C42.38040727 37.49013557 45.401405 39.6101171 48.890625 42.26171875 C52.73977419 45.29970496 56.29316319 48.61005456 59.86499023 51.96557617 C62.61146751 54.56638718 62.61146751 54.56638718 65.80078125 56.55859375 C66.85265625 56.26984375 67.90453125 55.98109375 68.98828125 55.68359375 C87.08087905 50.91550841 105.13471329 54.39358742 121.48828125 62.87109375 C138.58829912 72.91147121 149.77385644 88.50172062 154.80078125 107.55859375 C158.91577801 125.86316868 155.94947147 144.84509832 146.54296875 160.953125 C138.72403227 172.64646723 138.72403227 172.64646723 133.51953125 176.05078125 C131.54805375 177.43600249 131.54805375 177.43600249 131.55859375 179.87890625 C131.67976563 180.80445313 131.8009375 181.73 131.92578125 182.68359375 C132.05637939 183.71693848 132.18697754 184.7502832 132.3215332 185.81494141 C132.63938729 188.29786276 132.96966931 190.77922674 133.31274414 193.25878906 C134.78246938 204.2552635 135.15680476 215.09792976 135.11328125 226.18359375 C135.11278778 227.05312683 135.11229431 227.92265991 135.11178589 228.81854248 C135.08621584 243.57567762 134.43891174 258.21750019 131.08203125 272.6484375 C130.77958249 275.77794206 131.32109168 278.19838034 132.13671875 281.21313477 C138.80128011 306.50546971 135.95740558 336.26545019 130.80078125 361.55859375 C130.59179199 362.61191895 130.38280273 363.66524414 130.16748047 364.75048828 C112.68276312 451.07391302 112.68276312 451.07391302 89.85546875 469.39453125 C84.36564442 472.50473591 79.23766471 472.86101692 73.09887695 472.87744141 C72.22203184 472.88747004 71.34518673 472.89749866 70.44177055 472.90783119 C67.45337397 472.93916387 64.46507463 472.95597745 61.4765625 472.97265625 C59.25897166 472.99185724 57.04138645 473.01171747 54.82380676 473.03216553 C48.58489038 473.08607981 42.34595753 473.12539539 36.10691071 473.16069794 C32.10875631 473.18361969 28.11062244 473.20909437 24.11248779 473.23516846 C3.79527472 473.36578589 -16.52206087 473.44872586 -36.83954644 473.52330196 C-44.61681614 473.55207684 -52.39407079 473.58394581 -60.17132568 473.61645508 C-89.05576715 473.73612425 -117.94014172 473.83096807 -146.82477856 473.88361931 C-149.51930435 473.8885799 -152.21383006 473.89358666 -154.90835571 473.89862061 C-155.57491133 473.899853 -156.24146696 473.9010854 -156.92822123 473.90235515 C-167.04940004 473.9214088 -177.17047737 473.95400441 -187.29159546 473.99346924 C-198.96810726 474.0389471 -210.64453606 474.06584776 -222.32114238 474.07070971 C-228.38741549 474.07372294 -234.45339047 474.08500925 -240.51958275 474.11763763 C-246.14726543 474.14761547 -251.77448229 474.15411718 -257.402228 474.1423862 C-259.4506537 474.14219167 -261.49910135 474.15048138 -263.54745138 474.16809011 C-283.98273691 474.33429124 -283.98273691 474.33429124 -291.19921875 468.55859375 C-296.25278532 463.42792286 -298.52608826 457.86341191 -300.4921875 451.03125 C-300.77764938 450.08895035 -301.06311127 449.1466507 -301.35722351 448.17579651 C-302.32145453 444.97485607 -303.26057266 441.76712342 -304.19921875 438.55859375 C-304.91129926 436.16621412 -305.6243906 433.77413517 -306.33837891 431.38232422 C-308.53918448 423.98386763 -310.71100787 416.57711274 -312.87664413 409.16829681 C-314.62464375 403.18945586 -316.37624381 397.21166769 -318.12791634 391.23390198 C-318.5769536 389.70139518 -319.02587074 388.16885319 -319.4746685 386.63627625 C-322.56124925 376.09788034 -325.67965651 365.56948961 -328.82902718 355.04969215 C-330.08534092 350.8506109 -331.33716164 346.65018707 -332.589324 342.44986629 C-333.57899913 339.13207921 -334.57210407 335.815395 -335.57290649 332.50094604 C-336.67911014 328.83242819 -337.77423533 325.16076505 -338.8671875 321.48828125 C-339.35480057 319.88804359 -339.35480057 319.88804359 -339.8522644 318.25547791 C-344.61903408 302.12098015 -344.61903408 302.12098015 -342.01171875 294.24609375 C-341.77066406 293.46621094 -341.52960938 292.68632812 -341.28125 291.8828125 C-340.19921875 289.55859375 -340.19921875 289.55859375 -338.078125 287.16015625 C-335.67770598 283.83649915 -335.79473079 282.26538873 -336.32421875 278.24609375 C-337.31414049 272.93868202 -338.61674155 270.57791222 -342.94921875 267.37109375 C-343.84125 266.76136719 -344.73328125 266.15164063 -345.65234375 265.5234375 C-351.33607043 261.13859928 -354.30045455 254.34017432 -356.19921875 247.55859375 C-356.48675311 244.69603947 -356.50339462 241.8519578 -356.5 238.9765625 C-356.50642769 237.75614006 -356.50642769 237.75614006 -356.51298523 236.51106262 C-356.51870658 234.79571458 -356.51924504 233.08034229 -356.51489258 231.36499023 C-356.51174091 228.76438145 -356.53518967 226.16492089 -356.56054688 223.56445312 C-356.56282119 221.88932433 -356.56352275 220.21419252 -356.5625 218.5390625 C-356.57631462 217.39016792 -356.57631462 217.39016792 -356.59040833 216.21806335 C-356.52766509 208.75648818 -354.7316919 201.73744516 -349.94921875 195.87109375 C-349.4078125 195.18660156 -348.86640625 194.50210938 -348.30859375 193.796875 C-346.19921875 191.55859375 -346.19921875 191.55859375 -344.50976562 190.37866211 C-338.27928806 185.89825428 -337.52146893 180.79313263 -336.19921875 173.49609375 C-335.71066315 171.14165238 -335.21446116 168.78878575 -334.7109375 166.4375 C-334.46263184 165.27105957 -334.21432617 164.10461914 -333.95849609 162.90283203 C-325.92646691 127.52574658 -306.19263728 94.41851961 -282.19921875 67.55859375 C-281.71984863 67.01750977 -281.24047852 66.47642578 -280.74658203 65.91894531 C-240.42708626 20.58776148 -182.18998016 -7.71542141 -121.6640625 -12.16796875 C-108.43858442 -12.93572621 -95.08087916 -12.97937007 -81.88671875 -11.75390625 C-77.2580095 -11.37076924 -73.72881634 -11.63091815 -69.26171875 -12.87890625 C-45.24176193 -19.27633001 -20.6533811 -12.45631934 0 0 Z " fill="#FECFC3" transform="translate(356.19921875,26.44140625)"/>
<path d="M0 0 C0.68835938 -0.020625 1.37671875 -0.04125 2.0859375 -0.0625 C6.97460986 -0.10054414 6.97460986 -0.10054414 9.15576172 1.35473633 C11.11963488 4.12363341 11.12512599 6.53733433 11.4140625 9.90234375 C11.47403412 10.55771622 11.53400574 11.21308868 11.59579468 11.88832092 C11.78484301 13.98715555 11.95516775 16.08703208 12.125 18.1875 C12.24616771 19.56586372 12.36855189 20.94412108 12.4921875 22.32226562 C12.73198374 25.02227272 12.96292679 27.72277881 13.18481445 30.42431641 C13.38543381 32.85940964 13.59168238 35.29405047 13.80541992 37.72802734 C13.89670166 38.77297363 13.9879834 39.81791992 14.08203125 40.89453125 C14.20155151 42.24768433 14.20155151 42.24768433 14.32348633 43.62817383 C14.60717029 47.84184203 14.56208233 52.0284015 14.5 56.25 C17.47 54.93 20.44 53.61 23.5 52.25 C22.84 54.56 22.18 56.87 21.5 59.25 C22.29470703 59.57162109 23.08941406 59.89324219 23.90820312 60.22460938 C47.95630231 69.98588183 70.01499222 80.56857802 91.5 95.25 C94.14752004 92.67215154 96.44432065 90.33351902 98.5 87.25 C99.16 87.25 99.82 87.25 100.5 87.25 C101.75390625 89 101.75390625 89 103.0625 91.25 C103.85098346 92.59767499 104.6577449 93.93526034 105.5 95.25 C105.83 95.25 106.16 95.25 106.5 95.25 C106.51030746 94.6465979 106.52061493 94.0431958 106.53123474 93.42150879 C106.64060626 87.06070915 106.7550733 80.70001481 106.87231445 74.33935547 C106.91525084 71.97512037 106.95694869 69.61086241 106.99731445 67.24658203 C107.22052482 54.22322137 107.49366337 41.23976856 108.5 28.25 C112.09131597 29.36225608 115.22900272 30.48348903 118.35546875 32.578125 C119.39864258 33.27264771 119.39864258 33.27264771 120.46289062 33.98120117 C121.56407227 34.73300659 121.56407227 34.73300659 122.6875 35.5 C123.85249023 36.2875769 123.85249023 36.2875769 125.04101562 37.09106445 C148.9145723 53.36436254 148.9145723 53.36436254 159.19921875 63.08984375 C161.19202515 64.96084874 163.22279682 66.75449294 165.2890625 68.54296875 C192.8729889 92.61126529 216.12670414 123.45154946 218.6953125 161.11376953 C220.19895085 198.19725031 210.87057048 234.637244 198.6875 269.375 C198.45513641 270.04191864 198.22277283 270.70883728 197.98336792 271.39596558 C193.3588 284.59559704 187.89201131 297.30917286 182.5 310.25 C150.49 310.25 118.48 310.25 85.5 310.25 C87.74615385 297.89615385 87.74615385 297.89615385 88.71875 293.75 C88.92886719 292.8425 89.13898438 291.935 89.35546875 291 C89.78515625 289.16666667 90.21484375 287.33333333 90.64453125 285.5 C93.69725667 272.31522271 95.59985805 263.92928603 89.375 251.5625 C84.70054141 242.02630331 80.99002104 232.27118583 77.5 222.25 C74.17502897 222.25 72.09860697 223.0171928 69 224.1875 C63.96176143 226.07683946 59.91975686 227.42183043 54.5 227.5 C52.9221875 227.53867187 52.9221875 227.53867187 51.3125 227.578125 C46.171026 227.13562109 41.42997931 225.72765655 36.5 224.25 C36.68062988 224.88687744 36.86125977 225.52375488 37.04736328 226.17993164 C40.30788193 237.69679206 43.52661232 249.21780768 46.5 260.8125 C49.07948004 270.85233496 51.9416077 280.79634951 54.88671875 290.734375 C56.00854132 294.55305632 57.12393441 298.37326411 58.20703125 302.203125 C58.45557861 303.07614258 58.70412598 303.94916016 58.96020508 304.84863281 C59.5 307.25 59.5 307.25 59.5 311.25 C-20.69 311.25 -100.88 311.25 -183.5 311.25 C-185.53661613 306.49789569 -187.03118484 302.69350977 -188.25 297.8125 C-191.87252351 283.69272466 -196.08632642 269.71733426 -200.41796875 255.80078125 C-203.53397761 245.57532258 -206.45599278 235.28999567 -209.43652344 225.02441406 C-213.38163797 211.36134069 -213.38163797 211.36134069 -217.5 197.75 C-219.42858255 191.53661014 -221.28399537 185.30229849 -223.125 179.0625 C-223.57746094 177.5465625 -223.57746094 177.5465625 -224.0390625 176 C-224.3278125 175.01644531 -224.6165625 174.03289062 -224.9140625 173.01953125 C-225.1713916 172.14917236 -225.4287207 171.27881348 -225.69384766 170.38208008 C-226.40668146 167.61256316 -226.99606549 164.85862684 -227.55038452 162.054245 C-227.72873526 161.15438212 -227.90708599 160.25451925 -228.09084129 159.32738781 C-228.22586367 158.64184983 -228.36088604 157.95631186 -228.5 157.25 C-210.87222752 156.35744615 -193.23803312 155.82510967 -175.59540224 155.34088969 C-171.67435136 155.23285406 -167.75336305 155.12259086 -163.83236694 155.0125885 C-156.445371 154.80567474 -149.05832282 154.60069387 -141.67125261 154.39645058 C-133.24522494 154.16338399 -124.81925971 153.9280969 -116.39329839 153.69264591 C-99.09559939 153.20933598 -81.79782604 152.72874104 -64.5 152.25 C-64.41926743 151.59744736 -64.33853485 150.94489471 -64.25535583 150.27256775 C-63.88174206 147.27358318 -63.50146351 144.27547863 -63.12109375 141.27734375 C-62.99424194 140.25104858 -62.86739014 139.22475342 -62.73669434 138.1673584 C-61.13533744 125.63380527 -58.60226151 113.90339227 -51.5 103.25 C-50.59435749 93.61117994 -51.91322998 83.73491031 -52.8125 74.125 C-52.94794298 72.63266689 -53.08319399 71.14031634 -53.21826172 69.64794922 C-54.18018194 59.14359375 -55.27665419 48.65686664 -56.49731445 38.17919922 C-57.56110154 29.03107019 -58.60094924 19.84130521 -58.75 10.625 C-58.78867187 9.15160156 -58.78867187 9.15160156 -58.828125 7.6484375 C-58.66570312 6.46121094 -58.66570312 6.46121094 -58.5 5.25 C-54.85858368 2.82238912 -51.94544383 2.82593557 -47.71875 2.65234375 C-46.95002563 2.61315323 -46.18130127 2.57396271 -45.38928223 2.53358459 C-42.92652305 2.40959 -40.46339607 2.29804935 -38 2.1875 C-34.78107341 2.03347058 -31.56240176 1.87450074 -28.34375 1.71484375 C-27.56592163 1.67722931 -26.78809326 1.63961487 -25.98669434 1.6008606 C-20.91996533 1.34803831 -15.8831375 0.95355553 -10.83398438 0.45727539 C-7.22178616 0.13648498 -3.62491877 0.02843074 0 0 Z " fill="#8F8EEE" transform="translate(258.5,174.75)"/>
<path d="M0 0 C0.90844666 -0.00911407 1.81689331 -0.01822815 2.75286865 -0.02761841 C3.57739532 -0.03756332 4.401922 -0.04750824 5.25143433 -0.05775452 C7.17816162 0.0463562 7.17816162 0.0463562 8.17816162 1.0463562 C8.84921255 5.40818722 7.80338742 8.08195925 5.80316162 11.8588562 C2.14503178 18.85386369 1.03668464 24.15304109 1.50726318 32.07809448 C1.95865318 41.05506223 1.95865318 41.05506223 -0.57183838 44.26901245 C-2.93515732 45.82992074 -5.22116463 46.92795159 -7.82183838 48.0463562 C-10.18030851 49.3391746 -12.49758761 50.69220275 -14.82183838 52.0463562 C-14.1972876 52.08486694 -13.57273682 52.12337769 -12.92926025 52.16305542 C5.06260387 53.44485921 5.06260387 53.44485921 10.10394287 57.26119995 C11.99066162 59.8588562 11.99066162 59.8588562 13.58831787 62.54244995 C15.79961746 66.02511097 18.59605957 67.64030356 22.10003662 69.6947937 C26.56555995 72.59906263 28.61392111 75.30862562 30.05316162 80.4213562 C30.38316162 81.5763562 30.71316162 82.7313562 31.05316162 83.9213562 C31.42885264 85.29616755 31.8037952 86.67118356 32.17816162 88.0463562 C32.6361152 89.69229524 33.09447303 91.33812184 33.55316162 92.9838562 C36.23361979 102.66732117 38.79086513 112.38059277 41.30316162 122.1088562 C43.13922395 129.2155461 45.08388591 136.2472321 47.29925537 143.24557495 C48.22268413 146.1882346 49.09168111 149.14032303 49.92816162 152.1088562 C50.17050537 152.96608276 50.41284912 153.82330933 50.66253662 154.70651245 C51.17816162 157.0463562 51.17816162 157.0463562 51.17816162 161.0463562 C-29.01183838 161.0463562 -109.20183838 161.0463562 -191.82183838 161.0463562 C-193.85845451 156.29425189 -195.35302322 152.48986597 -196.57183838 147.6088562 C-200.19436189 133.48908086 -204.4081648 119.51369046 -208.73980713 105.59713745 C-211.85581599 95.37167878 -214.77783116 85.08635187 -217.75836182 74.82077026 C-221.70347635 61.15769689 -221.70347635 61.15769689 -225.82183838 47.5463562 C-227.75042093 41.33296634 -229.60583374 35.09865469 -231.44683838 28.8588562 C-231.89929932 27.3429187 -231.89929932 27.3429187 -232.36090088 25.7963562 C-232.64965088 24.81280151 -232.93840088 23.82924683 -233.23590088 22.81588745 C-233.49322998 21.94552856 -233.75055908 21.07516968 -234.01568604 20.17843628 C-234.72851984 17.40891936 -235.31790387 14.65498304 -235.8722229 11.8506012 C-236.05057364 10.95073833 -236.22892437 10.05087545 -236.41267967 9.12374401 C-236.54770205 8.43820603 -236.68272442 7.75266806 -236.82183838 7.0463562 C-219.4572079 6.16838304 -202.08708931 5.64086401 -184.70759821 5.17017746 C-180.86183406 5.06550253 -177.01614078 4.95828534 -173.17044067 4.85128784 C-164.25234352 4.6035434 -155.33417166 4.35856174 -146.41598511 4.11405945 C-135.07324087 3.80304488 -123.73051979 3.49123268 -112.38789451 3.17590618 C-108.58687259 3.07032262 -104.78583445 2.9654318 -100.98474503 2.86230469 C-85.24213887 2.43510225 -69.50649996 1.94311152 -53.77267456 1.25610352 C-48.10542151 1.0104287 -42.43859625 0.84133572 -36.76715088 0.72994995 C-35.32213699 0.69877831 -35.32213699 0.69877831 -33.84793091 0.66697693 C-31.8677406 0.62472838 -29.88752595 0.58360409 -27.9072876 0.54367065 C-24.89827139 0.48287493 -21.88935583 0.41819744 -18.88043213 0.35299683 C-16.92600969 0.31176053 -14.97158275 0.27073678 -13.01715088 0.22994995 C-12.13785919 0.21121323 -11.2585675 0.1924765 -10.35263062 0.173172 C-6.9019013 0.10440978 -3.45093797 0.05669084 0 0 Z " fill="#401A49" transform="translate(266.82183837890625,324.9536437988281)"/>
<path d="M0 0 C3.09931323 1.72472243 6.08105168 2.75208136 9.45703125 3.7734375 C22.7156363 8.21507019 31.27009787 15.69989907 37.62109375 28.05859375 C38.50087237 29.92302526 39.29812382 31.8268173 40.05078125 33.74609375 C42.38040727 37.49013557 45.401405 39.6101171 48.890625 42.26171875 C52.73977419 45.29970496 56.29316319 48.61005456 59.86499023 51.96557617 C62.61146751 54.56638718 62.61146751 54.56638718 65.80078125 56.55859375 C66.85265625 56.26984375 67.90453125 55.98109375 68.98828125 55.68359375 C87.08087905 50.91550841 105.13471329 54.39358742 121.48828125 62.87109375 C138.58829912 72.91147121 149.77385644 88.50172062 154.80078125 107.55859375 C158.91577801 125.86316868 155.94947147 144.84509832 146.54296875 160.953125 C138.72403227 172.64646723 138.72403227 172.64646723 133.51953125 176.05078125 C131.54805375 177.43600249 131.54805375 177.43600249 131.55859375 179.87890625 C131.67976563 180.80445313 131.8009375 181.73 131.92578125 182.68359375 C132.05637939 183.71693848 132.18697754 184.7502832 132.3215332 185.81494141 C132.63938729 188.29786276 132.96966931 190.77922674 133.31274414 193.25878906 C134.78246938 204.2552635 135.15680476 215.09792976 135.11328125 226.18359375 C135.11278778 227.05312683 135.11229431 227.92265991 135.11178589 228.81854248 C135.08621584 243.57567762 134.43891174 258.21750019 131.08203125 272.6484375 C130.77958249 275.77794206 131.32109168 278.19838034 132.13671875 281.21313477 C138.80128011 306.50546971 135.95740558 336.26545019 130.80078125 361.55859375 C130.59179199 362.61191895 130.38280273 363.66524414 130.16748047 364.75048828 C112.68276312 451.07391302 112.68276312 451.07391302 89.85546875 469.39453125 C84.36564442 472.50473591 79.23766471 472.86101692 73.09887695 472.87744141 C72.22203184 472.88747004 71.34518673 472.89749866 70.44177055 472.90783119 C67.45337397 472.93916387 64.46507463 472.95597745 61.4765625 472.97265625 C59.25897166 472.99185724 57.04138645 473.01171747 54.82380676 473.03216553 C48.58489038 473.08607981 42.34595753 473.12539539 36.10691071 473.16069794 C32.10875631 473.18361969 28.11062244 473.20909437 24.11248779 473.23516846 C3.79527472 473.36578589 -16.52206087 473.44872586 -36.83954644 473.52330196 C-44.61681614 473.55207684 -52.39407079 473.58394581 -60.17132568 473.61645508 C-89.05576715 473.73612425 -117.94014172 473.83096807 -146.82477856 473.88361931 C-149.51930435 473.8885799 -152.21383006 473.89358666 -154.90835571 473.89862061 C-155.57491133 473.899853 -156.24146696 473.9010854 -156.92822123 473.90235515 C-167.04940004 473.9214088 -177.17047737 473.95400441 -187.29159546 473.99346924 C-198.96810726 474.0389471 -210.64453606 474.06584776 -222.32114238 474.07070971 C-228.38741549 474.07372294 -234.45339047 474.08500925 -240.51958275 474.11763763 C-246.14726543 474.14761547 -251.77448229 474.15411718 -257.402228 474.1423862 C-259.4506537 474.14219167 -261.49910135 474.15048138 -263.54745138 474.16809011 C-283.98273691 474.33429124 -283.98273691 474.33429124 -291.19921875 468.55859375 C-296.25278532 463.42792286 -298.52608826 457.86341191 -300.4921875 451.03125 C-300.77764938 450.08895035 -301.06311127 449.1466507 -301.35722351 448.17579651 C-302.32145453 444.97485607 -303.26057266 441.76712342 -304.19921875 438.55859375 C-304.91129926 436.16621412 -305.6243906 433.77413517 -306.33837891 431.38232422 C-308.53918448 423.98386763 -310.71100787 416.57711274 -312.87664413 409.16829681 C-314.62464375 403.18945586 -316.37624381 397.21166769 -318.12791634 391.23390198 C-318.5769536 389.70139518 -319.02587074 388.16885319 -319.4746685 386.63627625 C-322.56124925 376.09788034 -325.67965651 365.56948961 -328.82902718 355.04969215 C-330.08534092 350.8506109 -331.33716164 346.65018707 -332.589324 342.44986629 C-333.57899913 339.13207921 -334.57210407 335.815395 -335.57290649 332.50094604 C-336.67911014 328.83242819 -337.77423533 325.16076505 -338.8671875 321.48828125 C-339.35480057 319.88804359 -339.35480057 319.88804359 -339.8522644 318.25547791 C-344.61903408 302.12098015 -344.61903408 302.12098015 -342.01171875 294.24609375 C-341.77066406 293.46621094 -341.52960938 292.68632812 -341.28125 291.8828125 C-340.19921875 289.55859375 -340.19921875 289.55859375 -338.078125 287.16015625 C-335.67770598 283.83649915 -335.79473079 282.26538873 -336.32421875 278.24609375 C-337.31414049 272.93868202 -338.61674155 270.57791222 -342.94921875 267.37109375 C-343.84125 266.76136719 -344.73328125 266.15164063 -345.65234375 265.5234375 C-351.33607043 261.13859928 -354.30045455 254.34017432 -356.19921875 247.55859375 C-356.48675311 244.69603947 -356.50339462 241.8519578 -356.5 238.9765625 C-356.50642769 237.75614006 -356.50642769 237.75614006 -356.51298523 236.51106262 C-356.51870658 234.79571458 -356.51924504 233.08034229 -356.51489258 231.36499023 C-356.51174091 228.76438145 -356.53518967 226.16492089 -356.56054688 223.56445312 C-356.56282119 221.88932433 -356.56352275 220.21419252 -356.5625 218.5390625 C-356.57631462 217.39016792 -356.57631462 217.39016792 -356.59040833 216.21806335 C-356.52766509 208.75648818 -354.7316919 201.73744516 -349.94921875 195.87109375 C-349.4078125 195.18660156 -348.86640625 194.50210938 -348.30859375 193.796875 C-346.19921875 191.55859375 -346.19921875 191.55859375 -344.50976562 190.37866211 C-338.27928806 185.89825428 -337.52146893 180.79313263 -336.19921875 173.49609375 C-335.71066315 171.14165238 -335.21446116 168.78878575 -334.7109375 166.4375 C-334.46263184 165.27105957 -334.21432617 164.10461914 -333.95849609 162.90283203 C-325.92646691 127.52574658 -306.19263728 94.41851961 -282.19921875 67.55859375 C-281.71984863 67.01750977 -281.24047852 66.47642578 -280.74658203 65.91894531 C-240.42708626 20.58776148 -182.18998016 -7.71542141 -121.6640625 -12.16796875 C-108.43858442 -12.93572621 -95.08087916 -12.97937007 -81.88671875 -11.75390625 C-77.2580095 -11.37076924 -73.72881634 -11.63091815 -69.26171875 -12.87890625 C-45.24176193 -19.27633001 -20.6533811 -12.45631934 0 0 Z M-61.67480469 3.06958008 C-67.97927753 5.02149315 -74.00501198 4.90081497 -80.5546875 4.78125 C-81.81452957 4.77226181 -83.07437164 4.76327362 -84.37239075 4.75401306 C-87.70245378 4.72919884 -91.03187042 4.69248152 -94.36169434 4.64801025 C-117.89133069 3.95108311 -117.89133069 3.95108311 -141.19921875 6.55859375 C-142.2363501 6.76154053 -143.27348145 6.9644873 -144.34204102 7.17358398 C-175.09754844 13.61553379 -204.52969342 25.21395822 -230.19921875 43.55859375 C-231.25625 44.30496094 -232.31328125 45.05132812 -233.40234375 45.8203125 C-250.9221292 58.59324508 -266.99744048 73.39463113 -279.92431641 90.83935547 C-281.16192855 92.50830697 -282.41975694 94.16036928 -283.6796875 95.8125 C-299.40304854 116.76553335 -311.50541421 141.21943697 -318.19921875 166.55859375 C-318.52164551 167.75234619 -318.52164551 167.75234619 -318.85058594 168.97021484 C-319.55105729 171.59873111 -320.22365402 174.23290646 -320.88671875 176.87109375 C-321.08950439 177.65178223 -321.29229004 178.4324707 -321.5012207 179.23681641 C-322.94709748 185.25818382 -323.65113363 191.27669472 -324.26879883 197.42651367 C-324.35916664 198.30616539 -324.44953445 199.18581711 -324.54264069 200.09212494 C-324.76373187 202.24738676 -324.98178227 204.40296015 -325.19921875 206.55859375 C-324.52353505 206.56006031 -323.84785135 206.56152687 -323.15169239 206.56303787 C-306.70975441 206.60009177 -290.26805643 206.65908743 -273.82629108 206.74249649 C-265.87515741 206.78230361 -257.92412296 206.81468755 -249.97290039 206.82958984 C-243.04249036 206.84259776 -236.11229848 206.86954018 -229.18201131 206.91320682 C-225.51252007 206.9358413 -221.84329809 206.95150326 -218.17373085 206.9504776 C-214.07685591 206.94959362 -209.98077634 206.97981939 -205.8840332 207.01269531 C-204.6677121 207.00766495 -203.45139099 207.00263458 -202.19821167 206.99745178 C-193.97548042 207.0998205 -193.97548042 207.0998205 -189.96891785 209.4677124 C-187.43102275 212.46620945 -187.0718745 214.08160443 -187.06640625 217.92578125 C-187.06423096 218.80621094 -187.06205566 219.68664062 -187.05981445 220.59375 C-187.06456787 221.53089844 -187.06932129 222.46804687 -187.07421875 223.43359375 C-187.07832764 224.38363281 -187.08243652 225.33367187 -187.08666992 226.3125 C-187.24274784 245.99510021 -187.24274784 245.99510021 -191.19921875 251.55859375 C-194.27961728 253.61219277 -194.99406573 253.81598109 -198.48706055 253.87744141 C-199.77805916 253.90724594 -199.77805916 253.90724594 -201.09513855 253.93765259 C-202.48277153 253.9549794 -202.48277153 253.9549794 -203.8984375 253.97265625 C-204.84862259 253.9920224 -205.79880768 254.01138855 -206.77778625 254.03134155 C-209.81400565 254.09114287 -212.85026294 254.13752504 -215.88671875 254.18359375 C-217.94467803 254.22177301 -220.00262133 254.26082471 -222.06054688 254.30078125 C-227.10668786 254.39848789 -232.1526576 254.47805224 -237.19921875 254.55859375 C-237.19921875 266.43859375 -237.19921875 278.31859375 -237.19921875 290.55859375 C-241.15921875 278.34859375 -245.11921875 266.13859375 -249.19921875 253.55859375 C-256.66582607 253.41441099 -264.13243835 253.2714373 -271.59912109 253.13134766 C-274.13005844 253.08352145 -276.66098348 253.03503825 -279.19189453 252.98583984 C-294.19628973 252.69466544 -309.19184083 252.48018074 -324.19921875 252.55859375 C-323.16357731 270.98970117 -318.43316374 288.27515639 -312.19921875 305.55859375 C-316.81921875 305.55859375 -321.43921875 305.55859375 -326.19921875 305.55859375 C-324.72125003 314.02332369 -322.3432927 322.14464122 -319.86376953 330.35595703 C-318.83875168 333.75335271 -317.82892182 337.1551415 -316.82421875 340.55859375 C-316.6240918 341.2350293 -316.42396484 341.91146484 -316.21777344 342.60839844 C-314.93146215 346.98424256 -313.6890262 351.37089602 -312.46875 355.765625 C-312.01411377 357.40241211 -312.01411377 357.40241211 -311.55029297 359.07226562 C-310.9591376 361.20687048 -310.37073674 363.34224091 -309.78564453 365.47851562 C-308.37060406 370.59272348 -306.8640756 375.64589687 -305.16015625 380.671875 C-303.33959913 386.04262777 -301.81933515 391.44871954 -300.38671875 396.93359375 C-298.1118832 405.47009006 -295.55215214 413.87507199 -292.81420898 422.27319336 C-290.36321295 429.86265126 -288.23513445 437.51892691 -286.24023438 445.24023438 C-286.01529297 446.09681641 -285.79035156 446.95339844 -285.55859375 447.8359375 C-285.36749023 448.58093506 -285.17638672 449.32593262 -284.97949219 450.09350586 C-283.95426139 453.33247813 -282.53750352 456.43592928 -281.19921875 459.55859375 C-201.00921875 459.55859375 -120.81921875 459.55859375 -38.19921875 459.55859375 C-38.89660894 453.24241828 -38.89660894 453.24241828 -40.36328125 447.3515625 C-40.59474854 446.61405762 -40.82621582 445.87655273 -41.06469727 445.11669922 C-41.31533936 444.33439941 -41.56598145 443.55209961 -41.82421875 442.74609375 C-44.3745743 434.53149466 -46.63125596 426.26658855 -48.76171875 417.93359375 C-51.44819174 407.43706045 -54.23482339 396.97989759 -57.19921875 386.55859375 C-57.39676758 385.8629834 -57.59431641 385.16737305 -57.79785156 384.45068359 C-58.92516701 380.48478416 -60.05897035 376.52079768 -61.19921875 372.55859375 C-60.23435547 372.8834375 -60.23435547 372.8834375 -59.25 373.21484375 C-45.65565789 377.40368526 -33.79542732 376.13826035 -21.19921875 369.55859375 C-20.81443359 370.49251953 -20.81443359 370.49251953 -20.421875 371.4453125 C-17.53403447 378.41696793 -14.5951556 385.36663963 -11.63671875 392.30859375 C-11.2610376 393.19506592 -10.88535645 394.08153809 -10.49829102 394.99487305 C-10.13018311 395.85636963 -9.7620752 396.71786621 -9.3828125 397.60546875 C-9.02429199 398.44787109 -8.66577148 399.29027344 -8.29638672 400.15820312 C-7.26742566 402.40937027 -6.09344075 404.49392705 -4.859375 406.63671875 C-2.57644405 411.16571344 -3.19368881 414.71647681 -4.19921875 419.55859375 C-4.3703418 420.47205566 -4.54146484 421.38551758 -4.71777344 422.32666016 C-5.30140788 425.34980623 -5.93115152 428.36005674 -6.57421875 431.37109375 C-6.90812622 432.95796997 -6.90812622 432.95796997 -7.2487793 434.5769043 C-8.59615895 440.92087794 -10.02475535 447.22314616 -11.71875 453.484375 C-12.31205044 455.69083989 -12.31205044 455.69083989 -12.19921875 458.55859375 C19.81078125 458.55859375 51.82078125 458.55859375 84.80078125 458.55859375 C93.5263772 437.39915388 93.5263772 437.39915388 101.55078125 415.99609375 C101.7734668 415.36679962 101.99615234 414.73750549 102.22558594 414.08914185 C106.80369148 401.10365057 110.54885583 387.93673647 113.80078125 374.55859375 C113.97544922 373.85009277 114.15011719 373.1415918 114.33007812 372.41162109 C121.28372115 343.79872304 125.27967682 310.99528045 115.80078125 282.55859375 C115.50571999 277.03848929 116.17230729 272.15547684 117.22436523 266.74536133 C123.53118204 233.24523866 121.42230762 197.15008822 111.80078125 164.55859375 C112.52652344 164.45546875 113.25226563 164.35234375 114 164.24609375 C122.47417291 162.16596205 129.93333825 154.52101757 134.80078125 147.55859375 C141.90450857 134.24877786 144.30852479 120.76141069 140.96484375 105.82421875 C139.79602008 102.85901508 138.4726927 100.27035257 136.80078125 97.55859375 C136.23101562 96.60855469 135.66125 95.65851563 135.07421875 94.6796875 C127.96994762 83.93557375 117.44555345 76.35146137 104.80078125 73.55859375 C92.80006461 72.16769457 82.60673354 72.92515891 71.80078125 78.55859375 C69.81157488 79.25680753 67.81357434 79.93161017 65.80078125 80.55859375 C65.08535156 79.759375 64.36992187 78.96015625 63.6328125 78.13671875 C51.92178326 65.17640697 39.37776112 53.27658033 24.80078125 43.55859375 C24.28125 41.7109375 24.28125 41.7109375 23.98828125 39.49609375 C22.69157192 32.79642886 19.12947123 27.72094873 14.17578125 23.12109375 C9.8998957 20.30801115 7.24990985 19.30980497 2.05078125 19.43359375 C1.0659375 19.45164062 0.08109375 19.4696875 -0.93359375 19.48828125 C-1.68125 19.51148437 -2.42890625 19.5346875 -3.19921875 19.55859375 C-3.44929688 18.95917969 -3.699375 18.35976563 -3.95703125 17.7421875 C-8.09467153 10.4687884 -18.78508913 7.27389836 -26.19921875 4.55859375 C-27.02679688 4.23632812 -27.854375 3.9140625 -28.70703125 3.58203125 C-34.84380504 1.52361496 -40.84482283 1.25275153 -47.26171875 1.18359375 C-48.08865234 1.16965576 -48.91558594 1.15571777 -49.76757812 1.14135742 C-54.06645805 1.17411809 -57.62488842 1.60188377 -61.67480469 3.06958008 Z " fill="#FEFEFE" transform="translate(356.19921875,26.44140625)"/>
<path d="M0 0 C2.35546875 2.08984375 2.35546875 2.08984375 4 4 C4 4.66 4 5.32 4 6 C4.70125 5.94199219 5.4025 5.88398437 6.125 5.82421875 C12.10747267 5.53972616 16.2930133 5.81753733 21.21484375 9.375 C26.27275711 13.97913995 30.74101102 19.74173928 31.16796875 26.76171875 C31.17441406 27.72722656 31.18085938 28.69273438 31.1875 29.6875 C31.57789569 35.79869413 33.66380067 39.01904862 37.34375 43.77734375 C41.87317886 49.85575181 41.8656167 57.72712243 41 65 C39.43638898 70.49513655 37.56020635 75.8795873 35 81 C35.61359375 81.25394531 36.2271875 81.50789063 36.859375 81.76953125 C40.48057324 83.85105944 41.62421518 87.17992744 43 91 C44.08540129 97.51240773 41.65988873 102.71349406 38 108 C32.80803548 113.19196452 27.34812677 116.95186576 19.82421875 117.03515625 C18.42623047 117.01775391 18.42623047 117.01775391 17 117 C17.05760498 118.3003418 17.11520996 119.60068359 17.17456055 120.94042969 C17.37529276 125.81505381 17.50051005 130.68932266 17.60424805 135.56689453 C17.65920384 137.66810739 17.73400247 139.76890666 17.82983398 141.86865234 C18.68917425 161.19691531 18.68917425 161.19691531 13.41186523 167.46737671 C11.06885249 169.82857539 8.58436349 171.90252045 6 174 C4.61782769 175.41948647 3.25447725 176.85775065 1.91796875 178.3203125 C-22.60953919 203.55815712 -22.60953919 203.55815712 -37.125 204.5 C-41.59447541 203.9232935 -44.5965293 202.97155817 -48 200 C-52.45478586 194.06028552 -53.15999589 188.52748575 -53.125 181.3125 C-53.12886719 180.53455078 -53.13273437 179.75660156 -53.13671875 178.95507812 C-53.12826121 173.88478324 -52.72269741 169.018732 -52 164 C-52.825 163.95875 -53.65 163.9175 -54.5 163.875 C-63.99252527 161.50186868 -71.10280015 152.61186916 -76.10546875 144.6484375 C-84.63807763 129.82069472 -88.59625394 113.56834055 -90.125 96.625 C-90.20991699 95.71468018 -90.29483398 94.80436035 -90.38232422 93.86645508 C-90.96960623 87.22260576 -91.24860802 80.67098181 -91 74 C-91.78375 73.95875 -92.5675 73.9175 -93.375 73.875 C-101.95693302 71.80349893 -109.1896725 66.36222537 -114 59 C-117.79668325 51.68828655 -119.3496685 44.17124884 -118 36 C-115.20468438 27.50856953 -110.46680616 20.95795929 -103 16 C-98.69047922 13.88115228 -94.67328935 12.63977277 -90 11.77197266 C-83.39305275 10.58152152 -83.39305275 10.58152152 -77.91015625 6.953125 C-76.97686027 5.41228177 -76.09241226 3.8406829 -75.26171875 2.2421875 C-71.29776203 -4.80211948 -62.2269239 -8.28855322 -55 -11 C-36.44323309 -16.0492416 -15.63519164 -10.35397136 0 0 Z " fill="#FE8899" transform="translate(349,40)"/>
<path d="M0 0 C0.68835938 -0.020625 1.37671875 -0.04125 2.0859375 -0.0625 C6.97460986 -0.10054414 6.97460986 -0.10054414 9.15576172 1.35473633 C11.11963488 4.12363341 11.12512599 6.53733433 11.4140625 9.90234375 C11.50401993 10.88540245 11.50401993 10.88540245 11.59579468 11.88832092 C11.78484301 13.98715555 11.95516775 16.08703208 12.125 18.1875 C12.24616771 19.56586372 12.36855189 20.94412108 12.4921875 22.32226562 C12.73198374 25.02227272 12.96292679 27.72277881 13.18481445 30.42431641 C13.38543381 32.85940964 13.59168238 35.29405047 13.80541992 37.72802734 C13.89670166 38.77297363 13.9879834 39.81791992 14.08203125 40.89453125 C14.20155151 42.24768433 14.20155151 42.24768433 14.32348633 43.62817383 C14.60717029 47.84184203 14.56208233 52.0284015 14.5 56.25 C17.47 54.93 20.44 53.61 23.5 52.25 C22.84 54.56 22.18 56.87 21.5 59.25 C22.29470703 59.57162109 23.08941406 59.89324219 23.90820312 60.22460938 C48.35933918 70.14947699 71.04336621 80.67330912 92.5 96.25 C84.43969394 107.14230549 75.96072852 117.71580033 67.47216797 128.27563477 C65.09826257 131.23235767 62.74876405 134.19593531 60.5 137.25 C61.09425781 137.39695312 61.68851562 137.54390625 62.30078125 137.6953125 C75.41017122 141.24279905 85.44275782 147.6007463 92.8125 159.125 C98.9356806 170.12003001 100.66665925 182.32002723 97.3125 194.625 C92.76297117 207.36789324 84.81526798 217.36941486 72.5 223.25 C60.77109402 228.41458 47.84022434 228.91289199 35.5 225.25 C33.9296875 223.84375 33.9296875 223.84375 32.5 222.25 C31.09912971 221.3296608 29.680842 220.43551374 28.25 219.5625 C23.0678004 216.18390909 18.30331322 211.85662643 15.5 206.25 C13.17705687 205.68554559 13.17705687 205.68554559 10.37109375 205.3984375 C9.33662109 205.26953125 8.30214844 205.140625 7.23632812 205.0078125 C6.14771484 204.88148438 5.05910156 204.75515625 3.9375 204.625 C2.84501953 204.4909375 1.75253906 204.356875 0.62695312 204.21875 C-2.08114631 203.88762867 -4.7899984 203.56510912 -7.5 203.25 C-5.4608195 201.04893735 -4.16899593 200.09377268 -1.36328125 198.76953125 C2.64429362 196.84289735 5.30194376 195.35359888 8.5 192.25 C9.35110971 188.03455612 9.14898176 184.47624644 8.7734375 180.23046875 C8.2439164 172.52215448 10.80300246 165.74499589 14.73046875 159.19921875 C15.78566815 156.52640402 15.54760615 154.09887753 15.5 151.25 C14.8495018 151.26252808 14.1990036 151.27505615 13.52879333 151.28796387 C6.63179235 151.42035675 -0.26526259 151.54962669 -7.16235352 151.67724609 C-9.72128723 151.72498082 -12.28020721 151.77345832 -14.83911133 151.82275391 C-31.06169538 152.13466547 -47.2743535 152.32136945 -63.5 152.25 C-63.27600946 142.60128635 -62.41047583 133.5935553 -60.1875 124.1875 C-59.98680908 123.32036377 -59.78611816 122.45322754 -59.5793457 121.55981445 C-57.89783668 114.80185509 -55.36095672 109.04143508 -51.5 103.25 C-50.59435749 93.61117994 -51.91322998 83.73491031 -52.8125 74.125 C-52.94794298 72.63266689 -53.08319399 71.14031634 -53.21826172 69.64794922 C-54.18018194 59.14359375 -55.27665419 48.65686664 -56.49731445 38.17919922 C-57.56110154 29.03107019 -58.60094924 19.84130521 -58.75 10.625 C-58.77578125 9.64273438 -58.8015625 8.66046875 -58.828125 7.6484375 C-58.71984375 6.85695312 -58.6115625 6.06546875 -58.5 5.25 C-54.85858368 2.82238912 -51.94544383 2.82593557 -47.71875 2.65234375 C-46.95002563 2.61315323 -46.18130127 2.57396271 -45.38928223 2.53358459 C-42.92652305 2.40959 -40.46339607 2.29804935 -38 2.1875 C-34.78107341 2.03347058 -31.56240176 1.87450074 -28.34375 1.71484375 C-27.56592163 1.67722931 -26.78809326 1.63961487 -25.98669434 1.6008606 C-20.91996533 1.34803831 -15.8831375 0.95355553 -10.83398438 0.45727539 C-7.22178616 0.13648498 -3.62491877 0.02843074 0 0 Z " fill="#FD8899" transform="translate(258.5,174.75)"/>
<path d="M0 0 C15.89312082 10.00677977 29.67826071 22.90632918 42 37 C44.95635499 36.07909757 47.7228428 35.14448954 50.47265625 33.7109375 C60.99603087 28.28259041 73.45148818 28.33275018 84.85546875 30.8515625 C97.20007398 35.18766039 106.30883213 42.84300741 113 54 C113.52851563 54.85722656 114.05703125 55.71445313 114.6015625 56.59765625 C119.92767047 66.93744686 119.80346032 80.62568134 117.078125 91.76953125 C115.92028206 94.69797167 114.61676327 97.3011174 113 100 C112.33097656 101.20462891 112.33097656 101.20462891 111.6484375 102.43359375 C106.74228454 110.56026611 99.53980554 116.90089334 91 121 C90.01 121 89.02 121 88 121 C88.32613281 122.10472656 88.65226563 123.20945312 88.98828125 124.34765625 C98.73991612 158.47651231 99.29061715 196.30199425 92 231 C91.66549052 232.666431 91.33184333 234.33303603 91 236 C88.59979365 233.10800825 86.9960136 230.06387855 85.40112305 226.67114258 C81.17366906 217.69463083 76.11191783 209.79843952 70 202 C69.58943359 201.47374023 69.17886719 200.94748047 68.75585938 200.40527344 C57.80974814 186.55456418 45.02559658 173.70670541 31 163 C29.69206223 161.97608521 28.3848261 160.95127379 27.078125 159.92578125 C14.23372306 149.90711835 1.10164969 141.22596232 -13 133 C-13.33 155.11 -13.66 177.22 -14 200 C-14.99 200 -15.98 200 -17 200 C-21 194.74285714 -21 194.74285714 -21 192 C-21.66 192 -22.32 192 -23 192 C-23.226875 192.556875 -23.45375 193.11375 -23.6875 193.6875 C-25.35636058 196.6278734 -27.58788665 198.6502353 -30 201 C-30.53254395 200.64808594 -31.06508789 200.29617188 -31.61376953 199.93359375 C-37.71425604 195.91123725 -43.84873197 191.94416854 -50 188 C-50.61182129 187.60151855 -51.22364258 187.20303711 -51.85400391 186.79248047 C-66.71948326 177.19156976 -84.46470141 171.07123119 -101 165 C-99.96937755 160.4018383 -99.30953328 157.94841956 -95.421875 155.1328125 C-87.86812201 151 -87.86812201 151 -85 151 C-84.82984375 151.78503906 -84.6596875 152.57007813 -84.484375 153.37890625 C-82.23392718 164.03585754 -82.23392718 164.03585754 -75.25 171.9375 C-68.09000964 174.27826608 -64.0512307 173.30631321 -57.3125 170.1875 C-41.94663784 162.2442171 -24.42299054 146.43962298 -15 132 C-14.53493828 129.78863258 -14.53493828 129.78863258 -14.56762695 127.41503906 C-14.54783279 126.51440735 -14.52803864 125.61377563 -14.50764465 124.68585205 C-14.50125473 123.72217712 -14.49486481 122.7585022 -14.48828125 121.765625 C-14.46135445 120.27588165 -14.46135445 120.27588165 -14.43388367 118.75604248 C-14.37974994 115.58740469 -14.34587472 112.41891782 -14.3125 109.25 C-14.27932968 107.10023941 -14.24484029 104.95049873 -14.20898438 102.80078125 C-14.1240219 97.53398949 -14.05568499 92.26717827 -14 87 C-13.18523193 86.8131665 -12.37046387 86.62633301 -11.53100586 86.43383789 C-10.45729736 86.17852295 -9.38358887 85.92320801 -8.27734375 85.66015625 C-7.21507568 85.41144775 -6.15280762 85.16273926 -5.05834961 84.90649414 C1.70979402 82.90041788 5.65402745 79.19522963 9 73.0625 C11.19618145 68.08200716 12.18074012 64.13526625 10.1953125 58.86328125 C8.47394136 55.14698774 7.49212085 53.32808057 4 51 C4.19335938 50.43152344 4.38671875 49.86304688 4.5859375 49.27734375 C5.13092305 47.66127273 5.6682076 46.04259149 6.19921875 44.421875 C6.83432939 42.50105257 7.50478283 40.59192159 8.1875 38.6875 C10.0201013 30.37030949 9.92807994 21.69788559 6 14 C4.47568868 11.89389046 2.8685554 9.8815658 1.23046875 7.86328125 C-0.5169039 5.21725981 -0.46122675 3.074845 0 0 Z " fill="#FED0C4" transform="translate(380,70)"/>
<path d="M0 0 C0.95762741 -0.00095673 1.91525482 -0.00191345 2.90190125 -0.00289917 C4.91629096 -0.00357573 6.93068291 -0.00175826 8.94506836 0.00244141 C11.99272684 0.00777924 15.04023677 0.0024876 18.08789062 -0.00390625 C27.67061551 -0.00684673 37.16892271 0.01489668 46.69921875 1.1328125 C44.7467291 2.607452 42.80448559 4.06249255 40.76953125 5.421875 C36.74680265 8.18447175 34.42596773 10.39051127 32.19921875 14.7578125 C29.79548331 18.70680644 27.54915844 19.82015363 23.07788086 20.92822266 C20.94991605 21.38266359 18.8195763 21.82309587 16.6875 22.2578125 C7.54221648 24.13730513 0.96355486 28.42481905 -4.30078125 36.1328125 C-9.04596505 43.68004845 -9.58430446 51.43670359 -7.640625 60.0625 C-4.71585935 69.20397533 0.60611199 75.1979913 8.69921875 80.1328125 C8.69921875 80.4628125 8.69921875 80.7928125 8.69921875 81.1328125 C7.56484375 81.1121875 6.43046875 81.0915625 5.26171875 81.0703125 C1.88346201 80.71703773 1.88346201 80.71703773 0.69921875 82.1328125 C-1.30078125 82.1328125 -3.30078125 82.1328125 -5.30078125 82.1328125 C-5.63078125 82.4628125 -5.96078125 82.7928125 -6.30078125 83.1328125 C-8.63411458 83.1328125 -10.96744792 83.1328125 -13.30078125 83.1328125 C-13.63078125 83.4628125 -13.96078125 83.7928125 -14.30078125 84.1328125 C-16.96744792 84.1328125 -19.63411458 84.1328125 -22.30078125 84.1328125 C-22.63078125 84.4628125 -22.96078125 84.7928125 -23.30078125 85.1328125 C-48.6679274 86.9246267 -73.02262149 84.5162774 -92.9375 67.3125 C-94.10732422 66.23355469 -94.10732422 66.23355469 -95.30078125 65.1328125 C-96.21472656 64.31039062 -97.12867188 63.48796875 -98.0703125 62.640625 C-104.76708718 56.31945601 -110.42254572 49.55959587 -114.30078125 41.1328125 C-113.15354309 37.69109802 -112.61481889 37.41121809 -109.63671875 35.6015625 C-108.85675537 35.12630127 -108.07679199 34.65104004 -107.27319336 34.16137695 C-106.41604736 33.65695068 -105.55890137 33.15252441 -104.67578125 32.6328125 C-103.78060791 32.10453857 -102.88543457 31.57626465 -101.96313477 31.03198242 C-71.20576009 13.18839519 -35.96058483 -0.08086048 0 0 Z " fill="#FED0C4" transform="translate(240.30078125,30.8671875)"/>
<path d="M0 0 C2.35546875 2.08984375 2.35546875 2.08984375 4 4 C4 4.66 4 5.32 4 6 C4.70125 5.94199219 5.4025 5.88398437 6.125 5.82421875 C12.10747267 5.53972616 16.2930133 5.81753733 21.21484375 9.375 C26.27275711 13.97913995 30.74101102 19.74173928 31.16796875 26.76171875 C31.17441406 27.72722656 31.18085938 28.69273438 31.1875 29.6875 C31.57789569 35.79869413 33.66380067 39.01904862 37.34375 43.77734375 C41.88091375 49.8661319 41.84879316 57.71735473 41 65 C39.72344224 69.84109981 38.26878513 74.51994824 36 79 C35.01 79.33 34.02 79.66 33 80 C32.34 79.67 31.68 79.34 31 79 C28.91854396 78.90225206 26.83374453 78.87024259 24.75 78.875 C23.07164062 78.87113281 23.07164062 78.87113281 21.359375 78.8671875 C18.02726444 78.90071621 18.02726444 78.90071621 14.94921875 79.66796875 C8.29761178 80.41682516 1.24180193 75.22720239 -3.875 71.25 C-9.32758983 66.14318416 -12.71864957 59.89420142 -14.1875 52.625 C-14.74241755 50.105298 -14.74241755 50.105298 -16 48 C-18.63475143 46.55110962 -21.1946665 45.79252955 -24.08203125 44.96484375 C-32.07687758 42.32130018 -36.80601899 36.56818265 -40.80859375 29.4296875 C-42.81976745 25.32821196 -44.21568315 21.75820478 -44.625 17.1875 C-44.73714844 16.00220703 -44.73714844 16.00220703 -44.8515625 14.79296875 C-44.90054688 14.20128906 -44.94953125 13.60960938 -45 13 C-58.89117865 15.5176381 -70.72067356 20.62408782 -79.3515625 32.13671875 C-88.64808143 45.55769653 -90.66385884 57.93245255 -91 74 C-99.84185662 72.88353915 -106.97540637 68.17085897 -112.52734375 61.25390625 C-117.51605106 53.61866987 -119.48924422 45.01627701 -118 36 C-115.20468438 27.50856953 -110.46680616 20.95795929 -103 16 C-98.69047922 13.88115228 -94.67328935 12.63977277 -90 11.77197266 C-83.39305275 10.58152152 -83.39305275 10.58152152 -77.91015625 6.953125 C-76.97686027 5.41228177 -76.09241226 3.8406829 -75.26171875 2.2421875 C-71.29776203 -4.80211948 -62.2269239 -8.28855322 -55 -11 C-36.44323309 -16.0492416 -15.63519164 -10.35397136 0 0 Z " fill="#F05D6A" transform="translate(349,40)"/>
<path d="M0 0 C1.17618393 -0.01134979 2.35236786 -0.02269958 3.56419373 -0.03439331 C4.84589447 -0.03146271 6.12759521 -0.0285321 7.44813538 -0.0255127 C8.81843761 -0.03285614 10.18873366 -0.04144317 11.559021 -0.05117798 C15.27394024 -0.07337309 18.98863755 -0.07632572 22.703614 -0.07443047 C25.8074943 -0.07431068 28.91132771 -0.08287802 32.01519495 -0.09120798 C39.33890229 -0.11043453 46.66249565 -0.11332849 53.98622131 -0.10656738 C61.53618494 -0.09992559 69.08566013 -0.1227978 76.63552469 -0.15988111 C83.12316766 -0.19058824 89.61065357 -0.20193711 96.09836775 -0.1980443 C99.97078739 -0.19597796 103.84282685 -0.20143781 107.71517754 -0.22593689 C111.35730816 -0.24821897 114.99864507 -0.24631521 118.6407795 -0.22600937 C120.6100809 -0.22098024 122.57939719 -0.24060699 124.54859924 -0.26101685 C134.20145327 -0.16924706 134.20145327 -0.16924706 137.90249634 2.80786133 C140.73035229 6.10016086 141.25097075 7.54182641 141.25697327 11.76159668 C141.25914856 12.64202637 141.26132385 13.52245605 141.26356506 14.42956543 C141.25881165 15.36671387 141.25405823 16.3038623 141.24916077 17.26940918 C141.24505188 18.21944824 141.24094299 19.1694873 141.23670959 20.14831543 C141.07065191 41.08943918 141.07065191 41.08943918 135.629776 47.02453613 C131.67177552 49.18845903 127.76217498 48.76202424 123.32728577 48.68737793 C122.37851563 48.68313309 121.42974548 48.67888824 120.45222473 48.67451477 C117.42591311 48.65774 114.40027066 48.62008974 111.37416077 48.58190918 C109.32078498 48.5668608 107.26739873 48.55317266 105.21400452 48.54089355 C100.18379929 48.50784035 95.15409344 48.45606601 90.12416077 48.39440918 C90.15445374 49.11394775 90.1847467 49.83348633 90.21595764 50.5748291 C90.35479571 53.91041359 90.48949307 57.24615382 90.62416077 60.58190918 C90.69570374 62.2786377 90.69570374 62.2786377 90.76869202 64.00964355 C91.07977983 71.80905946 91.18234291 79.5891125 91.12416077 87.39440918 C88.86634101 84.00767954 87.75151761 80.60530139 86.52259827 76.76940918 C86.16060837 75.65445068 86.16060837 75.65445068 85.79130554 74.51696777 C85.28311234 72.94755545 84.77725556 71.37738491 84.27357483 69.80651855 C83.50136635 67.40127902 82.7195509 64.99931521 81.93666077 62.59753418 C81.44389352 61.07167962 80.95168694 59.54564385 80.46009827 58.01940918 C80.2257608 57.3005957 79.99142334 56.58178223 79.74998474 55.84118652 C78.81510189 52.90762657 78.12416077 50.49411201 78.12416077 47.39440918 C77.19423309 47.3988504 76.26430542 47.40329163 75.30619812 47.40786743 C66.50907 47.44807129 57.71197309 47.47845796 48.91477394 47.49803352 C44.39289531 47.50843607 39.87109309 47.52253027 35.34925842 47.54528809 C30.97908663 47.56714301 26.60898798 47.57900429 22.23876572 47.58416367 C20.57794927 47.58783684 18.91713647 47.59500916 17.25635147 47.60586929 C-4.92249547 47.74502972 -4.92249547 47.74502972 -10.93833923 42.95690918 C-15.23760968 37.2707773 -14.098405 30.4096046 -14.12583923 23.58190918 C-14.14646423 22.31024902 -14.16708923 21.03858887 -14.18833923 19.72839355 C-14.19349548 18.4979834 -14.19865173 17.26757324 -14.20396423 15.99987793 C-14.21330994 14.87734619 -14.22265564 13.75481445 -14.23228455 12.5982666 C-13.81577524 8.85453263 -12.91796168 6.55636036 -10.87583923 3.39440918 C-7.17487229 0.67606599 -4.55571266 0.01665377 0 0 Z " fill="#FEF4ED" transform="translate(28.875839233398438,232.6055908203125)"/>
<path d="M0 0 C8.34543242 4.88567037 14.03507215 10.72137596 19 19 C19.79277344 20.28583984 19.79277344 20.28583984 20.6015625 21.59765625 C25.92767047 31.93744686 25.80346032 45.62568134 23.078125 56.76953125 C21.92028206 59.69797167 20.61676327 62.3011174 19 65 C18.33097656 66.20462891 18.33097656 66.20462891 17.6484375 67.43359375 C10.92472852 78.57091058 0.88096191 84.49610594 -11 89 C-19.47776511 90.76620107 -28.51931884 90.6068659 -37 89 C-38.32 91.64 -39.64 94.28 -41 97 C-45.14298667 96.40165275 -48.18194377 94.99335715 -51.8125 92.9375 C-52.78832031 92.38964844 -53.76414062 91.84179688 -54.76953125 91.27734375 C-55.87361328 90.64505859 -55.87361328 90.64505859 -57 90 C-55.68 86.7 -54.36 83.4 -53 80 C-54.19625 78.88625 -55.3925 77.7725 -56.625 76.625 C-66.18475784 66.980792 -71.04166734 55.13230231 -71.5625 41.5625 C-71.12228656 27.32893203 -64.9085654 15.36776829 -54.6875 5.6875 C-50.20150468 1.89813535 -45.42188993 -0.77607694 -40 -3 C-38.67742187 -3.54720703 -38.67742187 -3.54720703 -37.328125 -4.10546875 C-25.2402373 -7.35444326 -10.87294937 -6.09837106 0 0 Z " fill="#FEA868" transform="translate(474,105)"/>
<path d="M0 0 C0.68835938 -0.020625 1.37671875 -0.04125 2.0859375 -0.0625 C6.97460986 -0.10054414 6.97460986 -0.10054414 9.15576172 1.35473633 C11.11963488 4.12363341 11.12512599 6.53733433 11.4140625 9.90234375 C11.50401993 10.88540245 11.50401993 10.88540245 11.59579468 11.88832092 C11.78484301 13.98715555 11.95516775 16.08703208 12.125 18.1875 C12.24616771 19.56586372 12.36855189 20.94412108 12.4921875 22.32226562 C12.73205546 25.0229192 12.96296794 27.72407615 13.18481445 30.42626953 C13.38500269 32.85488932 13.59117534 35.28302905 13.80541992 37.71044922 C14.23896013 42.65196578 14.62783559 47.53449546 14.5625 52.5 C14.55347656 53.41265625 14.54445313 54.3253125 14.53515625 55.265625 C14.52355469 55.92046875 14.51195312 56.5753125 14.5 57.25 C7.06735541 55.70184551 -0.07850532 53.60511031 -7.30273438 51.28515625 C-11.83946688 49.87588816 -15.68634501 48.88759717 -20.5 49.25 C-20.5 50.57 -20.5 51.89 -20.5 53.25 C-19.93337646 53.52231445 -19.36675293 53.79462891 -18.78295898 54.07519531 C-16.42674264 55.28769805 -14.21886627 56.64174248 -11.97265625 58.046875 C-6.49264724 61.35882464 -0.8025958 63.95098452 5.0625 66.5 C7.02471512 67.35346832 8.98450323 68.21254605 10.94140625 69.078125 C11.79420166 69.4484082 12.64699707 69.81869141 13.52563477 70.20019531 C15.5 71.25 15.5 71.25 16.5 73.25 C15.675 73.06824219 14.85 72.88648438 14 72.69921875 C0.54405475 69.77074852 -12.70226732 66.93516138 -26.5 66.25 C-25.561498 69.801586 -24.75094601 71.07514054 -21.69140625 73.20703125 C-20.49128636 73.84378824 -19.28074948 74.46115533 -18.0625 75.0625 C-17.411604 75.39652832 -16.76070801 75.73055664 -16.09008789 76.07470703 C-5.94057997 81.17504599 4.66553544 85.81764163 15.5 89.25 C15.5 89.58 15.5 89.91 15.5 90.25 C14.64664063 90.1778125 13.79328125 90.105625 12.9140625 90.03125 C3.83347908 89.35722731 -5.20653545 89.14009484 -14.3125 89.125 C-15.46347168 89.12048828 -16.61444336 89.11597656 -17.80029297 89.11132812 C-19.42475342 89.11422852 -19.42475342 89.11422852 -21.08203125 89.1171875 C-22.05374268 89.11831543 -23.0254541 89.11944336 -24.02661133 89.12060547 C-26.63471466 89.14699731 -26.63471466 89.14699731 -29.5 90.25 C-28.48092419 93.15006228 -27.75637251 94.11025432 -25.01464844 95.60473633 C-16.38780945 98.78940429 -7.72812913 101.01626774 1.25 102.9375 C3.29355616 103.37709099 5.33618214 103.81972229 7.37677002 104.27290344 C9.19565951 104.67674617 11.0172013 105.06858851 12.83886719 105.4597168 C13.71704102 105.72051025 14.59521484 105.98130371 15.5 106.25 C15.83 106.91 16.16 107.57 16.5 108.25 C15.95585449 108.41604736 15.41170898 108.58209473 14.85107422 108.75317383 C12.3573475 109.51751724 9.8661923 110.28993817 7.375 111.0625 C6.5190625 111.32353516 5.663125 111.58457031 4.78125 111.85351562 C0.14895013 113.2966552 -4.32949659 114.71172236 -8.5 117.25 C-8.995 118.735 -8.995 118.735 -9.5 120.25 C0.07 120.25 9.64 120.25 19.5 120.25 C17.5 124.25 17.5 124.25 15.5 125.25 C13.41392999 125.52041648 11.32109028 125.73925762 9.2265625 125.93359375 C7.93572754 126.05565186 6.64489258 126.17770996 5.31494141 126.3034668 C3.91830594 126.43160509 2.52165856 126.55961363 1.125 126.6875 C-1.00069668 126.88589876 -3.12628184 127.08546306 -5.25186157 127.28511047 C-6.66764898 127.41798745 -8.08348169 127.55038264 -9.49935913 127.68229675 C-13.56466029 128.062259 -17.62696961 128.46277046 -21.6875 128.890625 C-22.57904785 128.9841626 -23.4705957 129.0777002 -24.38916016 129.17407227 C-25.98295581 129.3429689 -27.57641956 129.51504575 -29.16943359 129.69116211 C-32.89145444 130.08081248 -36.6110032 130.35947826 -40.3515625 130.48828125 C-41.07424316 130.51575439 -41.79692383 130.54322754 -42.54150391 130.5715332 C-44.5 130.25 -44.5 130.25 -46.19458008 129.10913086 C-48.01606134 126.51504449 -48.16983434 124.41758313 -48.53515625 121.265625 C-48.61113541 120.62401428 -48.68711456 119.98240356 -48.76539612 119.3213501 C-50.06114006 107.90734284 -50.95620609 96.44412172 -51.9375 85 C-53.27083806 69.45804839 -54.67914871 53.93864716 -56.47569275 38.44232178 C-57.5408721 29.20869337 -58.59957301 19.92640242 -58.75 10.625 C-58.77578125 9.64273438 -58.8015625 8.66046875 -58.828125 7.6484375 C-58.71984375 6.85695312 -58.6115625 6.06546875 -58.5 5.25 C-54.85858368 2.82238912 -51.94544383 2.82593557 -47.71875 2.65234375 C-46.95002563 2.61315323 -46.18130127 2.57396271 -45.38928223 2.53358459 C-42.92652305 2.40959 -40.46339607 2.29804935 -38 2.1875 C-34.78107341 2.03347058 -31.56240176 1.87450074 -28.34375 1.71484375 C-27.56592163 1.67722931 -26.78809326 1.63961487 -25.98669434 1.6008606 C-20.91996533 1.34803831 -15.8831375 0.95355553 -10.83398438 0.45727539 C-7.22178616 0.13648498 -3.62491877 0.02843074 0 0 Z " fill="#431C4B" transform="translate(258.5,174.75)"/>
<path d="M0 0 C10.71708918 7.89060412 17.01443057 17.21468777 20.1875 30.25 C21.76258639 43.44134849 18.00472848 53.61554305 12.1875 65.25 C15.4875 69.54 18.7875 73.83 22.1875 78.25 C17.40864176 79.84295275 13.40189703 77.58459453 8.73046875 76.0625 C3.05232159 74.76034497 -0.78943955 75.97472536 -5.8125 78.6875 C-16.43690014 84.39130456 -28.78961589 85.22603805 -40.5078125 82.33984375 C-53.35330953 77.23121258 -62.98775708 67.96242493 -68.90234375 55.51171875 C-72.67719574 46.13129257 -72.43526115 31.89826465 -68.90625 22.50390625 C-62.03702048 8.34838684 -52.52168849 -0.16927808 -37.8125 -5.75 C-25.72713923 -9.76204441 -10.46565517 -6.53656961 0 0 Z " fill="#8F8FEE" transform="translate(174.8125,120.75)"/>
<path d="M0 0 C8.40216413 7.96589791 13.91158296 18.15228105 14.8125 29.7265625 C15.17121965 44.59848127 10.92228458 56.13334415 0.75390625 67.04296875 C-8.53919784 75.6991114 -20.63275829 79.81447855 -33.2109375 79.375 C-47.80005641 78.20297246 -47.80005641 78.20297246 -51.46875 74.11328125 C-52.86962029 73.19294205 -54.287908 72.29879499 -55.71875 71.42578125 C-60.9009496 68.04719034 -65.66543678 63.71990768 -68.46875 58.11328125 C-70.79169313 57.54882684 -70.79169313 57.54882684 -73.59765625 57.26171875 C-74.63212891 57.1328125 -75.66660156 57.00390625 -76.73242188 56.87109375 C-78.3653418 56.68160156 -78.3653418 56.68160156 -80.03125 56.48828125 C-81.12373047 56.35421875 -82.21621094 56.22015625 -83.34179688 56.08203125 C-86.04989631 55.75090992 -88.7587484 55.42839037 -91.46875 55.11328125 C-89.4295695 52.9122186 -88.13774593 51.95705393 -85.33203125 50.6328125 C-81.32445638 48.7061786 -78.66680624 47.21688013 -75.46875 44.11328125 C-74.61753298 39.89730584 -74.81982006 36.33298977 -75.19140625 32.0859375 C-75.83391009 22.88274869 -71.80232761 15.00964204 -67.46875 7.11328125 C-66.80875 7.11328125 -66.14875 7.11328125 -65.46875 7.11328125 C-65.2109375 6.52417969 -64.953125 5.93507813 -64.6875 5.328125 C-60.43662137 -2.39702944 -51.301384 -6.91164692 -43.25390625 -9.63671875 C-27.89851205 -13.63523008 -12.44517081 -9.51110364 0 0 Z " fill="#EE5D6A" transform="translate(342.46875,322.88671875)"/>
<path d="M0 0 C2.11892162 2.11892162 2.63765548 3.34684595 3.62890625 6.12109375 C3.93771729 6.96510742 4.24652832 7.80912109 4.56469727 8.67871094 C5.05860962 10.04431152 5.05860962 10.04431152 5.5625 11.4375 C8.61460413 19.76102909 12.06125692 27.7208303 16.29321289 35.51733398 C19.15802164 41.12359251 19.27545299 44.89766467 18 51 C17.82895752 51.91249512 17.65791504 52.82499023 17.48168945 53.76513672 C16.89818452 56.78932356 16.26850282 59.80053608 15.625 62.8125 C15.29000488 64.39937622 15.29000488 64.39937622 14.94824219 66.01831055 C11.33071917 83.00784249 11.33071917 83.00784249 9 90 C0.75 90 -7.5 90 -16 90 C-16 90.66 -16 91.32 -16 92 C-96.52 92 -177.04 92 -260 92 C-260 91.67 -260 91.34 -260 91 C-179.81 91 -99.62 91 -17 91 C-22.63763898 70.03216894 -22.63763898 70.03216894 -28.41162109 49.10351562 C-30.05174536 43.23990125 -31.68199535 37.3735619 -33.30566406 31.50537109 C-33.80366185 29.7084466 -34.30318899 27.91194569 -34.80371094 26.11572266 C-35.64371129 23.09900464 -36.47852358 20.08088822 -37.3125 17.0625 C-37.71263306 15.63115723 -37.71263306 15.63115723 -38.12084961 14.17089844 C-38.36585205 13.28047852 -38.61085449 12.39005859 -38.86328125 11.47265625 C-39.08282471 10.68125244 -39.30236816 9.88984863 -39.52856445 9.07446289 C-40 7 -40 7 -40 4 C-39.03513672 4.2165625 -39.03513672 4.2165625 -38.05078125 4.4375 C-24.26659004 7.26905996 -12.60450413 6.58399981 0 0 Z " fill="#FCF2EC" transform="translate(335,395)"/>
<path d="M0 0 C16.3389519 10.28748823 30.24802497 23.61637463 43 38 C42.23558594 38.76183594 41.47117187 39.52367187 40.68359375 40.30859375 C30.81734268 50.20356753 23.78041196 61.73385206 23.625 76.125 C23.86147848 90.23024603 29.00832087 102.1578231 38.9375 112.1875 C39.948125 113.115625 40.95875 114.04375 42 115 C40.68 117.97 39.36 120.94 38 124 C42.58157609 126.92272957 47.08345365 129.66464048 52 132 C51.30572788 135.28062651 50.14233933 138.10722182 48.6875 141.125 C48.27886719 141.99382812 47.87023437 142.86265625 47.44921875 143.7578125 C45.82105905 146.27685204 44.82044138 147.05985287 42 148 C38.57514184 147.81652546 35.83809258 147.36241841 32.6875 146 C30.73611849 143.68725154 30.71722978 142.62425878 30.3125 139.6875 C29.77835088 136.84327007 29.46929051 135.42397971 27.30078125 133.46484375 C25.77715061 132.52659365 24.24073264 131.60894043 22.6953125 130.70703125 C7.60928341 121.15254616 -2.10934963 105.77940721 -10.90600586 90.70483398 C-12.01586516 88.84198204 -12.01586516 88.84198204 -14 87 C-13.2265625 86.85304688 -12.453125 86.70609375 -11.65625 86.5546875 C-3.5087581 84.80015335 2.79322428 82.75135962 7.59765625 75.6328125 C10.27046039 70.73391243 11.94162804 66.64976821 11 61 C9.33481015 56.57835511 7.98950459 53.65966973 4 51 C4.19335938 50.43152344 4.38671875 49.86304688 4.5859375 49.27734375 C5.13092305 47.66127273 5.6682076 46.04259149 6.19921875 44.421875 C6.83432939 42.50105257 7.50478283 40.59192159 8.1875 38.6875 C10.0201013 30.37030949 9.92807994 21.69788559 6 14 C4.47568868 11.89389046 2.8685554 9.8815658 1.23046875 7.86328125 C-0.5169039 5.21725981 -0.46122675 3.074845 0 0 Z " fill="#FECFC3" transform="translate(380,70)"/>
<path d="M0 0 C0.66 0 1.32 0 2 0 C2.09168669 14.5259726 1.80269646 29.04018025 1.5 43.5625 C1.45166607 45.94205411 1.40348789 48.32161139 1.35546875 50.70117188 C1.23877195 56.46748563 1.12016326 62.2337575 1 68 C0.01 68 -0.98 68 -2 68 C-6 62.74285714 -6 62.74285714 -6 60 C-6.66 60 -7.32 60 -8 60 C-8.226875 60.556875 -8.45375 61.11375 -8.6875 61.6875 C-10.35636058 64.6278734 -12.58788665 66.6502353 -15 69 C-15.79881592 68.47212891 -15.79881592 68.47212891 -16.61376953 67.93359375 C-22.71425604 63.91123725 -28.84873197 59.94416854 -35 56 C-35.91773193 55.40227783 -35.91773193 55.40227783 -36.85400391 54.79248047 C-51.71948326 45.19156976 -69.46470141 39.07123119 -86 33 C-84.96937755 28.4018383 -84.30953328 25.94841956 -80.421875 23.1328125 C-72.86812201 19 -72.86812201 19 -70 19 C-69.82984375 19.78503906 -69.6596875 20.57007813 -69.484375 21.37890625 C-67.23392718 32.03585754 -67.23392718 32.03585754 -60.25 39.9375 C-53.09000964 42.27826608 -49.0512307 41.30631321 -42.3125 38.1875 C-27.19736138 30.37382701 -11.25116637 15.4789671 -1.37548828 1.73999023 C-0.92157715 1.16579346 -0.46766602 0.59159668 0 0 Z " fill="#FEF2EC" transform="translate(365,202)"/>
<path d="M0 0 C5.48736108 2.9885779 11.40954503 7.33638901 13.58203125 13.40625 C14.41558439 21.27654246 14.63937936 28.96415182 9.58203125 35.40625 C4.05325903 41.83645247 -3.38326124 44.81886746 -11.69921875 45.7890625 C-20.47817799 46.09673631 -26.92627829 44.28636663 -33.85546875 38.90625 C-37.47770163 35.37236426 -38.33115952 33.66881359 -38.68359375 28.54296875 C-38.68888571 27.05989613 -38.68334993 25.5767523 -38.66796875 24.09375 C-38.67570313 23.35962891 -38.6834375 22.62550781 -38.69140625 21.86914062 C-38.66770574 15.19152062 -37.79395717 8.93202818 -33.07421875 3.828125 C-23.45261659 -4.43192968 -11.4260671 -4.68418563 0 0 Z " fill="#FCF2EC" transform="translate(169.41796875,381.59375)"/>
<path d="M0 0 C4.62185392 1.28197408 7.57168388 2.99689861 11.1875 6.125 C14.59635958 9.33258757 14.59635958 9.33258757 19 10 C20.93498154 8.71775831 20.93498154 8.71775831 22.875 7.0625 C25.88801427 4.69989656 28.06598121 3.24587617 32 3 C34.62386487 6.06117568 35 6.73173127 35 11 C35.763125 11.268125 36.52625 11.53625 37.3125 11.8125 C40.02186651 13.00966195 41.16805636 13.73259434 43 16 C43.87890625 18.59375 43.87890625 18.59375 44.5625 21.5 C45.38816105 24.97057527 45.9935516 26.9903274 48 30 C48.5 32.375 48.5 32.375 48 35 C43.44635566 39.36541739 38.41024853 42.10392091 32.8125 44.9375 C31.11940265 45.80914062 29.42669229 46.68153334 27.734375 47.5546875 C26.92162109 47.97202148 26.10886719 48.38935547 25.27148438 48.81933594 C21.50925768 50.77485273 17.81785326 52.85120032 14.12890625 54.94140625 C12.07323287 55.96358512 10.22480139 56.48300352 8 57 C5.86697289 53.94301979 3.74503566 50.87850094 1.625 47.8125 C1.02171875 46.94818359 0.4184375 46.08386719 -0.203125 45.19335938 C-0.78320312 44.35224609 -1.36328125 43.51113281 -1.9609375 42.64453125 C-2.49509277 41.87471924 -3.02924805 41.10490723 -3.57958984 40.31176758 C-5.03481016 37.94334524 -6.04479958 35.60564166 -7 33 C-6.28972656 32.5875 -5.57945313 32.175 -4.84765625 31.75 C1.03249173 28.10443208 1.03249173 28.10443208 4.5 22.3125 C4.57883247 17.26722164 1.73279968 13.06054946 -0.75 8.83203125 C-2.16607159 5.62374406 -2.11590807 4.27216793 -1 1 C-0.67 0.67 -0.34 0.34 0 0 Z " fill="#8986E2" transform="translate(131,133)"/>
<path d="M0 0 C0.33 0 0.66 0 1 0 C1.08302368 0.98226563 1.08302368 0.98226563 1.16772461 1.984375 C1.42268056 4.98972466 1.68007315 7.99486102 1.9375 11 C2.02451172 12.02996094 2.11152344 13.05992187 2.20117188 14.12109375 C2.68665019 19.76702674 3.25059866 25.38286561 4 31 C12.84391462 31.24938454 21.46478772 30.46169484 30.25 29.5 C32.87977461 29.2142661 35.5099925 28.93413371 38.140625 28.65625 C39.29079102 28.53056641 40.44095703 28.40488281 41.62597656 28.27539062 C45.09930964 27.99189426 48.5167223 27.95348246 52 28 C50.80039297 36.02715768 49.50253855 44.0237581 48 52 C50.64 52 53.28 52 56 52 C56 52.33 56 52.66 56 53 C49.87011155 53.14586659 43.74015136 53.28806678 37.61010742 53.42724609 C35.53619233 53.4748049 33.46229776 53.5232693 31.38842773 53.57275391 C16.58964772 53.92502023 1.80292654 54.06814801 -13 54 C-12.77600946 44.35128635 -11.91047583 35.3435553 -9.6875 25.9375 C-9.38646362 24.63679565 -9.38646362 24.63679565 -9.0793457 23.30981445 C-7.39783668 16.55185509 -4.86095672 10.79143508 -1 5 C-0.61500109 3.34450469 -0.27206865 1.6777567 0 0 Z " fill="#8E8DEC" transform="translate(208,273)"/>
<path d="M0 0 C10.98429938 0.49684484 21.59524299 3.04651733 32.125 6.0625 C32.86516357 6.27221436 33.60532715 6.48192871 34.36791992 6.69799805 C36.1614413 7.23493099 37.92810977 7.86002973 39.6875 8.5 C40.1825 9.49 40.1825 9.49 40.6875 10.5 C39.0966564 13.68895133 37.41296374 16.17940587 34.6875 18.5 C31.42594774 19.22771193 28.4047377 19.31434239 25.06640625 19.37890625 C12.72295172 19.82127283 2.21461799 25.86411775 -6.3125 34.5 C-6.6425 35.16 -6.9725 35.82 -7.3125 36.5 C-7.9725 36.5 -8.6325 36.5 -9.3125 36.5 C-9.6425 35.18 -9.9725 33.86 -10.3125 32.5 C-16.2525 32.17 -22.1925 31.84 -28.3125 31.5 C-28.02375 28.86 -27.735 26.22 -27.4375 23.5 C-27.35129395 22.6853125 -27.26508789 21.870625 -27.17626953 21.03125 C-26.60940687 16.04573483 -25.62264663 11.34423965 -24.3125 6.5 C-22.88357422 6.47873047 -22.88357422 6.47873047 -21.42578125 6.45703125 C-12.25035442 6.10811985 -8.00783106 0.18175317 0 0 Z " fill="#FDF2EC" transform="translate(284.3125,293.5)"/>
<path d="M0 0 C3.98090258 2.27480147 7.4647771 5.08863996 11 8 C11.47308594 7.57847656 11.94617188 7.15695312 12.43359375 6.72265625 C16.7523322 3.14475403 20.27062108 1.00134305 25.94921875 0.6875 C29.44767362 1.22059789 30.96851816 3.27019628 33 6 C34.91898879 9.83797758 34.68365039 13.83542972 34 18 C28.93396884 29.16689184 19.63731872 36.86124539 10 44 C8.68 43.34 7.36 42.68 6 42 C6 41.34 6 40.68 6 40 C5.34 40 4.68 40 4 40 C4 39.34 4 38.68 4 38 C3.34 38 2.68 38 2 38 C0.11287536 35.89420854 -1.64289259 33.79087421 -3.375 31.5625 C-3.87233643 30.92304443 -4.36967285 30.28358887 -4.88208008 29.62475586 C-9.2998897 23.81608654 -12.50682227 18.63718576 -13.5 11.3125 C-12.89211194 7.28524163 -11.55644725 5.14077805 -9 2 C-5.46569344 -0.35620437 -4.16428713 -0.48991613 0 0 Z " fill="#DB5566" transform="translate(301,338)"/>
<path d="M0 0 C16.3389519 10.28748823 30.24802497 23.61637463 43 38 C42.236875 38.75796875 41.47375 39.5159375 40.6875 40.296875 C34.95635844 46.06133715 30.7180068 51.74495132 27 59 C24.58746905 55.9755078 22.81400701 52.88561663 21.08203125 49.4296875 C20.55029297 48.36878906 20.01855469 47.30789062 19.47070312 46.21484375 C18.92349609 45.11269531 18.37628906 44.01054688 17.8125 42.875 C17.25369141 41.76511719 16.69488281 40.65523437 16.11914062 39.51171875 C15.59126953 38.45339844 15.06339844 37.39507812 14.51953125 36.3046875 C13.79407104 34.8503833 13.79407104 34.8503833 13.05395508 33.36669922 C12 31 12 31 12 29 C11.34 29 10.68 29 10 29 C9.86464844 28.17757812 9.72929687 27.35515625 9.58984375 26.5078125 C8.16737112 19.13139753 6.27621748 14.0907351 1.42578125 8.31640625 C-0.37475517 5.39115119 -0.25723023 3.37311342 0 0 Z " fill="#FED0C4" transform="translate(380,70)"/>
<path d="M0 0 C0.495 0.99 0.495 0.99 1 2 C-4.48483124 15.51674934 -11.45856461 26.52642979 -25 33 C-32.55684291 35.9658577 -41.14215414 36.38492509 -48.8125 33.5 C-49.864375 33.005 -50.91625 32.51 -52 32 C-51.67 28.04 -51.34 24.08 -51 20 C-49.99582031 19.97421875 -48.99164063 19.9484375 -47.95703125 19.921875 C-29.16161876 19.23079921 -13.48466612 13.42499945 0 0 Z " fill="#451D4B" transform="translate(348,184)"/>
<path d="M0 0 C1.51074219 1.21044922 1.51074219 1.21044922 3 3 C3.09082031 5.16845703 3.09082031 5.16845703 2.828125 7.6328125 C2.64413399 13.80997407 5.04494101 17.13597106 8.75 21.875 C9.28882813 22.6071875 9.82765625 23.339375 10.3828125 24.09375 C13.04665234 27.66719368 15.80340292 30.88525648 19 34 C19.62044189 33.66677734 20.24088379 33.33355469 20.88012695 32.99023438 C23.68753279 31.48706472 26.49990909 29.99344358 29.3125 28.5 C30.28896484 27.97535156 31.26542969 27.45070312 32.27148438 26.91015625 C33.20927734 26.41386719 34.14707031 25.91757813 35.11328125 25.40625 C35.97735596 24.94541016 36.84143066 24.48457031 37.73168945 24.00976562 C40 23 40 23 43 23 C36.82609722 27.64361919 30.24842492 30.84486224 23.25366211 34.01953125 C18.38167097 36.26106908 13.97082992 38.74296404 9.6640625 41.96875 C8 43 8 43 5 43 C3.49780273 41.33520508 3.49780273 41.33520508 1.93359375 39.01953125 C1.36576172 38.18486328 0.79792969 37.35019531 0.21289062 36.49023438 C-0.37298828 35.60658203 -0.95886719 34.72292969 -1.5625 33.8125 C-2.15224609 32.94818359 -2.74199219 32.08386719 -3.34960938 31.19335938 C-6.03440851 27.20739479 -8.32710701 23.52656337 -10 19 C-9.28972656 18.5875 -8.57945313 18.175 -7.84765625 17.75 C-2.57268682 14.66705075 -2.57268682 14.66705075 0.921875 9.89453125 C1.35324984 6.51331379 1.20141978 3.20378609 0 0 Z " fill="#431F51" transform="translate(134,147)"/>
<path d="M0 0 C3.75345656 0.71971619 6.86091969 2.33112202 10.25 4.0625 C11.32765625 4.61035156 12.4053125 5.15820312 13.515625 5.72265625 C14.74539063 6.35494141 14.74539063 6.35494141 16 7 C15.30572788 10.28062651 14.14233933 13.10722182 12.6875 16.125 C12.27886719 16.99382812 11.87023437 17.86265625 11.44921875 18.7578125 C9.82105905 21.27685204 8.82044138 22.05985287 6 23 C2.55734978 22.81557231 -0.19686582 22.33816176 -3.375 21 C-5.59025409 18.27353343 -6.03653919 16.03513616 -6.31640625 12.5625 C-5.71531416 7.69439613 -2.81244375 3.90481321 0 0 Z " fill="#9190ED" transform="translate(416,195)"/>
<path d="M0 0 C0.66 0 1.32 0 2 0 C3.33984375 1.80859375 3.33984375 1.80859375 4.9375 4.4375 C5.5665625 5.45457031 6.195625 6.47164063 6.84375 7.51953125 C7.19050781 8.08236816 7.53726562 8.64520508 7.89453125 9.22509766 C9.86404367 12.38727859 11.90579264 15.50257087 13.9375 18.625 C18.61397063 25.83466193 23.24802569 33.07099654 27.875 40.3125 C32.72052065 47.89446857 37.58562445 55.46247277 42.5 63 C47.41437625 70.5375283 52.27936662 78.10560264 57.125 85.6875 C61.77783725 92.96731388 66.4335327 100.24500144 71.125 107.5 C71.56448975 108.18030273 72.00397949 108.86060547 72.45678711 109.56152344 C75.26478737 113.89694942 78.12692345 118.19114897 81.07421875 122.43359375 C82 124 82 124 82 126 C77.80394343 124.60131448 76.65561714 121.62843853 74.5 118 C73.5976462 116.51874339 72.69395841 115.03829876 71.7890625 113.55859375 C71.32532227 112.79659668 70.86158203 112.03459961 70.38378906 111.24951172 C68.27173241 107.81611546 66.07660046 104.43891789 63.875 101.0625 C59.25747544 93.95919414 54.68599344 86.82722143 50.125 79.6875 C44.76484532 71.30007185 39.3707059 62.93641003 33.93408203 54.59838867 C28.90201304 46.87106505 23.93565386 39.10218998 18.9765625 31.32788086 C15.7097037 26.21189418 12.42612416 21.10876336 9.09375 16.03515625 C8.48660156 15.10960937 7.87945312 14.1840625 7.25390625 13.23046875 C6.1094472 11.48956557 4.9611796 9.75115842 3.80859375 8.015625 C3.30457031 7.24863281 2.80054688 6.48164063 2.28125 5.69140625 C1.83845703 5.02310791 1.39566406 4.35480957 0.93945312 3.66625977 C0 2 0 2 0 0 Z " fill="#4A295F" transform="translate(357,262)"/>
<path d="M0 0 C1.14456013 2.81427138 1.03647898 3.90153417 -0.0390625 6.8046875 C-7.38470643 21.02556466 -17.61498435 30.55569746 -33 36 C-46.34871589 39.47247001 -58.17258919 36.94852191 -69.93359375 30.35546875 C-75.74258248 26.86376996 -80.43958285 22.98492407 -85 18 C-85.78375 17.236875 -86.5675 16.47375 -87.375 15.6875 C-89.90106461 13.10129099 -92.36727436 10.4751638 -94.8125 7.8125 C-95.60269531 6.95269531 -96.39289063 6.09289062 -97.20703125 5.20703125 C-99 3 -99 3 -99 1 C-95.23201253 2.25599582 -94.392962 3.8011362 -92 6.9375 C-82.51499035 18.74786685 -68.60725843 31.97706577 -52.88647461 34.31420898 C-50.68480283 34.47259724 -48.5196977 34.51920764 -46.3125 34.5 C-45.13675415 34.49033203 -45.13675415 34.49033203 -43.93725586 34.48046875 C-30.84485457 34.0739638 -20.2270057 27.93092725 -10.90234375 18.98828125 C-5.70216877 13.36855925 -2.66972506 7.11926684 0 0 Z " fill="#49285D" transform="translate(453,437)"/>
<path d="M0 0 C2.3431213 0.25561323 4.67843403 0.59270772 7 1 C8.97922132 4.95844265 8.56884049 9.69738736 8 14 C6.59657128 16.58603823 5.19164373 17.97272955 3 20 C1.125 19.6875 1.125 19.6875 -1 19 C-3.29000466 15.56499301 -3.29748064 14.11271981 -3.3125 10.0625 C-3.32925781 9.02222656 -3.34601563 7.98195312 -3.36328125 6.91015625 C-2.96272879 3.70142952 -2.15199859 2.35641006 0 0 Z " fill="#FFF2E9" transform="translate(486,133)"/>
<path d="M0 0 C2.4375 0.8125 2.4375 0.8125 4.4375 3.8125 C4.79590349 6.67972793 4.84871458 8.18485669 3.25 10.625 C0.78842224 12.23775784 -0.67315736 12.2459014 -3.5625 11.8125 C-5.4375 10.75 -5.4375 10.75 -6.5625 8.8125 C-6.4375 5.25 -6.4375 5.25 -5.5625 1.8125 C-2.5625 -0.1875 -2.5625 -0.1875 0 0 Z " fill="#4A2652" transform="translate(125.5625,251.1875)"/>
<path d="M0 0 C3.0625 0.3125 3.0625 0.3125 5 1.4375 C6.0625 3.3125 6.0625 3.3125 5.875 6.375 C5.0625 9.3125 5.0625 9.3125 3.0625 11.3125 C0.0625 11.625 0.0625 11.625 -2.9375 11.3125 C-5.23913882 7.86004176 -5.28240322 6.36511287 -4.9375 2.3125 C-2.9375 0.3125 -2.9375 0.3125 0 0 Z " fill="#482350" transform="translate(89.9375,250.6875)"/>
<path d="M0 0 C3.5625 0.25 3.5625 0.25 7 1 C8.39935013 3.79870027 8.25265405 5.90498792 8 9 C6.8125 10.9375 6.8125 10.9375 5 12 C1.65807308 11.75546876 0.39456443 11.39456443 -2 9 C-2.25 5.5 -2.25 5.5 -2 2 C-1.34 1.34 -0.68 0.68 0 0 Z " fill="#47234F" transform="translate(57,250)"/>
<path d="M0 0 C0.66 0 1.32 0 2 0 C2.73699658 11.03447653 0.67069308 21.1978935 -1.6328125 31.93798828 C-2.08765728 34.14318131 -2.08765728 34.14318131 -2 37 C0.64 37.33 3.28 37.66 6 38 C6 38.66 6 39.32 6 40 C4.54207116 40.05399736 3.08357288 40.09279177 1.625 40.125 C0.81289063 40.14820313 0.00078125 40.17140625 -0.8359375 40.1953125 C-3 40 -3 40 -5 38 C-5.23426495 31.97604411 -3.82588927 25.96413796 -2.5 20.125 C-0.98115737 13.42727443 -0.33002673 6.85089973 0 0 Z " fill="#5F2C56" transform="translate(289,116)"/>
<path d="M0 0 C2.4375 0.875 2.4375 0.875 4.4375 3.875 C3.87146226 10.44103774 3.87146226 10.44103774 2.4375 11.875 C-0.5 12.125 -0.5 12.125 -3.5625 11.875 C-5.87532587 8.40576119 -5.98728586 6.95294425 -5.5625 2.875 C-3.8925532 0.15034996 -3.20820586 -0.15649785 0 0 Z " fill="#491F4D" transform="translate(316.5625,119.125)"/>
<path d="M0 0 C2 2 2 2 2 6 C2.66 5.67 3.32 5.34 4 5 C5.54023996 4.93049459 7.08334988 4.91547643 8.625 4.9375 C9.85089844 4.95103516 9.85089844 4.95103516 11.1015625 4.96484375 C12.04128906 4.98224609 12.04128906 4.98224609 13 5 C13.33 5.66 13.66 6.32 14 7 C13.06027344 6.98259766 13.06027344 6.98259766 12.1015625 6.96484375 C10.87566406 6.95130859 10.87566406 6.95130859 9.625 6.9375 C8.40683594 6.92009766 8.40683594 6.92009766 7.1640625 6.90234375 C4.95062858 6.85533666 4.95062858 6.85533666 3 8 C1.89286976 11.0031468 1.01046119 14.04986725 0.09765625 17.1171875 C-0.95725035 19.88772511 -1.61251027 21.28866651 -4 23 C-4.99 23 -5.98 23 -7 23 C-6.48480007 16.56000092 -4.56330809 12.56330809 0 8 C0.24212873 6.01871492 0.24212873 6.01871492 0.125 3.875 C0.08375 2.59625 0.0425 1.3175 0 0 Z " fill="#FFB782" transform="translate(448,145)"/>
<path d="M0 0 C1.9375 0.75 1.9375 0.75 3.9375 2.75 C4.1875 6.25 4.1875 6.25 3.9375 9.75 C1.9375 11.75 1.9375 11.75 -0.5625 12 C-3.0625 11.75 -3.0625 11.75 -5.0625 9.75 C-5.36328125 7.875 -5.36328125 7.875 -5.375 5.75 C-5.39175781 5.04875 -5.40851563 4.3475 -5.42578125 3.625 C-5.30589844 3.00625 -5.18601562 2.3875 -5.0625 1.75 C-2.0625 -0.25 -2.0625 -0.25 0 0 Z " fill="#461D4B" transform="translate(274.0625,123.25)"/>
<path d="M0 0 C1.08667969 0.01804687 2.17335938 0.03609375 3.29296875 0.0546875 C4.54013672 0.08949219 4.54013672 0.08949219 5.8125 0.125 C6.1425 1.445 6.4725 2.765 6.8125 4.125 C3.28570901 6.47619399 1.78370515 6.33943452 -2.375 6.25 C-3.46167969 6.23195313 -4.54835938 6.21390625 -5.66796875 6.1953125 C-6.91513672 6.16050781 -6.91513672 6.16050781 -8.1875 6.125 C-8.5175 4.805 -8.8475 3.485 -9.1875 2.125 C-5.66070901 -0.22619399 -4.15870515 -0.08943452 0 0 Z " fill="#491F4C" transform="translate(316.1875,101.875)"/>
<path d="M0 0 C0.98484375 0.02707031 1.9696875 0.05414063 2.984375 0.08203125 C3.73203125 0.11683594 4.4796875 0.15164062 5.25 0.1875 C5.25 1.5075 5.25 2.8275 5.25 4.1875 C-4.16002278 7.63169134 -4.16002278 7.63169134 -8.75 7.1875 C-9.08 5.8675 -9.41 4.5475 -9.75 3.1875 C-6.47698081 0.21840402 -4.36934238 -0.15604794 0 0 Z " fill="#491F4D" transform="translate(274.75,105.8125)"/>
<path d="M0 0 C1.32841008 5.43440487 1.32841008 5.43440487 -0.125 7.9375 C-2 9 -2 9 -4.6875 8.6875 C-5.450625 8.460625 -6.21375 8.23375 -7 8 C-7.6875 5.6875 -7.6875 5.6875 -8 3 C-5.90994325 -0.36731366 -3.75103888 -0.30413829 0 0 Z " fill="#FFF0E6" transform="translate(488,157)"/>
<path d="M0 0 C2 2 2 2 2 6 C2.66 5.67 3.32 5.34 4 5 C5.54023996 4.93049459 7.08334988 4.91547643 8.625 4.9375 C9.85089844 4.95103516 9.85089844 4.95103516 11.1015625 4.96484375 C12.04128906 4.98224609 12.04128906 4.98224609 13 5 C13.33 5.66 13.66 6.32 14 7 C13.06027344 6.98259766 13.06027344 6.98259766 12.1015625 6.96484375 C10.87566406 6.95130859 10.87566406 6.95130859 9.625 6.9375 C8.40683594 6.92009766 8.40683594 6.92009766 7.1640625 6.90234375 C4.95062858 6.85533666 4.95062858 6.85533666 3 8 C2.26924352 10.3140622 1.59861742 12.64828869 1 15 C0.34 14.01 -0.32 13.02 -1 12 C-1.99 12.66 -2.98 13.32 -4 14 C-2.84826645 11.53199953 -1.95216435 9.95216435 0 8 C0.24212873 6.01871492 0.24212873 6.01871492 0.125 3.875 C0.08375 2.59625 0.0425 1.3175 0 0 Z " fill="#FFCCA7" transform="translate(448,145)"/>
<path d="M0 0 C0.66 0.33 1.32 0.66 2 1 C1.44271087 4.34373475 0.64826111 7.03312999 -1 10 C-2.32 9.67 -3.64 9.34 -5 9 C-3.90931332 5.22454612 -3.0916909 2.52956528 0 0 Z " fill="#FEB480" transform="translate(434,192)"/>
<path d="M0 0 C0.8971875 0.309375 0.8971875 0.309375 1.8125 0.625 C1.01585937 1.15287109 1.01585937 1.15287109 0.203125 1.69140625 C-4.78766828 5.17949717 -7.55116763 8.1326409 -10.1875 13.625 C-10.8475 13.625 -11.5075 13.625 -12.1875 13.625 C-10.81844639 8.39770442 -6.67353655 -1.14403484 0 0 Z " fill="#5E2B56" transform="translate(380.1875,129.375)"/>
<path d="M0 0 C0.33 0 0.66 0 1 0 C1.33 1.98 1.66 3.96 2 6 C4.64 6.33 7.28 6.66 10 7 C10 7.66 10 8.32 10 9 C8.54207116 9.05399736 7.08357288 9.09279177 5.625 9.125 C4.81289063 9.14820313 4.00078125 9.17140625 3.1640625 9.1953125 C1 9 1 9 -1 7 C-1.1875 3.9375 -1.1875 3.9375 -1 1 C-0.67 0.67 -0.34 0.34 0 0 Z " fill="#5D2A55" transform="translate(285,147)"/>
<path d="M0 0 C0.33 0.66 0.66 1.32 1 2 C0.0625 4.625 0.0625 4.625 -1 7 C-3.31 6.67 -5.62 6.34 -8 6 C-8 5.34 -8 4.68 -8 4 C-5.36 2.68 -2.72 1.36 0 0 Z " fill="#9991E7" transform="translate(281,227)"/>
<path d="M0 0 C0.33 0 0.66 0 1 0 C1.3125 2.25 1.3125 2.25 1 5 C-1.66653012 7.90181219 -3.26711909 8.8994085 -7.1875 9.4375 C-8.115625 9.293125 -9.04375 9.14875 -10 9 C-10.66 8.01 -11.32 7.02 -12 6 C-8.7 6 -5.4 6 -2 6 C-1.34 4.02 -0.68 2.04 0 0 Z " fill="#582853" transform="translate(303,156)"/>
<path d="M0 0 C0.66 0.66 1.32 1.32 2 2 C1.77257316 4.72912204 1.45810647 7.31111418 1 10 C0.814375 11.155 0.62875 12.31 0.4375 13.5 C0.2209375 14.7375 0.2209375 14.7375 0 16 C-2.19531199 12.70703201 -2.2036671 12.25029625 -1.6875 8.5625 C-1.58824219 7.80066406 -1.48898437 7.03882813 -1.38671875 6.25390625 C-1.02286132 4.13324225 -0.55389462 2.07828837 0 0 Z " fill="#6E355C" transform="translate(287,134)"/>
<path d="M0 0 C0.66 0 1.32 0 2 0 C3.28406399 1.95224208 4.47941678 3.96340762 5.625 6 C6.25664062 7.11375 6.88828125 8.2275 7.5390625 9.375 C8.26222656 10.674375 8.26222656 10.674375 9 12 C8.01 12.495 8.01 12.495 7 13 C5.82786955 11.21190303 4.66244474 9.41940875 3.5 7.625 C2.8503125 6.62726563 2.200625 5.62953125 1.53125 4.6015625 C0 2 0 2 0 0 Z " fill="#543462" transform="translate(357,262)"/>
<path d="M0 0 C3.34998521 1.11666174 3.79340222 1.74694925 5.6875 4.5625 C6.12449219 5.20316406 6.56148438 5.84382813 7.01171875 6.50390625 C7.33785156 6.99761719 7.66398437 7.49132812 8 8 C7.01 8 6.02 8 5 8 C0 2.65116279 0 2.65116279 0 0 Z " fill="#4B2A60" transform="translate(354,438)"/>
<path d="M0 0 C3.625 0.75 3.625 0.75 7 2 C7.33 2.66 7.66 3.32 8 4 C4.37 3.34 0.74 2.68 -3 2 C-2.01 1.34 -1.02 0.68 0 0 Z " fill="#6D365D" transform="translate(267,244)"/>
</svg>
